<?xml version="1.0" encoding="utf-8"?>
<!-- Generator: Adobe Illustrator 15.0.2, SVG Export Plug-In . SVG Version: 6.00 Build 0)  -->
<!DOCTYPE svg PUBLIC "-//W3C//DTD SVG 1.1//EN" "http://www.w3.org/Graphics/SVG/1.1/DTD/svg11.dtd">
<svg version="1.1" id="Calque_1" xmlns="http://www.w3.org/2000/svg" xmlns:xlink="http://www.w3.org/1999/xlink" x="0px" y="0px"
	 width="35px" height="35px" viewBox="0 0 35 35" enable-background="new 0 0 35 35" xml:space="preserve">
<g opacity="0.8">
	<path fill="#FFFBFF" d="M8.632,24.057c0.089-0.236,0.216-0.42,0.385-0.564l4.251-4.037c0.3,0.458,0.64,0.879,1.023,1.26
		c0.449,0.446,0.945,0.835,1.487,1.168l-4.353,4.134c-0.143,0.158-0.319,0.281-0.539,0.357c-0.217,0.082-0.436,0.123-0.659,0.123
		c-0.229,0-0.453-0.043-0.667-0.134c-0.212-0.095-0.405-0.225-0.572-0.402C8.824,25.788,8.703,25.6,8.62,25.392
		c-0.08-0.209-0.12-0.425-0.12-0.641C8.5,24.52,8.543,24.291,8.632,24.057z"/>
	<path fill="#FFFBFF" d="M19.969,8.503c-3.61,0-6.534,2.924-6.534,6.532s2.925,6.535,6.534,6.535c3.605,0,6.531-2.929,6.531-6.535
		C26.5,11.426,23.574,8.503,19.969,8.503z M19.969,19.601c-2.523,0-4.566-2.043-4.566-4.566c0-2.522,2.043-4.565,4.566-4.565
		c2.52,0,4.564,2.043,4.564,4.565C24.533,17.557,22.488,19.601,19.969,19.601z"/>
</g>
</svg>
