<?xml version="1.0" encoding="utf-8"?>
<!-- Generator: Adobe Illustrator 15.0.2, SVG Export Plug-In . SVG Version: 6.00 Build 0)  -->
<!DOCTYPE svg PUBLIC "-//W3C//DTD SVG 1.1//EN" "http://www.w3.org/Graphics/SVG/1.1/DTD/svg11.dtd">
<svg version="1.1" id="Calque_1" xmlns="http://www.w3.org/2000/svg" xmlns:xlink="http://www.w3.org/1999/xlink" x="0px" y="0px"
	 width="205px" height="205px" viewBox="0 0 205 205" enable-background="new 0 0 205 205" xml:space="preserve">
<g>
	<polygon fill="#C0C0C0" points="136.249,43.315 106.729,43.315 164.911,101.5 106.729,159.686 136.249,159.686 194.437,101.5 	"/>
	<path fill="none" d="M119.966,79.308l0.037,0.041C119.986,79.333,119.977,79.324,119.966,79.308z"/>
	<path fill="none" d="M75.86,123.224c0.004,0.005,0.007,0.008,0.01,0.014l-0.023-0.026C75.852,123.218,75.855,123.221,75.86,123.224
		z"/>
	<path fill="#132C49" d="M120.003,79.349c0.837,0.872,1.646,1.804,2.428,2.8l-8.503,6.288c-2.121-2.632-4.35-4.533-6.686-5.7
		c-2.338-1.168-5.037-1.754-8.1-1.754c-5.831,0-10.49,1.814-13.979,5.44c-3.495,3.625-5.237,8.475-5.237,14.542
		c0,5.964,1.751,10.776,5.259,14.441c3.504,3.668,8.074,5.5,13.714,5.5c4.138,0,7.497-0.973,10.073-2.921
		c2.576-1.944,3.866-4.495,3.866-7.637v-0.639h-14.18V99.315h26.874c0.053,0.347,0.085,0.725,0.102,1.128
		c0.015,0.404,0.018,1.019,0.018,1.853c0,8.831-2.523,15.995-7.575,21.472c-5.05,5.476-11.575,8.222-19.577,8.222
		c-9.156,0-16.697-2.928-22.63-8.752l28.669,28.672l44.011-44.015L120.003,79.349z"/>
	<path opacity="0.15" fill="#000001" d="M120.003,79.349c0.837,0.872,1.646,1.804,2.428,2.8l-8.507,6.288
		c-2.117-2.632-4.346-4.533-6.682-5.7c-2.338-1.168-5.037-1.754-8.1-1.754c-5.831,0-10.49,1.814-13.979,5.44
		c-3.495,3.625-5.237,8.475-5.237,14.542c0,5.964,1.751,10.776,5.259,14.441c3.504,3.668,8.074,5.5,13.715,5.5
		c4.137,0,7.496-0.973,10.072-2.921c2.576-1.944,3.866-4.495,3.866-7.637v-0.639h-14.18V99.315h26.874
		c0.053,0.347,0.085,0.725,0.102,1.128c0.015,0.404,0.018,1.019,0.018,1.853c0,8.831-2.523,15.995-7.575,21.472
		c-5.05,5.476-11.575,8.222-19.578,8.222c-9.155,0-16.696-2.928-22.629-8.752l28.669,28.672l44.011-44.015L120.003,79.349z"/>
	<path fill="#132C49" d="M96.758,43.315L38.571,101.5l58.188,58.185l7.779-7.776L75.87,123.237c-0.003-0.006-0.006-0.009-0.01-0.014
		c-0.005-0.003-0.008-0.006-0.013-0.013c-5.929-5.838-8.894-13.256-8.894-22.25c0-0.578,0.046-1.134,0.073-1.696
		c0.362-8.151,3.294-14.97,8.872-20.419c5.423-5.302,12.164-8.165,20.188-8.642c0.797-0.048,1.591-0.099,2.411-0.099
		c4.809,0,9.213,1.005,13.217,3.021c2.99,1.506,5.74,3.569,8.253,6.182c0.011,0.016,0.021,0.025,0.037,0.041l28.547,28.546
		l6.396-6.394L96.758,43.315z"/>
</g>
</svg>
