<?xml version="1.0" encoding="utf-8"?>
<!-- Generator: Adobe Illustrator 15.0.2, SVG Export Plug-In . SVG Version: 6.00 Build 0)  -->
<!DOCTYPE svg PUBLIC "-//W3C//DTD SVG 1.1//EN" "http://www.w3.org/Graphics/SVG/1.1/DTD/svg11.dtd">
<svg version="1.1" id="Calque_1" xmlns="http://www.w3.org/2000/svg" xmlns:xlink="http://www.w3.org/1999/xlink" x="0px" y="0px"
	 width="92px" height="56px" viewBox="0 0 92 56" enable-background="new 0 0 92 56" xml:space="preserve">
<g>
	<polygon fill="#C0C0C0" points="51.834,10.82 43.118,10.82 60.297,28 43.118,45.18 51.834,45.18 69.015,28 	"/>
	<path fill="none" d="M47.026,21.447l0.011,0.012C47.032,21.455,47.029,21.452,47.026,21.447z"/>
	<polygon fill="none" points="34.003,34.414 34.006,34.418 34,34.41 	"/>
	<path fill="#132C49" d="M47.037,21.459c0.247,0.258,0.486,0.533,0.717,0.827l-2.511,1.856c-0.626-0.777-1.284-1.338-1.974-1.683
		c-0.69-0.345-1.487-0.518-2.392-0.518c-1.722,0-3.097,0.535-4.127,1.606c-1.032,1.07-1.546,2.502-1.546,4.294
		c0,1.761,0.517,3.182,1.553,4.264c1.035,1.083,2.384,1.624,4.049,1.624c1.222,0,2.213-0.287,2.974-0.862
		c0.761-0.574,1.142-1.327,1.142-2.255v-0.188h-4.187v-3.069h7.935c0.016,0.103,0.025,0.213,0.03,0.333
		c0.004,0.12,0.005,0.302,0.005,0.547c0,2.607-0.745,4.723-2.236,6.34s-3.418,2.428-5.78,2.428c-2.704,0-4.93-0.864-6.682-2.584
		l8.465,8.466l12.995-12.996L47.037,21.459z"/>
	<path opacity="0.15" fill="#000001" d="M47.037,21.459c0.247,0.258,0.486,0.533,0.717,0.827l-2.512,1.856
		c-0.625-0.777-1.283-1.338-1.973-1.683c-0.69-0.345-1.487-0.518-2.392-0.518c-1.722,0-3.097,0.535-4.127,1.606
		c-1.032,1.07-1.546,2.502-1.546,4.294c0,1.761,0.517,3.182,1.553,4.264c1.035,1.083,2.384,1.624,4.05,1.624
		c1.221,0,2.213-0.287,2.974-0.862c0.761-0.574,1.142-1.327,1.142-2.255v-0.188h-4.187v-3.069h7.935
		c0.016,0.103,0.025,0.213,0.03,0.333c0.004,0.12,0.005,0.302,0.005,0.547c0,2.607-0.745,4.723-2.236,6.34s-3.418,2.428-5.781,2.428
		c-2.703,0-4.93-0.864-6.682-2.584l8.465,8.466l12.995-12.996L47.037,21.459z"/>
	<path fill="#132C49" d="M40.174,10.82L22.994,28l17.181,17.18l2.297-2.296l-8.465-8.466c-0.001-0.002-0.002-0.003-0.003-0.004
		c-0.001-0.001-0.002-0.002-0.004-0.004c-1.75-1.724-2.626-3.914-2.626-6.569c0-0.17,0.014-0.335,0.021-0.501
		c0.107-2.407,0.973-4.42,2.62-6.029c1.601-1.565,3.591-2.411,5.96-2.552c0.235-0.014,0.47-0.029,0.712-0.029
		c1.42,0,2.72,0.297,3.902,0.892c0.883,0.444,1.695,1.054,2.437,1.825c0.003,0.004,0.006,0.007,0.011,0.012l8.429,8.429L57.354,28
		L40.174,10.82z"/>
</g>
</svg>
