<?xml version="1.0" encoding="utf-8"?>
<!-- Generator: Adobe Illustrator 15.0.2, SVG Export Plug-In . SVG Version: 6.00 Build 0)  -->
<!DOCTYPE svg PUBLIC "-//W3C//DTD SVG 1.1//EN" "http://www.w3.org/Graphics/SVG/1.1/DTD/svg11.dtd">
<svg version="1.1" id="Calque_1" xmlns="http://www.w3.org/2000/svg" xmlns:xlink="http://www.w3.org/1999/xlink" x="0px" y="0px"
	 width="80px" height="80px" viewBox="0 0 80 80" enable-background="new 0 0 80 80" xml:space="preserve">
<g>
	<polygon fill="#C0C0C0" points="47.6,17.602 36.236,17.602 58.633,40 36.236,62.397 47.6,62.397 70,40 	"/>
	<path fill="none" d="M41.33,31.457l0.016,0.015C41.34,31.467,41.334,31.463,41.33,31.457z"/>
	<polygon fill="none" points="24.353,48.361 24.356,48.367 24.349,48.356 	"/>
	<path fill="#132C49" d="M41.346,31.472c0.322,0.336,0.635,0.695,0.935,1.078l-3.273,2.42c-0.816-1.013-1.674-1.745-2.574-2.194
		c-0.899-0.45-1.938-0.675-3.119-0.675c-2.246,0-4.038,0.698-5.38,2.093c-1.345,1.396-2.016,3.262-2.016,5.598
		c0,2.296,0.674,4.149,2.024,5.561c1.349,1.41,3.108,2.116,5.279,2.116c1.593,0,2.885-0.375,3.876-1.123
		c0.993-0.749,1.489-1.731,1.489-2.941V43.16h-5.458v-4h10.345c0.021,0.134,0.033,0.278,0.04,0.435
		c0.005,0.157,0.006,0.393,0.006,0.713c0,3.398-0.971,6.156-2.914,8.266c-1.945,2.107-4.458,3.166-7.536,3.166
		c-3.526,0-6.428-1.128-8.712-3.369l11.036,11.037l16.942-16.943L41.346,31.472z"/>
	<path opacity="0.15" fill="#000001" enable-background="new    " d="M41.346,31.472c0.322,0.336,0.635,0.695,0.935,1.078
		l-3.275,2.42c-0.814-1.013-1.673-1.745-2.572-2.194c-0.899-0.45-1.938-0.675-3.119-0.675c-2.246,0-4.038,0.698-5.38,2.093
		c-1.345,1.396-2.016,3.262-2.016,5.598c0,2.296,0.674,4.149,2.024,5.561c1.349,1.41,3.108,2.116,5.28,2.116
		c1.592,0,2.886-0.375,3.877-1.123c0.992-0.749,1.489-1.731,1.489-2.941V43.16H33.13v-4h10.346c0.021,0.134,0.031,0.278,0.038,0.435
		c0.006,0.157,0.008,0.393,0.008,0.713c0,3.398-0.971,6.156-2.915,8.266c-1.944,2.107-4.456,3.166-7.537,3.166
		c-3.524,0-6.428-1.128-8.712-3.369l11.036,11.037l16.942-16.943L41.346,31.472z"/>
	<path fill="#132C49" d="M32.398,17.602L10,40l22.398,22.397l2.996-2.993L24.358,48.367c0-0.003-0.002-0.005-0.003-0.006
		c-0.001,0-0.002-0.002-0.006-0.005c-2.281-2.248-3.423-5.104-3.423-8.564c0-0.221,0.018-0.437,0.028-0.653
		c0.14-3.137,1.268-5.762,3.416-7.859c2.087-2.042,4.682-3.143,7.77-3.329c0.306-0.018,0.612-0.037,0.928-0.037
		c1.851,0,3.547,0.387,5.087,1.163c1.151,0.579,2.21,1.374,3.178,2.379c0.004,0.005,0.008,0.009,0.014,0.015l10.99,10.99L54.797,40
		L32.398,17.602z"/>
</g>
</svg>
