<?xml version="1.0" encoding="utf-8"?>
<!-- Generator: Adobe Illustrator 15.0.2, SVG Export Plug-In . SVG Version: 6.00 Build 0)  -->
<!DOCTYPE svg PUBLIC "-//W3C//DTD SVG 1.1//EN" "http://www.w3.org/Graphics/SVG/1.1/DTD/svg11.dtd">
<svg version="1.1" id="Calque_1" xmlns="http://www.w3.org/2000/svg" xmlns:xlink="http://www.w3.org/1999/xlink" x="0px" y="0px"
	 width="80px" height="80px" viewBox="0 0 80 80" enable-background="new 0 0 80 80" xml:space="preserve">
<polygon fill="#C0C0C0" points="48.816,14.033 35.641,14.033 61.607,40 35.641,65.967 48.816,65.967 74.784,40 "/>
<path fill="none" d="M41.548,30.097l0.018,0.017C41.56,30.108,41.554,30.103,41.548,30.097z"/>
<polygon fill="none" points="21.865,49.695 21.87,49.699 21.86,49.689 "/>
<path fill="#132C49" d="M41.565,30.114c0.373,0.39,0.734,0.806,1.083,1.25l-3.794,2.806c-0.947-1.175-1.941-2.023-2.984-2.544
	s-2.248-0.782-3.614-0.782c-2.602,0-4.681,0.809-6.239,2.427c-1.559,1.618-2.337,3.782-2.337,6.49c0,2.662,0.782,4.81,2.347,6.445
	c1.564,1.637,3.604,2.455,6.121,2.455c1.846,0,3.345-0.435,4.495-1.306c1.15-0.867,1.726-2.004,1.726-3.405v-0.287h-6.328v-4.638
	h11.991c0.024,0.155,0.04,0.323,0.047,0.502c0.005,0.181,0.008,0.456,0.008,0.827c0,3.943-1.127,7.139-3.38,9.583
	c-2.254,2.445-5.166,3.668-8.738,3.668c-4.085,0-7.452-1.305-10.1-3.906l12.795,12.796l19.641-19.642L41.565,30.114z"/>
<path opacity="0.15" fill="#000001" d="M41.565,30.114c0.373,0.39,0.734,0.806,1.083,1.25l-3.795,2.806
	c-0.946-1.175-1.94-2.023-2.983-2.544s-2.248-0.782-3.614-0.782c-2.602,0-4.681,0.809-6.239,2.427
	c-1.559,1.618-2.337,3.782-2.337,6.49c0,2.662,0.782,4.81,2.347,6.445c1.564,1.637,3.604,2.455,6.122,2.455
	c1.846,0,3.345-0.435,4.494-1.306c1.15-0.867,1.727-2.004,1.727-3.405v-0.287h-6.328v-4.638h11.991
	c0.024,0.155,0.04,0.323,0.047,0.502c0.005,0.181,0.008,0.456,0.008,0.827c0,3.943-1.127,7.139-3.38,9.583
	c-2.254,2.445-5.166,3.668-8.738,3.668c-4.085,0-7.451-1.305-10.099-3.906l12.794,12.796l19.642-19.642L41.565,30.114z"/>
<path fill="#132C49" d="M31.192,14.033L5.225,40l25.968,25.967l3.472-3.472L21.87,49.699c-0.001-0.002-0.003-0.003-0.004-0.004
	c-0.002-0.002-0.003-0.004-0.005-0.006c-2.646-2.606-3.97-5.915-3.97-9.93c0-0.258,0.021-0.505,0.032-0.757
	c0.162-3.637,1.471-6.681,3.959-9.112c2.421-2.366,5.429-3.644,9.01-3.857c0.355-0.021,0.709-0.044,1.076-0.044
	c2.146,0,4.111,0.449,5.897,1.348c1.334,0.672,2.562,1.593,3.683,2.76c0.006,0.006,0.012,0.011,0.018,0.017l12.74,12.74L57.16,40
	L31.192,14.033z"/>
</svg>
