<?xml version="1.0" encoding="utf-8"?>
<!-- Generator: Adobe Illustrator 15.0.2, SVG Export Plug-In . SVG Version: 6.00 Build 0)  -->
<!DOCTYPE svg PUBLIC "-//W3C//DTD SVG 1.1//EN" "http://www.w3.org/Graphics/SVG/1.1/DTD/svg11.dtd">
<svg version="1.1" id="Calque_1" xmlns="http://www.w3.org/2000/svg" xmlns:xlink="http://www.w3.org/1999/xlink" x="0px" y="0px"
	 width="170px" height="34px" viewBox="-38 -1 170 34" enable-background="new -38 -1 170 34" xml:space="preserve">
<rect x="-4" y="-1" fill="#D31147" width="34" height="34"/>
<rect x="-4" y="-1" fill="#2B89FE" width="34" height="1"/>
<rect x="64" y="-1" fill="#F01B57" width="34" height="34"/>
<rect x="64" y="-1" fill="#2679E0" width="34" height="4"/>
<rect x="98" y="-1" fill="#F01B57" width="34" height="34"/>
<rect x="98" y="-1" fill="#2679E0" width="34" height="4"/>
<path fill="#2E2E2D" d="M19.941,11.251V6.16h-2.769v2.975L13.08,6L2.043,14.325l1.888,2.394L5.048,16v10h15.984V15.814l1.036,0.877
	l1.889-2.367L19.941,11.251z M19.409,24.404h-3.563V18.42h-5.611v5.984H6.644V14.91l6.437-4.894l6.329,4.734L19.409,24.404
	L19.409,24.404z"/>
<rect x="-38" y="-1" fill="#D31147" width="34" height="34"/>
<path fill="#2E2E2D" d="M-14.059,11.251V6.16h-2.769v2.975L-20.92,6l-11.037,8.325l1.888,2.394L-28.952,16v10h15.984V15.814
	l1.036,0.877l1.889-2.367L-14.059,11.251z M-14.591,24.404h-3.563V18.42h-5.611v5.984h-3.591V14.91l6.437-4.894l6.329,4.734
	L-14.591,24.404L-14.591,24.404z"/>
<path fill="#0A7039" d="M87.941,11.251V6.16h-2.77v2.975L81.08,6l-11.037,8.325l1.889,2.394L73.048,16v10h15.984V15.814l1.036,0.877
	l1.889-2.367L87.941,11.251z M87.409,24.404h-3.563V18.42h-5.611v5.984h-3.59V14.91l6.437-4.894l6.329,4.734L87.409,24.404
	L87.409,24.404z"/>
<path fill="#0A7039" d="M121.941,11.251V6.16h-2.77v2.975L115.08,6l-11.037,8.325l1.889,2.394L107.048,16v10h15.984V15.814
	l1.036,0.877l1.889-2.367L121.941,11.251z M121.409,24.404h-3.563V18.42h-5.611v5.984h-3.59V14.91l6.438-4.894l6.329,4.734
	L121.409,24.404L121.409,24.404z"/>
<rect x="30" y="-1" opacity="0.5" fill="#D31147" enable-background="new    " width="34" height="34"/>
<path opacity="0.5" fill="#2E2E2D" enable-background="new    " d="M53.941,11.251V6.16h-2.77v2.975L47.08,6l-11.037,8.325
	l1.889,2.394L39.048,16v10h15.984V15.814l1.036,0.877l1.889-2.367L53.941,11.251z M53.409,24.404h-3.563V18.42h-5.611v5.984h-3.59
	V14.91l6.438-4.894l6.329,4.734L53.409,24.404L53.409,24.404z"/>
<rect x="-38" y="-1" fill="#2B89FE" width="170" height="1"/>
</svg>
