<?xml version="1.0" encoding="utf-8"?>
<!-- Generator: Adobe Illustrator 15.0.2, SVG Export Plug-In . SVG Version: 6.00 Build 0)  -->
<!DOCTYPE svg PUBLIC "-//W3C//DTD SVG 1.1//EN" "http://www.w3.org/Graphics/SVG/1.1/DTD/svg11.dtd">
<svg version="1.1" id="Calque_1" xmlns="http://www.w3.org/2000/svg" xmlns:xlink="http://www.w3.org/1999/xlink" x="0px" y="0px"
	 width="20px" height="24px" viewBox="0 0 20 24" enable-background="new 0 0 20 24" xml:space="preserve">
<path fill="#2AEDFF" d="M20,20c0,2.2-1.8,4-4,4H4c-2.2,0-4-1.8-4-4V4c0-2.2,1.8-4,4-4h12c2.2,0,4,1.8,4,4V20z"/>
<path fill="#FFFFFE" d="M19,19.359C19,21.561,17.841,23,15.641,23H4.531C2.331,23,1,21.2,1,19V4.266C1,2.065,2.8,1,5,1h10.469
	C17.669,1,19,2.254,19,4.454V19.359z"/>
<linearGradient id="SVGID_1_" gradientUnits="userSpaceOnUse" x1="549.1992" y1="838.9199" x2="549.1992" y2="818.9199" gradientTransform="matrix(1 0 0 1 -539.1992 -816.9199)">
	<stop  offset="0" style="stop-color:#E8C6B0"/>
	<stop  offset="1" style="stop-color:#EEEBE8"/>
</linearGradient>
<path fill="url(#SVGID_1_)" d="M18,18.656C18,20.855,17.152,22,14.953,22H4.891C2.69,22,2,20.2,2,18V4.781C2,2.581,3.8,2,6,2h8.984
	C17.186,2,18,3.097,18,5.297V18.656z"/>
<linearGradient id="SVGID_2_" gradientUnits="userSpaceOnUse" x1="549.2002" y1="828.6699" x2="549.2002" y2="838.7982" gradientTransform="matrix(1 0 0 1 -539.1992 -816.9199)">
	<stop  offset="0" style="stop-color:#000000;stop-opacity:0"/>
	<stop  offset="1" style="stop-color:#000000;stop-opacity:0.1"/>
</linearGradient>
<path fill="url(#SVGID_2_)" d="M18,18.656C18,20.855,17.152,22,14.953,22H4.891C2.69,22,2,20.2,2,18V4.781C2,2.581,3.8,2,6,2h8.984
	C17.186,2,18,3.097,18,5.297V18.656z"/>
</svg>
