<?xml version="1.0" encoding="utf-8"?>
<!-- Generator: Adobe Illustrator 15.0.2, SVG Export Plug-In . SVG Version: 6.00 Build 0)  -->
<!DOCTYPE svg PUBLIC "-//W3C//DTD SVG 1.1//EN" "http://www.w3.org/Graphics/SVG/1.1/DTD/svg11.dtd">
<svg version="1.1" id="Calque_1" xmlns="http://www.w3.org/2000/svg" xmlns:xlink="http://www.w3.org/1999/xlink" x="0px" y="0px"
	 width="170px" height="34px" viewBox="-38 0 170 34" enable-background="new -38 0 170 34" xml:space="preserve">
<rect x="-38" fill="#2B89FE" width="102" height="1"/>
<rect x="-4" fill="#D31147" width="34" height="34"/>
<rect x="64" fill="#F01B57" width="34" height="34"/>
<rect x="64" fill="#2679E0" width="34" height="4"/>
<rect x="98" fill="#F01B57" width="34" height="34"/>
<rect x="98" fill="#2679E0" width="34" height="4"/>
<g>
	<g>
		<path fill="#2E2E2D" d="M4.41,10l7.88,7.882c0.189,0.188,0.44,0.292,0.711,0.292s0.521-0.104,0.711-0.292L21.592,10H4.41z"/>
		<g>
			<path fill="#2E2E2D" d="M16.016,17.018l-1.567,1.567c-0.39,0.39-0.901,0.582-1.414,0.582c-0.513,0-1.023-0.192-1.414-0.582
				l-1.6-1.601l-6.598,6.597c-0.043,0.046-0.086,0.081-0.13,0.116C3.474,23.884,3.729,24,4.007,24h17.987
				c0.281,0,0.535-0.116,0.716-0.303c-0.045-0.035-0.087-0.07-0.13-0.116L16.016,17.018z"/>
		</g>
		<g>
			<path fill="#2E2E2D" d="M3.455,10.42c-0.051-0.051-0.086-0.102-0.127-0.15c-0.199,0.184-0.324,0.444-0.324,0.735v11.588
				l6.313-6.313L3.455,10.42z"/>
			<path fill="#2E2E2D" d="M22.612,10.42l-5.896,5.893l6.281,6.28V11.005c0-0.273-0.11-0.521-0.288-0.701
				C22.675,10.341,22.651,10.379,22.612,10.42z"/>
		</g>
	</g>
</g>
<rect x="-38" fill="#D31147" width="34" height="34"/>
<g>
	<g>
		<path fill="#2E2E2D" d="M-29.59,10l7.88,7.882c0.189,0.188,0.44,0.292,0.711,0.292s0.521-0.104,0.711-0.292l7.88-7.882H-29.59z"/>
		<g>
			<path fill="#2E2E2D" d="M-17.984,17.018l-1.567,1.567c-0.39,0.39-0.901,0.582-1.414,0.582c-0.513,0-1.023-0.192-1.414-0.582
				l-1.6-1.601l-6.598,6.597c-0.043,0.046-0.086,0.081-0.13,0.116C-30.526,23.884-30.271,24-29.993,24h17.987
				c0.281,0,0.535-0.116,0.716-0.303c-0.045-0.035-0.087-0.07-0.13-0.116L-17.984,17.018z"/>
		</g>
		<g>
			<path fill="#2E2E2D" d="M-30.545,10.42c-0.051-0.051-0.086-0.102-0.127-0.15c-0.199,0.184-0.324,0.444-0.324,0.735v11.588
				l6.313-6.313L-30.545,10.42z"/>
			<path fill="#2E2E2D" d="M-11.388,10.42l-5.896,5.893l6.281,6.28V11.005c0-0.273-0.11-0.521-0.288-0.701
				C-11.325,10.341-11.349,10.379-11.388,10.42z"/>
		</g>
	</g>
</g>
<g>
	<g>
		<path fill="#0A7039" d="M72.41,10l7.88,7.882c0.188,0.188,0.44,0.292,0.711,0.292s0.521-0.104,0.711-0.292L89.592,10H72.41z"/>
		<g>
			<path fill="#0A7039" d="M84.016,17.018l-1.566,1.567c-0.391,0.39-0.901,0.582-1.414,0.582c-0.514,0-1.023-0.192-1.414-0.582
				l-1.6-1.601l-6.599,6.597c-0.043,0.046-0.086,0.081-0.13,0.116C71.475,23.884,71.729,24,72.007,24h17.987
				c0.281,0,0.535-0.116,0.716-0.303c-0.045-0.035-0.087-0.07-0.13-0.116L84.016,17.018z"/>
		</g>
		<g>
			<path fill="#0A7039" d="M71.455,10.42c-0.051-0.051-0.086-0.102-0.127-0.15c-0.199,0.184-0.324,0.444-0.324,0.735v11.588
				l6.313-6.313L71.455,10.42z"/>
			<path fill="#0A7039" d="M90.611,10.42l-5.896,5.893l6.281,6.28V11.005c0-0.273-0.11-0.521-0.288-0.701
				C90.675,10.341,90.65,10.379,90.611,10.42z"/>
		</g>
	</g>
</g>
<g>
	<g>
		<path fill="#0A7039" d="M106.41,10l7.879,7.882c0.189,0.188,0.439,0.292,0.711,0.292s0.521-0.104,0.711-0.292L123.592,10H106.41z"
			/>
		<g>
			<path fill="#0A7039" d="M118.016,17.018l-1.565,1.567c-0.392,0.39-0.902,0.582-1.414,0.582c-0.515,0-1.022-0.192-1.414-0.582
				l-1.601-1.601l-6.6,6.597c-0.043,0.046-0.086,0.081-0.129,0.116c0.182,0.187,0.436,0.303,0.715,0.303h17.986
				c0.281,0,0.535-0.116,0.717-0.303c-0.045-0.035-0.088-0.07-0.131-0.116L118.016,17.018z"/>
		</g>
		<g>
			<path fill="#0A7039" d="M105.455,10.42c-0.053-0.051-0.086-0.102-0.127-0.15c-0.199,0.184-0.324,0.444-0.324,0.735v11.588
				l6.313-6.313L105.455,10.42z"/>
			<path fill="#0A7039" d="M124.611,10.42l-5.896,5.893l6.281,6.28V11.005c0-0.273-0.109-0.521-0.287-0.701
				C124.676,10.341,124.65,10.379,124.611,10.42z"/>
		</g>
	</g>
</g>
<rect x="30" opacity="0.5" fill="#D31147" enable-background="new    " width="34" height="34"/>
<g opacity="0.5">
	<g>
		<path fill="#2E2E2D" d="M38.41,10l7.879,7.882c0.189,0.188,0.439,0.292,0.711,0.292s0.521-0.104,0.711-0.292L55.592,10H38.41z"/>
		<g>
			<path fill="#2E2E2D" d="M50.016,17.018l-1.565,1.567c-0.392,0.39-0.902,0.582-1.414,0.582c-0.515,0-1.022-0.192-1.414-0.582
				l-1.601-1.601l-6.6,6.597c-0.043,0.046-0.086,0.081-0.129,0.116C37.475,23.884,37.729,24,38.008,24h17.986
				c0.281,0,0.535-0.116,0.717-0.303c-0.045-0.035-0.088-0.07-0.131-0.116L50.016,17.018z"/>
		</g>
		<g>
			<path fill="#2E2E2D" d="M37.455,10.42c-0.053-0.051-0.086-0.102-0.127-0.15c-0.199,0.184-0.324,0.444-0.324,0.735v11.588
				l6.313-6.313L37.455,10.42z"/>
			<path fill="#2E2E2D" d="M56.611,10.42l-5.896,5.893l6.281,6.28V11.005c0-0.273-0.109-0.521-0.287-0.701
				C56.676,10.341,56.65,10.379,56.611,10.42z"/>
		</g>
	</g>
</g>
<rect x="-38" fill="#2B89FE" width="102" height="1"/>
</svg>
