<?xml version="1.0" encoding="utf-8"?>
<!-- Generator: Adobe Illustrator 15.0.2, SVG Export Plug-In . SVG Version: 6.00 Build 0)  -->
<!DOCTYPE svg PUBLIC "-//W3C//DTD SVG 1.1//EN" "http://www.w3.org/Graphics/SVG/1.1/DTD/svg11.dtd">
<svg version="1.1" id="Calque_1" xmlns="http://www.w3.org/2000/svg" xmlns:xlink="http://www.w3.org/1999/xlink" x="0px" y="0px"
	 width="170px" height="34px" viewBox="-34 0 170 34" enable-background="new -34 0 170 34" xml:space="preserve">
<rect fill="#D31147" width="34" height="34"/>
<g>
	<path fill="#2E2E2D" d="M17.36,7.018C17.252,7.007,17.144,7,17.035,7c-0.006,0-0.011,0.001-0.017,0.001S17.006,7,17,7
		c-2.797,0-5.065,2.82-5.065,5.846c0,1.295,0.416,2.182,1.11,2.772c0.73,1.958,2.242,3.304,3.989,3.304
		c1.774,0,3.305-1.387,4.022-3.394c0.633-0.59,1.008-1.452,1.008-2.684C22.064,9.951,19.988,7.246,17.36,7.018z M20.432,14.856
		l-0.164,0.152l-0.076,0.21c-0.604,1.691-1.844,2.784-3.155,2.784c-1.307,0-2.506-1.037-3.128-2.706l-0.083-0.224l-0.182-0.155
		c-0.53-0.45-0.787-1.129-0.787-2.072c0-0.386,0.042-0.764,0.121-1.13c0.055-0.168,0.139-0.382,0.751,0.637
		c0.541,0.898,0.138-1.563,0.919-1.563c0.781,0,1.333,0.883,2.354,0.883s1.574-0.883,2.354-0.883c0.78,0,0.414,2.481,0.92,1.563
		c0.744-1.354,0.711-0.629,0.75-0.636c0.08,0.366,0.123,0.745,0.123,1.129C21.146,13.75,20.912,14.407,20.432,14.856z"/>
	<path fill="#2E2E2D" d="M25.266,25.852c-1.192-6.041-4.111-7.787-4.455-7.787c-0.346,0-0.094-0.112-1.193,0.896
		C18.512,19.971,17,19.902,17,19.902s-1.512,0.067-2.615-0.942c-1.103-1.01-0.85-0.896-1.195-0.896
		c-0.344,0-3.262,1.746-4.456,7.787c0,0-0.253,1.146,0.437,1.146C9.86,27,17,27,17,27s7.141,0,7.829,0
		C25.52,27,25.266,25.852,25.266,25.852z"/>
</g>
<rect x="34" opacity="0.5" fill="#D31147" enable-background="new    " width="34" height="34"/>
<g opacity="0.5">
	<path fill="#2E2E2D" d="M51.358,7.018C51.251,7.007,51.144,7,51.034,7c-0.006,0-0.012,0.001-0.018,0.001S51.005,7,50.999,7
		c-2.797,0-5.064,2.82-5.064,5.846c0,1.295,0.416,2.182,1.109,2.772c0.73,1.958,2.242,3.304,3.989,3.304
		c1.774,0,3.305-1.387,4.022-3.394c0.633-0.59,1.008-1.452,1.008-2.684C56.063,9.951,53.987,7.246,51.358,7.018z M54.431,14.856
		l-0.164,0.152l-0.076,0.21c-0.604,1.691-1.844,2.784-3.154,2.784c-1.309,0-2.508-1.037-3.128-2.706l-0.083-0.224l-0.184-0.155
		c-0.529-0.45-0.787-1.129-0.787-2.072c0-0.386,0.043-0.764,0.121-1.13c0.057-0.168,0.141-0.382,0.752,0.637
		c0.541,0.898,0.139-1.563,0.918-1.563c0.781,0,1.334,0.883,2.354,0.883s1.574-0.883,2.354-0.883c0.779,0,0.414,2.481,0.92,1.563
		c0.744-1.354,0.711-0.629,0.75-0.636c0.08,0.366,0.123,0.745,0.123,1.129C55.146,13.75,54.911,14.407,54.431,14.856z"/>
	<path fill="#2E2E2D" d="M59.265,25.852c-1.191-6.041-4.111-7.787-4.455-7.787c-0.346,0-0.094-0.112-1.192,0.896
		C52.513,19.971,51,19.902,51,19.902s-1.513,0.068-2.614-0.942c-1.104-1.01-0.851-0.896-1.195-0.896
		c-0.344,0-3.262,1.746-4.455,7.787c0,0-0.254,1.146,0.437,1.146C43.858,27,50.999,27,50.999,27s7.141,0,7.829,0
		C59.519,27,59.265,25.852,59.265,25.852z"/>
</g>
<rect fill="#2B89FE" width="34" height="1"/>
<rect x="-34" fill="#D31147" width="34" height="34"/>
<g>
	<path fill="#2E2E2D" d="M-16.64,7.018C-16.748,7.007-16.856,7-16.965,7c-0.006,0-0.011,0.001-0.017,0.001S-16.994,7-17,7
		c-2.797,0-5.065,2.82-5.065,5.846c0,1.295,0.416,2.182,1.11,2.772c0.73,1.958,2.242,3.304,3.989,3.304
		c1.774,0,3.305-1.387,4.022-3.394c0.633-0.59,1.008-1.452,1.008-2.684C-11.936,9.951-14.012,7.246-16.64,7.018z M-13.568,14.856
		l-0.164,0.152l-0.076,0.21c-0.604,1.691-1.844,2.784-3.155,2.784c-1.307,0-2.506-1.037-3.128-2.706l-0.083-0.224l-0.182-0.155
		c-0.53-0.45-0.787-1.129-0.787-2.072c0-0.386,0.042-0.764,0.121-1.13c0.055-0.168,0.139-0.382,0.751,0.637
		c0.541,0.898,0.138-1.563,0.919-1.563c0.781,0,1.333,0.883,2.354,0.883s1.574-0.883,2.354-0.883c0.78,0,0.414,2.481,0.92,1.563
		c0.744-1.354,0.711-0.629,0.75-0.636c0.08,0.366,0.123,0.745,0.123,1.129C-12.854,13.75-13.088,14.407-13.568,14.856z"/>
	<path fill="#2E2E2D" d="M-8.734,25.852c-1.192-6.041-4.111-7.787-4.455-7.787c-0.346,0-0.094-0.112-1.193,0.896
		C-15.488,19.971-17,19.902-17,19.902s-1.512,0.067-2.615-0.942c-1.103-1.01-0.85-0.896-1.195-0.896
		c-0.344,0-3.262,1.746-4.456,7.787c0,0-0.253,1.146,0.437,1.146C-24.14,27-17,27-17,27s7.141,0,7.829,0
		C-8.48,27-8.734,25.852-8.734,25.852z"/>
</g>
<rect x="-34" fill="#2B89FE" width="34" height="1"/>
<g>
	<rect x="68" fill="#F01B57" width="34" height="34"/>
	<g>
		<path fill="#0A7039" d="M85.359,7.018C85.252,7.007,85.145,7,85.035,7c-0.006,0-0.012,0.001-0.018,0.001S85.006,7,85,7
			c-2.797,0-5.064,2.82-5.064,5.846c0,1.295,0.416,2.183,1.109,2.772c0.73,1.958,2.242,3.304,3.989,3.304
			c1.774,0,3.305-1.387,4.022-3.395c0.633-0.59,1.008-1.451,1.008-2.683C90.064,9.951,87.988,7.246,85.359,7.018z M88.432,14.855
			l-0.164,0.152l-0.076,0.21c-0.604,1.691-1.844,2.784-3.153,2.784c-1.308,0-2.506-1.037-3.128-2.706l-0.083-0.224l-0.183-0.155
			c-0.529-0.45-0.787-1.129-0.787-2.071c0-0.387,0.041-0.765,0.121-1.131c0.056-0.168,0.14-0.382,0.75,0.637
			c0.541,0.898,0.14-1.563,0.92-1.563c0.781,0,1.332,0.883,2.354,0.883s1.574-0.883,2.354-0.883c0.781,0,0.414,2.48,0.92,1.563
			c0.744-1.354,0.711-0.629,0.75-0.636c0.08,0.366,0.123,0.745,0.123,1.13C89.146,13.75,88.912,14.407,88.432,14.855z"/>
		<path fill="#0A7039" d="M93.266,25.852c-1.191-6.041-4.111-7.787-4.455-7.787c-0.346,0-0.094-0.111-1.191,0.896
			C86.512,19.971,85,19.902,85,19.902s-1.512,0.067-2.615-0.942c-1.103-1.01-0.85-0.896-1.195-0.896
			c-0.344,0-3.262,1.746-4.455,7.787c0,0-0.254,1.146,0.438,1.146C77.859,27,85,27,85,27s7.141,0,7.829,0
			C93.52,27,93.266,25.852,93.266,25.852z"/>
	</g>
	<rect x="68" fill="#2679E0" width="34" height="4"/>
</g>
<g>
	<rect x="102" fill="#F01B57" width="34" height="34"/>
	<g>
		<path fill="#0A7039" d="M119.359,7.018C119.252,7.007,119.145,7,119.035,7c-0.006,0-0.012,0.001-0.018,0.001S119.006,7,119,7
			c-2.797,0-5.064,2.82-5.064,5.846c0,1.295,0.416,2.183,1.109,2.772c0.73,1.958,2.242,3.304,3.989,3.304
			c1.774,0,3.305-1.387,4.022-3.395c0.633-0.59,1.008-1.451,1.008-2.683C124.064,9.951,121.988,7.246,119.359,7.018z
			 M122.432,14.855l-0.164,0.152l-0.076,0.21c-0.604,1.691-1.844,2.784-3.153,2.784c-1.308,0-2.506-1.037-3.128-2.706l-0.083-0.224
			l-0.183-0.155c-0.529-0.45-0.787-1.129-0.787-2.071c0-0.387,0.041-0.765,0.121-1.131c0.056-0.168,0.14-0.382,0.75,0.637
			c0.541,0.898,0.14-1.563,0.92-1.563c0.781,0,1.332,0.883,2.354,0.883s1.574-0.883,2.354-0.883c0.781,0,0.414,2.48,0.92,1.563
			c0.744-1.354,0.711-0.629,0.75-0.636c0.08,0.366,0.123,0.745,0.123,1.13C123.146,13.75,122.912,14.407,122.432,14.855z"/>
		<path fill="#0A7039" d="M127.266,25.852c-1.191-6.041-4.111-7.787-4.455-7.787c-0.346,0-0.094-0.111-1.191,0.896
			c-1.107,1.01-2.619,0.941-2.619,0.941s-1.512,0.067-2.615-0.942c-1.103-1.01-0.85-0.896-1.195-0.896
			c-0.344,0-3.262,1.746-4.455,7.787c0,0-0.254,1.146,0.438,1.146C111.859,27,119,27,119,27s7.141,0,7.829,0
			C127.52,27,127.266,25.852,127.266,25.852z"/>
	</g>
	<rect x="102" fill="#2679E0" width="34" height="4"/>
</g>
</svg>
