<?xml version="1.0" encoding="utf-8"?>
<!-- Generator: Adobe Illustrator 15.0.2, SVG Export Plug-In . SVG Version: 6.00 Build 0)  -->
<!DOCTYPE svg PUBLIC "-//W3C//DTD SVG 1.1//EN" "http://www.w3.org/Graphics/SVG/1.1/DTD/svg11.dtd">
<svg version="1.1" id="Calque_1" xmlns="http://www.w3.org/2000/svg" xmlns:xlink="http://www.w3.org/1999/xlink" x="0px" y="0px"
	 width="80px" height="24px" viewBox="0 0 80 24" enable-background="new 0 0 80 24" xml:space="preserve">
<path fill="#2AEDFF" d="M80,20c0,2.2-1.8,4-4,4H4c-2.2,0-4-1.8-4-4V4c0-2.2,1.8-4,4-4h72c2.2,0,4,1.8,4,4V20z"/>
<path fill="#FFFFFE" d="M79,19.359C79,21.561,77.841,23,75.641,23H4.531C2.331,23,1,21.2,1,19V4.266C1,2.065,2.8,1,5,1h70.469
	C77.669,1,79,2.254,79,4.454V19.359z"/>
<linearGradient id="SVGID_1_" gradientUnits="userSpaceOnUse" x1="309.6006" y1="-389.96" x2="309.6006" y2="-369.96" gradientTransform="matrix(1 0 0 -1 -269.5996 -367.96)">
	<stop  offset="0" style="stop-color:#E8C6B0"/>
	<stop  offset="1" style="stop-color:#EEEBE8"/>
</linearGradient>
<path fill="url(#SVGID_1_)" d="M78,18.656C78,20.855,77.152,22,74.953,22H4.891C2.69,22,2,20.2,2,18V4.781C2,2.581,3.8,2,6,2h68.984
	C77.186,2,78,3.097,78,5.297V18.656z"/>
<linearGradient id="SVGID_2_" gradientUnits="userSpaceOnUse" x1="309.5996" y1="-379.71" x2="309.5996" y2="-389.8383" gradientTransform="matrix(1 0 0 -1 -269.5996 -367.96)">
	<stop  offset="0" style="stop-color:#000000;stop-opacity:0"/>
	<stop  offset="1" style="stop-color:#000000;stop-opacity:0.1"/>
</linearGradient>
<path fill="url(#SVGID_2_)" d="M78,18.656C78,20.855,77.152,22,74.953,22H4.891C2.69,22,2,20.2,2,18V4.781C2,2.581,3.8,2,6,2h68.984
	C77.186,2,78,3.097,78,5.297V18.656z"/>
</svg>
