<?xml version="1.0" encoding="utf-8"?>
<!-- Generator: Adobe Illustrator 15.0.2, SVG Export Plug-In . SVG Version: 6.00 Build 0)  -->
<!DOCTYPE svg PUBLIC "-//W3C//DTD SVG 1.1//EN" "http://www.w3.org/Graphics/SVG/1.1/DTD/svg11.dtd">
<svg version="1.1" id="Calque_1" xmlns="http://www.w3.org/2000/svg" xmlns:xlink="http://www.w3.org/1999/xlink" x="0px" y="0px"
	 width="280px" height="175px" viewBox="0 0 280 175" enable-background="new 0 0 280 175" xml:space="preserve">
<path fill="#EEEBE8" d="M245.796,52.102c0,0,29.432,54.906,29.432,81.541c0,41.347-21.974,41.357-54.219,41.357
	c-32.242,0-216.236,0-216.236-61.029c0-42.706,46.519-84.537,46.519-84.537s-26.1,16.721-42.221,55.382c0,0-2.157,1.02-2.157-3.275
	c0-4.284,24.02-39.793,43.041-54.595C68.975,12.147,99.034,0,149.635,0C164.902,0,227.5,3.182,245.796,52.102z"/>
<path fill="#808090" d="M191.614,124.246c-4.088,0-4.764,2.752-8.771,2.752c-4.012,0-5.751-11.272-12.79-20.587
	c-7.04-9.305-16.956-13.996-16.956-17.936c0-3.939,3.558-11.354,5.226-16.046c1.669-4.69,1.891-24.674,1.891-29.747
	c0-5.069,0.539-2.891,0.539-7.881c0-4.99-1.98-12.927-4.781-12.927c-2.806,0-1.972,9.07-1.972,11.189s-2.865-3.724-3.1-1.352
	c-0.272,2.745,1.927,4.155,2.375,10.663c0.457,6.508-0.64,7.126-1.546,12.725c-0.911,5.6-0.938,9.686-2.299,16.046
	c-1.364,6.356-3.299,8.472-5.271,11.654c-1.968,3.175-1.508,6.356-1.508,6.356c-2.729-4.234-13.665-8.704-17.332-8.704
	c-3.671,0-4.774,4.772-4.774,4.772s-1.018-2.235-3.477,0.227c-2.461,2.46-4.011,9.459-4.011,19.828
	c0,10.37,1.616,13.322,2.798,13.322c1.188,0,2.594-2.602,2.594-2.602c0,2.162,3.791,2.61,3.791,2.61s-0.429,1.216-15.617,4.667
	c-15.413,3.505-16.63-3.974-19.638-6.206c-1.997-1.488-3.331,0-3.331,0s-2.085,3.95-2.085,7.658c0,3.712,0-3.708,0,0
	c0,3.712,0.611,2.881,1.292,4.777c0.678,1.888,0,4.39,0,7.939c0,3.563,6.28,2.499,8.555,2.499c2.271,0,16.494,4.775,28.002,4.775
	c11.501,0,36.024,8.402,42.151,8.402c6.137,0,7.193-2.5,10.302-2.5c3.104,0,2.488,1.439,10.665,1.439
	c8.172,0,15.896-14.077,15.896-18.771C198.436,128.59,195.712,124.246,191.614,124.246z M134.033,132.092
	c-10.595,0-14.941,2.119-26.443,2.119c-11.506,0-18.57-2.015-18.57-7.57c0,0,0.268-0.736,2.199,0.139
	c2.116,0.96,4.186,3.445,16.362,3.445c12.179,0,27.549-7.721,27.549-7.721l6.364,0.002c0,0,11.187-0.205,11.187,6.458
	C152.685,135.623,144.626,132.092,134.033,132.092z"/>
</svg>
