<?xml version="1.0" encoding="utf-8"?>
<!-- Generator: Adobe Illustrator 15.0.2, SVG Export Plug-In . SVG Version: 6.00 Build 0)  -->
<!DOCTYPE svg PUBLIC "-//W3C//DTD SVG 1.1//EN" "http://www.w3.org/Graphics/SVG/1.1/DTD/svg11.dtd">
<svg version="1.1" id="Calque_1" xmlns="http://www.w3.org/2000/svg" xmlns:xlink="http://www.w3.org/1999/xlink" x="0px" y="0px"
	 width="369px" height="384px" viewBox="0 0 369 384" enable-background="new 0 0 369 384" xml:space="preserve">
<g>
	<g>
		<path fill="#542954" d="M215.071,303.78c-0.292,0-0.585-0.1-0.823-0.302l-27.058-22.913l-91.854,17.032
			c-0.078,0.015-0.156,0.021-0.233,0.021c-0.57,0-1.084-0.384-1.232-0.955L66.531,190.85c-0.152-0.587,0.132-1.2,0.678-1.465
			l32.615-15.783L133.11,76.26c0.181-0.528,0.675-0.862,1.205-0.862c0.131,0,0.264,0.021,0.395,0.063l104.679,34.176
			c0.58,0.189,0.944,0.764,0.868,1.37l-4.965,39.383l61.526,74.966c0.424,0.517,0.376,1.273-0.109,1.733l-80.764,76.343
			C215.7,303.664,215.386,303.78,215.071,303.78z"/>
		<path fill="#FFFBFF" d="M134.315,76.672l104.678,34.176l-5.033,39.926l61.874,75.389l-80.764,76.343l-27.519-23.304
			l-92.449,17.143L67.764,190.532l33.093-16.014L134.315,76.672 M134.315,74.125c-1.06,0-2.048,0.667-2.409,1.723l-33.114,96.84
			l-32.137,15.551c-1.092,0.528-1.66,1.754-1.356,2.93l27.339,105.813c0.295,1.142,1.323,1.91,2.463,1.91
			c0.154,0,0.31-0.014,0.467-0.043l91.261-16.922l26.597,22.522c0.476,0.403,1.062,0.604,1.646,0.604c0.631,0,1.26-0.233,1.75-0.696
			l80.764-76.343c0.972-0.919,1.067-2.433,0.219-3.467l-61.179-74.542l4.896-38.839c0.152-1.211-0.576-2.36-1.737-2.739
			L135.106,74.251C134.843,74.166,134.577,74.125,134.315,74.125L134.315,74.125z"/>
	</g>
	<g>
		<path fill="#542954" d="M62.505,184.944c-0.389,0-0.77-0.178-1.018-0.507c-0.374-0.496-0.335-1.189,0.092-1.641l39.955-42.278
			c0.248-0.262,0.584-0.399,0.926-0.399c0.226,0,0.454,0.06,0.659,0.184c0.513,0.311,0.74,0.937,0.545,1.503l-9.018,26.264
			c-0.106,0.31-0.328,0.567-0.619,0.717L63.09,184.801C62.904,184.897,62.703,184.944,62.505,184.944z"/>
		<path fill="#FFFBFF" d="M102.459,141.393l-9.018,26.264L62.505,183.67L102.459,141.393 M102.46,138.846
			c-0.682,0-1.357,0.273-1.852,0.797l-39.955,42.278c-0.853,0.903-0.931,2.29-0.183,3.282c0.495,0.657,1.257,1.014,2.036,1.014
			c0.396,0,0.797-0.092,1.169-0.285l30.937-16.014c0.582-0.301,1.025-0.815,1.238-1.435l9.018-26.264
			c0.39-1.134-0.065-2.386-1.091-3.006C103.368,138.966,102.912,138.846,102.46,138.846L102.46,138.846z"/>
	</g>
</g>
<g>
	<path fill="#FFFBFF" d="M270.436,250.032c0,0-1.993-5.993-8.686-12.681c0,0-1.175-15.729-6.109-22.543
		c-4.93-6.809-10.549-10.059-10.549-10.059s-2.245-23.397-17.392-38.548c-15.149-15.142-28.175-21.138-28.175-21.138
		s5.401-30.758-15.501-30.758c-20.897,0-15.495,30.758-15.495,30.758s-13.025,5.996-28.174,21.138
		c-15.146,15.15-17.392,38.548-17.392,38.548s-5.623,3.246-10.553,10.059c-4.931,6.804-6.106,22.543-6.106,22.543
		c-6.688,6.688-8.688,12.681-8.688,12.681s-4.461,14.791,6.102,14.791c10.568,0,9.391-21.608,9.391-21.608
		c23.248-22.071,20.432-29.819,20.432-29.819c6.337,0,16.556-20.076,21.835-14.791c5.282,5.289-9.384,15.034-13.384,19.019
		c-3.988,3.992,0,21.609,0,34.757c0,13.146,14.322,29.116,14.322,29.116s2.82,6.571-4.227,12.439
		c-7.041,5.875-3.758,10.805-3.758,10.805s26.183,3.758,26.183-7.744c0-11.507-9.509-21.367-9.509-21.367
		c5.165-15.026,0-27.001,0-31.695c0-4.696,19.017-3.291,19.017-3.291s19.018-1.405,19.018,3.291c0,4.694-5.161,16.669,0,31.695
		c0,0-9.51,9.86-9.51,21.367c0,11.502,26.175,7.744,26.175,7.744s3.29-4.93-3.749-10.805c-7.045-5.864-4.227-12.439-4.227-12.439
		s14.319-15.97,14.319-29.116c0-13.153,3.989-30.762,0-34.757c-3.995-3.989-18.667-13.729-13.382-19.019
		c5.281-5.277,15.492,14.791,21.833,14.791c0,0-2.815,7.748,20.432,29.819c0,0-1.172,21.608,9.389,21.608
		C274.901,264.829,270.436,250.032,270.436,250.032z"/>
	<g>
		<rect x="16.843" y="249.563" fill="#FFFBFF" width="335.316" height="8.45"/>
	</g>
	<path fill="#FFFBFF" d="M70.862,217.16H48.314c-8.037,0-14.549,16.403-14.549,36.634c0,20.237,6.516,36.633,14.549,36.633h22.548
		c8.034,0,14.549-16.396,14.549-36.633C85.416,233.563,78.896,217.16,70.862,217.16z"/>
	<path fill="#FFFBFF" d="M319.735,217.16h-22.543c-8.035,0-14.549,16.403-14.549,36.634c0,20.237,6.518,36.633,14.549,36.633h22.543
		c8.036,0,14.552-16.396,14.552-36.633C334.286,233.563,327.767,217.16,319.735,217.16z"/>
</g>
</svg>
