<?xml version="1.0" encoding="utf-8"?>
<!-- Generator: Adobe Illustrator 15.0.2, SVG Export Plug-In . SVG Version: 6.00 Build 0)  -->
<!DOCTYPE svg PUBLIC "-//W3C//DTD SVG 1.1//EN" "http://www.w3.org/Graphics/SVG/1.1/DTD/svg11.dtd">
<svg version="1.1" id="Calque_1" xmlns="http://www.w3.org/2000/svg" xmlns:xlink="http://www.w3.org/1999/xlink" x="0px" y="0px"
	 width="150px" height="220px" viewBox="0 0 150 220" enable-background="new 0 0 150 220" xml:space="preserve">
<g>
	<polygon fill="#EEEBE8" points="44.436,36.201 112.852,58.538 109.561,84.632 150,133.904 97.216,183.799 79.23,168.568 
		18.809,179.771 0.94,110.616 22.57,100.15 	"/>
	<polygon fill="#EEEBE8" points="0,107.796 26.113,80.166 20.219,97.329 	"/>
</g>
<g>
	<path fill="#808090" d="M71.083,75.559c4.792,0,8.692,3.9,8.692,8.692c0,4.793-3.9,8.693-8.692,8.693
		c-4.793,0-8.692-3.898-8.692-8.693C62.39,79.458,66.29,75.559,71.083,75.559 M71.083,69c-8.424,0-15.254,6.827-15.254,15.252
		c0,8.426,6.829,15.253,15.254,15.253s15.252-6.826,15.252-15.253C86.335,75.828,79.508,69,71.083,69L71.083,69z"/>
	<circle fill="none" cx="71.083" cy="84.253" r="15.253"/>
	<path fill="#FFFFFF" d="M50.499,103.768c0,0-4.509-2.214-8.199-2.214c-3.69,0-3.611,0.82-3.611,3.381
		c0,2.561,4.512,2.604,4.512,5.393s-0.738,3.771-3.035,8.609c-2.296,4.838-6.314,16.236-6.314,24.107
		c0,7.872,1.968,7.956,1.968,7.956s10.712,0,12.874,0c2.161,0,2.296-2.789,2.296-2.789v-5.084c0-16.893,8.939-27.798,8.939-32.637
		c0-4.838-3.444-6.232-3.444-6.232l1.869-7.477c-2.372-2.407-4.071-5.48-4.779-8.912C51.334,92.32,50.499,103.768,50.499,103.768z"
		/>
	<path fill="#808090" d="M50.499,103.768c0,0-4.509-2.214-8.199-2.214c-3.69,0-3.611,0.82-3.611,3.381
		c0,2.561,4.512,2.604,4.512,5.393s-0.738,3.771-3.035,8.609c-2.296,4.838-6.314,16.236-6.314,24.107
		c0,7.872,1.968,7.956,1.968,7.956s10.712,0,12.874,0c2.161,0,2.296-2.789,2.296-2.789v-5.084c0-16.893,8.939-27.798,8.939-32.637
		c0-4.838-3.444-6.232-3.444-6.232l1.869-7.477c-2.372-2.407-4.071-5.48-4.779-8.912C51.334,92.32,50.499,103.768,50.499,103.768z"
		/>
	<path fill="#808090" d="M91.501,103.768c0,0,4.509-2.214,8.198-2.214c3.69,0,3.61,0.82,3.61,3.381c0,2.561-4.512,2.604-4.512,5.393
		s0.737,3.771,3.036,8.609c2.295,4.838,6.313,16.236,6.313,24.107c0,7.872-1.969,7.956-1.969,7.956s-10.713,0-12.874,0
		s-2.296-2.789-2.296-2.789v-5.084c0-16.893-8.936-27.798-8.936-32.637c0-4.838,3.44-6.232,3.44-6.232l-1.866-7.477
		c2.371-2.407,4.07-5.48,4.779-8.912C90.666,92.32,91.501,103.768,91.501,103.768z"/>
</g>
</svg>
