<?xml version="1.0" encoding="utf-8"?>
<!-- Generator: Adobe Illustrator 15.0.2, SVG Export Plug-In . SVG Version: 6.00 Build 0)  -->
<!DOCTYPE svg PUBLIC "-//W3C//DTD SVG 1.1//EN" "http://www.w3.org/Graphics/SVG/1.1/DTD/svg11.dtd">
<svg version="1.1" id="Calque_1" xmlns="http://www.w3.org/2000/svg" xmlns:xlink="http://www.w3.org/1999/xlink" x="0px" y="0px"
	 width="280px" height="365px" viewBox="0 0 280 365" enable-background="new 0 0 280 365" xml:space="preserve">
<g>
	<polygon fill="#EEEBE8" points="82.946,44.742 210.656,86.438 204.513,135.146 280,227.122 181.469,320.258 147.896,291.827 
		35.11,312.74 1.755,183.651 42.13,164.114 	"/>
	<polygon fill="#EEEBE8" points="0,178.385 48.743,126.809 37.742,158.848 	"/>
</g>
<g>
	<path fill="#808090" d="M187.853,204.881c0,0-1.112-3.334-4.85-7.051c0,0-0.646-8.759-3.393-12.545
		c-2.749-3.799-5.877-5.605-5.877-5.605s-1.25-13.025-9.689-21.466c-8.438-8.422-15.683-11.766-15.683-11.766
		s3.022-17.125-8.625-17.125c-11.631,0-8.621,17.125-8.621,17.125s-7.255,3.343-15.685,11.766
		c-8.437,8.439-9.684,21.466-9.684,21.466s-3.134,1.803-5.88,5.605c-2.746,3.779-3.389,12.545-3.389,12.545
		c-3.733,3.717-4.836,7.051-4.836,7.051s-2.488,8.236,3.385,8.236c5.89,0,5.233-12.027,5.233-12.027
		c12.942-12.296,11.371-16.604,11.371-16.604c3.534,0,9.217-11.171,12.16-8.235c2.941,2.945-5.229,8.365-7.447,10.585
		c-2.225,2.225,0,12.029,0,19.351c0,7.325,7.966,16.21,7.966,16.21s1.571,3.658-2.352,6.922c-3.919,3.272-2.092,6.021-2.092,6.021
		s14.573,2.103,14.573-4.3c0-6.412-5.295-11.905-5.295-11.905c2.882-8.361,0-15.036,0-17.639c0-2.623,10.589-1.831,10.589-1.831
		s10.573-0.792,10.573,1.831c0,2.603-2.865,9.281,0,17.639c0,0-5.293,5.493-5.293,11.905c0,6.402,14.585,4.3,14.585,4.3
		s1.824-2.748-2.087-6.021c-3.927-3.258-2.353-6.922-2.353-6.922s7.97-8.89,7.97-16.21c0-7.325,2.225-17.122,0-19.351
		c-2.23-2.224-10.395-7.641-7.448-10.585c2.947-2.93,8.634,8.235,12.146,8.235c0,0-1.558,4.305,11.387,16.604
		c0,0-0.654,12.027,5.219,12.027C190.325,213.125,187.853,204.881,187.853,204.881z"/>
	<g>
		<rect x="46.667" y="204.638" fill="#808090" width="186.667" height="4.698"/>
	</g>
	<path fill="#808090" d="M76.736,186.598H64.189c-4.472,0-8.098,9.116-8.098,20.391c0,11.263,3.626,20.392,8.098,20.392h12.547
		c4.473,0,8.098-9.129,8.098-20.392C84.839,195.714,81.209,186.598,76.736,186.598z"/>
	<path fill="#808090" d="M215.282,186.598h-12.545c-4.482,0-8.111,9.116-8.111,20.391c0,11.263,3.627,20.392,8.111,20.392h12.545
		c4.47,0,8.117-9.129,8.117-20.392C223.399,195.714,219.752,186.598,215.282,186.598z"/>
</g>
</svg>
