<?xml version="1.0" encoding="utf-8"?>
<!-- Generator: Adobe Illustrator 15.0.2, SVG Export Plug-In . SVG Version: 6.00 Build 0)  -->
<!DOCTYPE svg PUBLIC "-//W3C//DTD SVG 1.1//EN" "http://www.w3.org/Graphics/SVG/1.1/DTD/svg11.dtd">
<svg version="1.1" id="Calque_1" xmlns="http://www.w3.org/2000/svg" xmlns:xlink="http://www.w3.org/1999/xlink" x="0px" y="0px"
	 width="150px" height="220px" viewBox="0 0 150 220" enable-background="new 0 0 150 220" xml:space="preserve">
<g>
	<polygon fill="#EEEBE8" points="44.436,36.201 112.852,58.538 109.561,84.632 150,133.904 97.216,183.799 79.23,168.568 
		18.809,179.771 0.94,110.616 22.57,100.15 	"/>
	<polygon fill="#EEEBE8" points="0,107.796 26.113,80.166 20.219,97.329 	"/>
</g>
<g>
	<path fill="#808090" d="M100.635,121.99c0,0-0.596-1.786-2.598-3.777c0,0-0.346-4.692-1.817-6.721
		c-1.472-2.034-3.148-3.002-3.148-3.002s-0.669-6.978-5.19-11.5c-4.521-4.512-8.402-6.303-8.402-6.303s1.619-9.174-4.62-9.174
		c-6.231,0-4.619,9.174-4.619,9.174s-3.887,1.791-8.402,6.303c-4.52,4.521-5.188,11.5-5.188,11.5s-1.679,0.966-3.15,3.002
		c-1.47,2.026-1.815,6.721-1.815,6.721c-2,1.991-2.591,3.777-2.591,3.777s-1.333,4.413,1.814,4.413c3.155,0,2.803-6.443,2.803-6.443
		c6.933-6.588,6.091-8.895,6.091-8.895c1.894,0,4.938-5.985,6.515-4.412c1.576,1.578-2.802,4.481-3.99,5.67
		c-1.192,1.193,0,6.445,0,10.367c0,3.924,4.268,8.683,4.268,8.683s0.842,1.96-1.26,3.709c-2.099,1.753-1.12,3.224-1.12,3.224
		s7.807,1.128,7.807-2.303c0-3.435-2.837-6.378-2.837-6.378c1.544-4.478,0-8.055,0-9.448c0-1.405,5.673-0.982,5.673-0.982
		s5.664-0.423,5.664,0.982c0,1.394-1.534,4.971,0,9.448c0,0-2.835,2.943-2.835,6.378c0,3.431,7.813,2.303,7.813,2.303
		s0.977-1.471-1.117-3.224c-2.105-1.746-1.261-3.709-1.261-3.709s4.269-4.761,4.269-8.683c0-3.925,1.192-9.173,0-10.367
		c-1.194-1.191-5.568-4.093-3.989-5.67c1.577-1.57,4.625,4.412,6.506,4.412c0,0-0.835,2.306,6.1,8.895c0,0-0.351,6.443,2.795,6.443
		C101.96,126.406,100.635,121.99,100.635,121.99z"/>
	<g>
		<rect x="25" y="121.859" fill="#808090" width="100" height="2.517"/>
	</g>
	<path fill="#808090" d="M41.109,112.196h-6.722c-2.396,0-4.338,4.883-4.338,10.923c0,6.033,1.942,10.924,4.338,10.924h6.722
		c2.396,0,4.338-4.891,4.338-10.924C45.449,117.079,43.505,112.196,41.109,112.196z"/>
	<path fill="#808090" d="M115.33,112.196h-6.721c-2.402,0-4.345,4.883-4.345,10.923c0,6.033,1.942,10.924,4.345,10.924h6.721
		c2.395,0,4.347-4.891,4.347-10.924C119.677,117.079,117.725,112.196,115.33,112.196z"/>
</g>
</svg>
