<?xml version="1.0" encoding="utf-8"?>
<!-- Generator: Adobe Illustrator 15.0.2, SVG Export Plug-In . SVG Version: 6.00 Build 0)  -->
<!DOCTYPE svg PUBLIC "-//W3C//DTD SVG 1.1//EN" "http://www.w3.org/Graphics/SVG/1.1/DTD/svg11.dtd">
<svg version="1.1" id="Calque_1" xmlns="http://www.w3.org/2000/svg" xmlns:xlink="http://www.w3.org/1999/xlink" x="0px" y="0px"
	 width="280px" height="175px" viewBox="0 0 280 175" enable-background="new 0 0 280 175" xml:space="preserve">
<path fill="#EEEBE8" d="M245.796,52.102c0,0,29.432,54.906,29.432,81.541c0,41.347-21.974,41.357-54.219,41.357
	c-32.242,0-216.236,0-216.236-61.029c0-42.706,46.519-84.537,46.519-84.537s-26.1,16.721-42.221,55.382c0,0-2.157,1.02-2.157-3.275
	c0-4.284,24.02-39.793,43.041-54.595C68.975,12.147,99.034,0,149.635,0C164.902,0,227.5,3.182,245.796,52.102z"/>
<g>
	<g>
		<path fill="#808090" d="M84.521,132.688c0.646,0.646,0.646,1.694,0,2.341l0,0c-0.647,0.647-1.695,0.647-2.342,0.001
			l-20.234-20.235c-0.647-0.647-0.647-1.695,0-2.342l0,0c0.646-0.646,1.695-0.646,2.341,0L84.521,132.688z"/>
		<path fill="#808090" d="M96.2,127.515c0.859,0.859,0.86,2.264,0.001,3.123l-4.131,4.132c-0.859,0.859-2.264,0.858-3.124-0.001
			L62.4,108.223c-0.858-0.858-0.858-2.264,0-3.123l4.132-4.131c0.859-0.859,2.264-0.859,3.123,0L96.2,127.515z"/>
		<path fill="#808090" d="M105.18,118.536c0.86,0.859,0.86,2.265,0,3.123l-4.131,4.132c-0.859,0.858-2.265,0.858-3.125-0.001
			L71.379,99.244c-0.859-0.858-0.859-2.265,0-3.123l4.131-4.131c0.859-0.859,2.264-0.859,3.124,0L105.18,118.536z"/>
		<path fill="#808090" d="M154.629,62.58c0.647,0.646,1.695,0.646,2.342,0l0,0c0.646-0.647,0.646-1.697,0-2.341l-20.236-20.236
			c-0.646-0.646-1.695-0.646-2.34,0l0,0c-0.647,0.647-0.647,1.696-0.001,2.343L154.629,62.58z"/>
		<path fill="#808090" d="M149.456,74.259c0.859,0.859,2.265,0.859,3.124,0l4.131-4.131c0.859-0.859,0.859-2.263-0.001-3.123
			l-26.546-26.547c-0.859-0.859-2.264-0.859-3.123,0l-4.131,4.13c-0.86,0.86-0.859,2.265,0,3.124L149.456,74.259z"/>
		<path fill="#808090" d="M140.477,83.238c0.86,0.86,2.264,0.86,3.125,0l4.13-4.131c0.86-0.859,0.859-2.264,0-3.123l-26.546-26.546
			c-0.859-0.859-2.264-0.86-3.123,0l-4.131,4.13c-0.86,0.86-0.859,2.264,0,3.124L140.477,83.238z"/>
		<path fill="#808090" d="M71.183,125.986c0.827,0.825,0.827,2.166,0,2.992l-8.067,8.068c-0.827,0.826-2.167,0.825-2.993,0l0,0
			c-0.827-0.827-0.828-2.167,0-2.994l8.068-8.067C69.017,125.159,70.357,125.159,71.183,125.986L71.183,125.986z"/>
		<path fill="#808090" d="M159.215,37.954c0.827,0.825,0.828,2.165,0.002,2.992l-8.068,8.067c-0.826,0.827-2.167,0.827-2.993,0l0,0
			c-0.826-0.826-0.826-2.167-0.001-2.993l8.068-8.068C157.05,37.126,158.389,37.128,159.215,37.954L159.215,37.954z"/>
		
			<rect x="88.447" y="85.467" transform="matrix(-0.7071 0.7071 -0.7071 -0.7071 249.0073 72.0233)" fill="#808090" width="42.281" height="4.232"/>
	</g>
	<g>
		<path fill="#808090" d="M145.184,132.688c0.647,0.646,0.647,1.694-0.001,2.341l0,0c-0.646,0.647-1.694,0.647-2.342,0.001
			l-20.234-20.235c-0.647-0.647-0.647-1.695,0-2.342l0,0c0.646-0.646,1.695-0.646,2.342,0L145.184,132.688z"/>
		<path fill="#808090" d="M156.863,127.515c0.858,0.859,0.859,2.264,0.001,3.123l-4.132,4.132c-0.859,0.859-2.265,0.858-3.124-0.001
			l-26.546-26.546c-0.859-0.858-0.859-2.264,0-3.123l4.13-4.131c0.859-0.859,2.265-0.859,3.124,0L156.863,127.515z"/>
		<path fill="#808090" d="M165.842,118.536c0.858,0.859,0.858,2.265,0,3.123l-4.131,4.132c-0.859,0.858-2.265,0.858-3.123-0.001
			l-26.546-26.546c-0.859-0.858-0.859-2.265,0-3.123l4.13-4.131c0.859-0.859,2.265-0.859,3.124,0L165.842,118.536z"/>
		<path fill="#808090" d="M215.29,62.58c0.647,0.646,1.696,0.646,2.343,0l0,0c0.647-0.647,0.647-1.697,0-2.341l-20.235-20.236
			c-0.646-0.646-1.695-0.646-2.341,0l0,0c-0.647,0.647-0.647,1.696-0.001,2.343L215.29,62.58z"/>
		<path fill="#808090" d="M210.118,74.259c0.859,0.859,2.265,0.859,3.125,0l4.13-4.131c0.858-0.859,0.858-2.263-0.001-3.123
			l-26.546-26.547c-0.859-0.859-2.264-0.859-3.123,0l-4.131,4.13c-0.86,0.86-0.859,2.265,0,3.124L210.118,74.259z"/>
		<path fill="#808090" d="M201.139,83.238c0.86,0.86,2.266,0.86,3.125,0l4.13-4.131c0.86-0.859,0.859-2.264,0-3.123l-26.546-26.546
			c-0.859-0.859-2.265-0.86-3.124,0l-4.13,4.13c-0.859,0.86-0.858,2.264,0,3.124L201.139,83.238z"/>
		<path fill="#808090" d="M131.846,125.986c0.827,0.825,0.827,2.166,0,2.992l-8.069,8.068c-0.826,0.826-2.167,0.825-2.993,0l0,0
			c-0.827-0.827-0.828-2.167,0-2.994l8.068-8.067C129.679,125.159,131.02,125.159,131.846,125.986L131.846,125.986z"/>
		<path fill="#808090" d="M219.877,37.954c0.827,0.825,0.827,2.165,0.001,2.992l-8.068,8.067c-0.827,0.827-2.167,0.827-2.993,0l0,0
			c-0.827-0.826-0.827-2.167-0.001-2.993l8.068-8.068C217.711,37.126,219.051,37.128,219.877,37.954L219.877,37.954z"/>
		
			<rect x="149.107" y="85.465" transform="matrix(-0.7071 0.7071 -0.7071 -0.7071 352.5607 29.1267)" fill="#808090" width="42.281" height="4.233"/>
	</g>
</g>
</svg>
