<?xml version="1.0" encoding="utf-8"?>
<!-- Generator: Adobe Illustrator 15.0.2, SVG Export Plug-In . SVG Version: 6.00 Build 0)  -->
<!DOCTYPE svg PUBLIC "-//W3C//DTD SVG 1.1//EN" "http://www.w3.org/Graphics/SVG/1.1/DTD/svg11.dtd">
<svg version="1.1" id="Calque_1" xmlns="http://www.w3.org/2000/svg" xmlns:xlink="http://www.w3.org/1999/xlink" x="0px" y="0px"
	 width="280px" height="175px" viewBox="0 0 280 175" enable-background="new 0 0 280 175" xml:space="preserve">
<path fill="#EEEBE8" d="M245.796,52.102c0,0,29.432,54.906,29.432,81.541c0,41.347-21.974,41.357-54.219,41.357
	c-32.242,0-216.236,0-216.236-61.029c0-42.706,46.519-84.537,46.519-84.537s-26.1,16.721-42.221,55.382c0,0-2.157,1.02-2.157-3.275
	c0-4.284,24.02-39.793,43.041-54.595C68.975,12.147,99.034,0,149.635,0C164.902,0,227.5,3.182,245.796,52.102z"/>
<g>
	<g>
		<line fill="none" x1="121.238" y1="82.849" x2="144.501" y2="122.295"/>
		<path fill="#808090" d="M144.506,128.363c-2.077,0-4.101-1.066-5.232-2.986l-23.263-39.445c-1.702-2.887-0.743-6.607,2.145-8.31
			c2.886-1.703,6.607-0.743,8.309,2.144l23.264,39.444c1.702,2.889,0.742,6.61-2.145,8.313
			C146.614,128.093,145.554,128.363,144.506,128.363z"/>
	</g>
	<g>
		<line fill="none" x1="123.008" y1="77.67" x2="116.379" y2="82.628"/>
		<path fill="#808090" d="M116.382,85.663c-0.924,0-1.835-0.421-2.432-1.217c-1.004-1.342-0.729-3.244,0.612-4.247l6.628-4.958
			c1.342-1.003,3.243-0.73,4.247,0.612c1.004,1.342,0.729,3.244-0.612,4.247l-6.628,4.959
			C117.653,85.466,117.015,85.663,116.382,85.663z"/>
	</g>
	<g>
		<line fill="none" x1="101.819" y1="87.704" x2="125.082" y2="127.149"/>
		<path fill="#808090" d="M125.087,133.219c-2.078,0-4.102-1.067-5.233-2.988L96.591,90.786c-1.703-2.887-0.742-6.608,2.145-8.31
			c2.886-1.703,6.607-0.744,8.31,2.144l23.262,39.444c1.704,2.888,0.744,6.609-2.143,8.311
			C127.196,132.948,126.134,133.219,125.087,133.219z"/>
	</g>
	<g>
		<line fill="none" x1="103.588" y1="82.524" x2="96.961" y2="87.484"/>
		<path fill="#808090" d="M96.963,90.518c-0.924,0-1.835-0.419-2.432-1.216c-1.003-1.342-0.729-3.244,0.612-4.247l6.628-4.959
			c1.342-1.002,3.244-0.729,4.247,0.613c1.004,1.342,0.729,3.243-0.612,4.247l-6.627,4.958
			C98.233,90.32,97.595,90.518,96.963,90.518z"/>
	</g>
	<path fill="#808090" d="M99.105,81.634c-0.966-3.255-1.686-6.591-2.148-9.977c-0.416-3.385-0.592-6.844-0.022-10.302
		c0.298-1.72,0.796-3.455,1.738-5.033c0.916-1.579,2.38-2.951,4.149-3.659c1.748-0.741,3.692-0.823,5.422-0.738
		c1.779,0.085,3.541,0.391,5.252,0.851c3.425,0.94,6.612,2.53,9.555,4.414c2.948,1.89,5.66,4.1,8.185,6.489
		c2.528,2.391,4.847,4.988,6.973,7.747c2.106,2.775,4.098,5.646,5.613,8.962c2.798,6.369,5.081,12.685,7.619,18.966
		c2.519,6.263,5.146,12.478,8.188,18.408c1.532,2.951,3.142,5.853,4.973,8.515c0.915,1.329,1.891,2.59,2.938,3.698
		c1.039,1.1,2.186,2.053,3.283,2.553c0.547,0.25,1.059,0.375,1.521,0.384c-0.002,0,0.129,0.003,0.017,0.003l0.159-0.008l0.316-0.013
		c0.188-0.012,0.249-0.032,0.382-0.04c0.28-0.05,0.562-0.109,0.826-0.201c1.059-0.347,1.999-1.11,2.802-2.205
		c1.612-2.211,2.537-5.345,3.15-8.471c1.223-6.354,1.348-13.079,1.315-19.798l-0.034-5.047c-0.047-1.5-0.248-3.15-0.497-4.756
		c-0.501-3.238-1.252-6.475-2.118-9.667c-1.762-6.382-4.169-12.607-7.358-18.37c-3.198-5.742-7.184-11.066-12.159-15.25
		c-4.954-4.195-10.964-7.067-17.386-8.199c-3.188-0.586-6.525-0.733-9.803-0.58c-3.281,0.162-6.548,0.675-9.535,1.85
		c-2.98,1.152-5.639,3.1-7.293,5.834c-1.679,2.716-2.339,6.036-2.354,9.338c-0.015,3.319,0.562,6.66,1.428,9.912
		c0.858,3.261,1.997,6.466,3.444,9.537c-3.258-5.933-5.753-12.466-6.158-19.421c-0.167-3.45,0.315-7.085,2.053-10.281
		c1.706-3.214,4.691-5.653,7.951-7.109c3.282-1.469,6.8-2.126,10.275-2.44c3.492-0.296,6.984-0.28,10.497,0.22
		c7.013,0.948,13.743,3.988,19.275,8.403c5.572,4.404,9.994,10.043,13.47,16.092c3.488,6.062,6.116,12.546,8.078,19.209
		c0.981,3.336,1.759,6.728,2.325,10.189c0.273,1.745,0.51,3.468,0.58,5.36l0.065,5.135c0.062,6.833,0.016,13.765-1.3,20.772
		c-0.346,1.749-0.794,3.506-1.415,5.253c-0.628,1.744-1.426,3.501-2.646,5.145c-1.194,1.632-2.964,3.172-5.157,3.872
		c-0.541,0.183-1.091,0.3-1.646,0.385c-0.289,0.033-0.649,0.074-0.885,0.083l-0.317,0.012l-0.16,0.005
		c-0.217,0.005-0.193-0.002-0.301-0.002c-1.238-0.03-2.395-0.37-3.385-0.83c-1.989-0.943-3.446-2.275-4.731-3.628
		c-1.275-1.367-2.366-2.808-3.369-4.278c-2-2.946-3.677-5.999-5.207-9.102c-3.051-6.207-5.606-12.558-8.045-18.924
		c-1.213-3.187-2.401-6.376-3.559-9.563c-1.162-3.179-2.297-6.393-3.563-9.427c-1.22-2.907-3.034-5.718-4.955-8.391
		c-1.944-2.672-4.095-5.208-6.399-7.583c-4.616-4.699-10.001-8.853-16.193-10.893c-1.541-0.502-3.126-0.866-4.732-1.029
		c-1.637-0.165-3.177-0.162-4.609,0.351c-1.425,0.484-2.633,1.478-3.495,2.785c-0.875,1.3-1.43,2.855-1.793,4.454
		c-0.716,3.222-0.729,6.627-0.509,9.983C97.9,74.953,98.375,78.32,99.105,81.634z"/>
</g>
</svg>
