<?xml version="1.0" encoding="utf-8"?>
<!-- Generator: Adobe Illustrator 15.0.2, SVG Export Plug-In . SVG Version: 6.00 Build 0)  -->
<!DOCTYPE svg PUBLIC "-//W3C//DTD SVG 1.1//EN" "http://www.w3.org/Graphics/SVG/1.1/DTD/svg11.dtd">
<svg version="1.1" id="Calque_1" xmlns="http://www.w3.org/2000/svg" xmlns:xlink="http://www.w3.org/1999/xlink" x="0px" y="0px"
	 width="139.982px" height="139.982px" viewBox="0 0 139.982 139.982" enable-background="new 0 0 139.982 139.982"
	 xml:space="preserve">
<path fill="#EEEBE8" d="M125.975,56.624c0,0,13.834,28.974,13.834,50.281c0,21.31-17.576,33.086-43.367,33.086
	S0.173,125.34,0.173,91.168c0-34.165,37.21-67.63,37.21-67.63S16.505,36.915,3.611,67.844c0,0-1.727,0.815-1.727-2.62
	c0-3.427,19.214-31.835,34.429-43.675S65.485-0.009,77.698-0.009S115.966,29.691,125.975,56.624z"/>
<g>
	<g>
		<g>
			<path fill="#808090" d="M22.45,125.285c-5.171,0-9.362-4.19-9.362-9.362V53.315c0-5.17,4.191-9.362,9.362-9.362
				s9.361,4.192,9.361,9.362v62.607C31.811,121.094,27.621,125.285,22.45,125.285z"/>
		</g>
	</g>
	<g>
		<g>
			
				<rect x="21.563" y="84.62" transform="matrix(0.9769 0.2137 -0.2137 0.9769 20.594 -10.7241)" fill="#808090" width="76.666" height="10.531"/>
		</g>
	</g>
	<g>
		<g>
			<rect x="22.45" y="103.343" fill="#808090" width="62.608" height="3.511"/>
		</g>
	</g>
	<g>
		<g>
			<line fill="#808090" x1="85.058" y1="122.946" x2="85.058" y2="95.389"/>
			<rect x="79.207" y="95.389" fill="#808090" width="11.703" height="27.557"/>
		</g>
	</g>
	<g>
		<g>
			<circle fill="#808090" cx="44.976" cy="62.677" r="11.41"/>
		</g>
	</g>
	<g>
		<g>
			<path fill="#808090" d="M66.919,22.889c3.872,0,7.021,3.149,7.021,7.021c0,3.872-3.149,7.021-7.021,7.021
				s-7.021-3.149-7.021-7.021C59.897,26.038,63.047,22.889,66.919,22.889 M66.919,14.697c-8.401,0-15.213,6.811-15.213,15.213
				c0,8.402,6.812,15.212,15.213,15.212c8.403,0,15.213-6.811,15.213-15.212C82.132,21.508,75.322,14.697,66.919,14.697
				L66.919,14.697z"/>
		</g>
	</g>
	<g>
		<g>
			<rect x="62.823" y="42.198" fill="#808090" width="8.191" height="26.623"/>
		</g>
	</g>
	<g>
		<g>
			<path fill="#808090" d="M121.621,123.822c-2.612,0-4.88-1.943-5.217-4.604l-4.097-32.258H97.344
				c-2.907,0-5.266-2.357-5.266-5.267c0-2.907,2.358-5.265,5.266-5.265h19.603c2.651,0,4.89,1.973,5.224,4.602l4.682,36.864
				c0.366,2.884-1.676,5.52-4.563,5.885C122.067,123.808,121.844,123.822,121.621,123.822z"/>
		</g>
	</g>
	<g>
		<g>
			<path fill="#808090" d="M93.066,91.643c-1.209,0-2.438-0.222-3.63-0.689L60.588,79.641c-5.115-2.006-7.636-7.777-5.631-12.891
				c2.006-5.114,7.778-7.638,12.893-5.63l28.85,11.313c5.113,2.007,7.635,7.775,5.629,12.892
				C100.79,89.246,97.038,91.643,93.066,91.643z"/>
		</g>
	</g>
</g>
</svg>
