<?xml version="1.0" encoding="utf-8"?>
<!-- Generator: Adobe Illustrator 15.0.2, SVG Export Plug-In . SVG Version: 6.00 Build 0)  -->
<!DOCTYPE svg PUBLIC "-//W3C//DTD SVG 1.1//EN" "http://www.w3.org/Graphics/SVG/1.1/DTD/svg11.dtd">
<svg version="1.1" id="Calque_1" xmlns="http://www.w3.org/2000/svg" xmlns:xlink="http://www.w3.org/1999/xlink" x="0px" y="0px"
	 width="280px" height="175px" viewBox="0 0 280 175" enable-background="new 0 0 280 175" xml:space="preserve">
<g>
	<polygon fill="#EEEBE8" points="103.266,0 231.164,26.484 227.265,57.423 275.21,115.842 212.626,175 144.519,156.942 
		27.09,170.226 5.905,88.231 31.55,75.821 	"/>
	<polygon fill="#EEEBE8" points="4.79,84.887 35.751,52.125 28.763,72.477 	"/>
</g>
<g>
	<path fill="#808090" d="M200.665,111.59c0,0-1.368-4.119-5.968-8.716c0,0-0.81-10.813-4.2-15.495c-3.39-4.68-7.25-6.914-7.25-6.914
		s-1.544-16.083-11.956-26.498c-10.413-10.408-19.367-14.53-19.367-14.53s3.716-21.142-10.655-21.142
		c-14.364,0-10.649,21.142-10.649,21.142s-8.954,4.123-19.368,14.53c-10.41,10.414-11.954,26.498-11.954,26.498
		s-3.865,2.231-7.254,6.914c-3.388,4.677-4.196,15.495-4.196,15.495c-4.598,4.597-5.972,8.716-5.972,8.716
		s-3.067,10.166,4.194,10.166c7.263,0,6.455-14.852,6.455-14.852c15.98-15.172,14.044-20.497,14.044-20.497
		c4.355,0,11.38-13.8,15.009-10.167c3.63,3.635-6.451,10.334-9.2,13.072c-2.741,2.745,0,14.855,0,23.891
		c0,9.037,9.844,20.015,9.844,20.015s1.939,4.517-2.905,8.55c-4.838,4.039-2.583,7.428-2.583,7.428s17.997,2.583,17.997-5.322
		c0-7.911-6.537-14.689-6.537-14.689c3.551-10.327,0-18.558,0-21.785c0-3.229,13.073-2.261,13.073-2.261s13.071-0.968,13.071,2.261
		c0,3.228-3.546,11.458,0,21.785c0,0-6.536,6.778-6.536,14.689c0,7.905,17.994,5.322,17.994,5.322s2.26-3.389-2.578-7.428
		c-4.844-4.03-2.906-8.55-2.906-8.55s9.845-10.978,9.845-20.015c0-9.041,2.741-21.145,0-23.891
		c-2.746-2.742-12.834-9.437-9.2-13.072c3.631-3.628,10.65,10.167,15.009,10.167c0,0-1.938,5.325,14.045,20.497
		c0,0-0.808,14.852,6.451,14.852C203.735,121.762,200.665,111.59,200.665,111.59z"/>
	<g>
		<rect x="26.353" y="111.269" fill="#808090" width="230.487" height="5.807"/>
	</g>
	<path fill="#808090" d="M63.484,88.995h-15.5c-5.523,0-10,11.274-10,25.179c0,13.911,4.479,25.181,10,25.181h15.5
		c5.522,0,10.001-11.27,10.001-25.181C73.488,100.27,69.006,88.995,63.484,88.995z"/>
	<path fill="#808090" d="M234.553,88.995h-15.495c-5.523,0-10.001,11.274-10.001,25.179c0,13.911,4.479,25.181,10.001,25.181h15.495
		c5.523,0,10.003-11.27,10.003-25.181C244.557,100.27,240.074,88.995,234.553,88.995z"/>
</g>
</svg>
