<?xml version="1.0" encoding="utf-8"?>
<!-- Generator: Adobe Illustrator 15.0.2, SVG Export Plug-In . SVG Version: 6.00 Build 0)  -->
<!DOCTYPE svg PUBLIC "-//W3C//DTD SVG 1.1//EN" "http://www.w3.org/Graphics/SVG/1.1/DTD/svg11.dtd">
<svg version="1.1" id="Calque_1" xmlns="http://www.w3.org/2000/svg" xmlns:xlink="http://www.w3.org/1999/xlink" x="0px" y="0px"
	 width="339.957px" height="219.973px" viewBox="0 0 339.957 219.973" enable-background="new 0 0 339.957 219.973"
	 xml:space="preserve">
<g>
	<polygon fill="#EEEBE8" points="123.798,0.487 284.585,33.781 279.682,72.675 339.957,146.116 261.28,220.487 175.659,197.785 
		28.035,214.485 1.402,111.405 33.641,95.804 	"/>
	<polygon fill="#EEEBE8" points="0,107.201 38.923,66.016 30.137,91.601 	"/>
</g>
<g>
	<path fill="#808090" d="M246.243,140.771c0,0-1.72-5.179-7.503-10.957c0,0-1.017-13.593-5.28-19.48
		c-4.261-5.884-9.115-8.691-9.115-8.691s-1.94-20.219-15.029-33.312c-13.091-13.084-24.347-18.266-24.347-18.266
		s4.67-26.579-13.396-26.579c-18.058,0-13.388,26.579-13.388,26.579s-11.256,5.182-24.348,18.266
		c-13.087,13.092-15.028,33.312-15.028,33.312s-4.858,2.805-9.119,8.691c-4.26,5.879-5.275,19.48-5.275,19.48
		c-5.78,5.778-7.508,10.957-7.508,10.957s-3.855,12.78,5.272,12.78c9.131,0,8.116-18.671,8.116-18.671
		c20.089-19.073,17.655-25.767,17.655-25.767c5.476,0,14.307-17.349,18.868-12.782c4.564,4.571-8.109,12.992-11.565,16.434
		c-3.446,3.451,0,18.676,0,30.034c0,11.361,12.376,25.161,12.376,25.161s2.437,5.678-3.653,10.749
		c-6.083,5.077-3.248,9.337-3.248,9.337s22.625,3.248,22.625-6.69c0-9.946-8.217-18.467-8.217-18.467
		c4.463-12.983,0-23.329,0-27.388c0-4.058,16.434-2.842,16.434-2.842s16.434-1.216,16.434,2.842c0,4.059-4.458,14.404,0,27.388
		c0,0-8.218,8.521-8.218,18.467c0,9.938,22.621,6.69,22.621,6.69s2.841-4.26-3.241-9.337c-6.089-5.067-3.654-10.749-3.654-10.749
		s12.377-13.8,12.377-25.161c0-11.365,3.446-26.582,0-30.034c-3.453-3.447-16.134-11.863-11.566-16.434
		c4.564-4.561,13.389,12.782,18.868,12.782c0,0-2.435,6.694,17.656,25.767c0,0-1.014,18.671,8.111,18.671
		C250.103,153.559,246.243,140.771,246.243,140.771z"/>
	<g>
		<rect x="27.107" y="140.366" fill="#808090" width="289.756" height="7.301"/>
	</g>
	<path fill="#808090" d="M73.787,112.366H54.302c-6.944,0-12.572,14.174-12.572,31.654c0,17.487,5.63,31.655,12.572,31.655h19.485
		c6.941,0,12.572-14.168,12.572-31.655C86.363,126.54,80.729,112.366,73.787,112.366z"/>
	<path fill="#808090" d="M288.844,112.366h-19.479c-6.944,0-12.573,14.174-12.573,31.654c0,17.487,5.631,31.655,12.573,31.655
		h19.479c6.944,0,12.575-14.168,12.575-31.655C301.42,126.54,295.786,112.366,288.844,112.366z"/>
</g>
</svg>
