<?xml version="1.0" encoding="utf-8"?>
<!-- Generator: Adobe Illustrator 15.0.2, SVG Export Plug-In . SVG Version: 6.00 Build 0)  -->
<!DOCTYPE svg PUBLIC "-//W3C//DTD SVG 1.1//EN" "http://www.w3.org/Graphics/SVG/1.1/DTD/svg11.dtd">
<svg version="1.1" id="Calque_1" xmlns="http://www.w3.org/2000/svg" xmlns:xlink="http://www.w3.org/1999/xlink" x="0px" y="0px"
	 width="280px" height="175px" viewBox="0 0 280 175" enable-background="new 0 0 280 175" xml:space="preserve">
<path fill="#EEEBE8" d="M245.796,52.102c0,0,29.432,54.906,29.432,81.541c0,41.347-21.974,41.357-54.219,41.357
	c-32.242,0-216.236,0-216.236-61.029c0-42.706,46.519-84.537,46.519-84.537s-26.1,16.721-42.221,55.382c0,0-2.157,1.02-2.157-3.275
	c0-4.284,24.02-39.793,43.041-54.595C68.975,12.147,99.034,0,149.635,0C164.902,0,227.5,3.182,245.796,52.102z"/>
<g>
	<path fill="#808090" d="M140.103,44.665c5.981,0,10.849,4.867,10.849,10.848c0,5.982-4.867,10.849-10.849,10.849
		c-5.982,0-10.848-4.866-10.848-10.849C129.254,49.53,134.121,44.665,140.103,44.665 M140.103,36.478
		c-10.513,0-19.037,8.521-19.037,19.036c0,10.515,8.523,19.037,19.037,19.037c10.514,0,19.036-8.521,19.036-19.037
		C159.139,44.999,150.616,36.478,140.103,36.478L140.103,36.478z"/>
	<circle fill="none" cx="140.103" cy="55.514" r="19.036"/>
	<path fill="#FFFFFF" d="M114.414,79.87c0,0-5.629-2.763-10.233-2.763c-4.606,0-4.506,1.024-4.506,4.22
		c0,3.197,5.631,3.251,5.631,6.73c0,3.48-0.921,4.709-3.787,10.747c-2.866,6.039-7.88,20.265-7.88,30.089
		c0,9.825,2.456,9.927,2.456,9.927s13.37,0,16.068,0c2.697,0,2.866-3.479,2.866-3.479v-6.347c0-21.082,11.155-34.693,11.155-40.731
		c0-6.039-4.298-7.778-4.298-7.778l2.333-9.331c-2.96-3.005-5.082-6.841-5.965-11.123C115.456,65.582,114.414,79.87,114.414,79.87z"
		/>
	<path fill="#808090" d="M114.414,79.87c0,0-5.629-2.763-10.233-2.763c-4.606,0-4.506,1.024-4.506,4.22
		c0,3.197,5.631,3.251,5.631,6.73c0,3.48-0.921,4.709-3.787,10.747c-2.866,6.039-7.88,20.265-7.88,30.089
		c0,9.825,2.456,9.927,2.456,9.927s13.37,0,16.068,0c2.697,0,2.866-3.479,2.866-3.479v-6.347c0-21.082,11.155-34.693,11.155-40.731
		c0-6.039-4.298-7.778-4.298-7.778l2.333-9.331c-2.96-3.005-5.082-6.841-5.965-11.123C115.456,65.582,114.414,79.87,114.414,79.87z"
		/>
	<path fill="#808090" d="M165.586,79.87c0,0,5.629-2.763,10.233-2.763c4.605,0,4.505,1.024,4.505,4.22
		c0,3.197-5.631,3.251-5.631,6.73c0,3.48,0.921,4.709,3.787,10.747c2.866,6.039,7.881,20.265,7.881,30.089
		c0,9.825-2.457,9.927-2.457,9.927s-13.37,0-16.067,0c-2.698,0-2.866-3.479-2.866-3.479v-6.347
		c0-21.082-11.154-34.693-11.154-40.731c0-6.039,4.297-7.778,4.297-7.778l-2.332-9.331c2.96-3.005,5.082-6.841,5.966-11.123
		C164.545,65.582,165.586,79.87,165.586,79.87z"/>
</g>
</svg>
