<?xml version="1.0" encoding="utf-8"?>
<!-- Generator: Adobe Illustrator 15.0.2, SVG Export Plug-In . SVG Version: 6.00 Build 0)  -->
<!DOCTYPE svg PUBLIC "-//W3C//DTD SVG 1.1//EN" "http://www.w3.org/Graphics/SVG/1.1/DTD/svg11.dtd">
<svg version="1.1" id="Calque_1" xmlns="http://www.w3.org/2000/svg" xmlns:xlink="http://www.w3.org/1999/xlink" x="0px" y="0px"
	 width="150px" height="220px" viewBox="0 0 150 220" enable-background="new 0 0 150 220" xml:space="preserve">
<path fill="#EEEBE8" d="M135.14,95.641c0,0,14.86,31.125,14.86,54.013c0,22.892-18.881,35.542-46.586,35.542S0,169.456,0,132.748
	c0-36.7,39.972-72.649,39.972-72.649s-22.428,14.37-36.278,47.594c0,0-1.856,0.876-1.856-2.813c0-3.682,20.641-34.198,36.985-46.917
	C55.167,45.244,70.16,34.805,83.279,34.805C96.398,34.805,124.387,66.709,135.14,95.641z"/>
<path fill="#808090" d="M119.166,141.446c-3.498,0-4.076,2.354-7.505,2.354c-3.434,0-4.922-9.645-10.945-17.616
	c-6.022-7.963-14.508-11.977-14.508-15.349c0-3.369,3.043-9.715,4.472-13.729c1.428-4.013,1.617-21.114,1.617-25.455
	c0-4.337,0.462-2.474,0.462-6.743c0-4.271-1.694-11.062-4.091-11.062c-2.401,0-1.688,7.761-1.688,9.574s-2.451-3.187-2.652-1.157
	c-0.232,2.349,1.649,3.556,2.032,9.124c0.392,5.569-0.548,6.099-1.323,10.89c-0.778,4.792-0.802,8.288-1.967,13.73
	c-1.167,5.438-2.823,7.249-4.511,9.972c-1.684,2.718-1.291,5.439-1.291,5.439c-2.335-3.623-11.692-7.448-14.83-7.448
	c-3.142,0-4.086,4.084-4.086,4.084s-0.871-1.913-2.975,0.194c-2.106,2.104-3.433,8.094-3.433,16.966
	c0,8.874,1.383,11.399,2.395,11.399c1.017,0,2.22-2.226,2.22-2.226c0,1.85,3.244,2.232,3.244,2.232s-0.367,1.041-13.363,3.994
	c-13.189,2.999-14.23-3.4-16.805-5.311c-1.709-1.273-2.851,0-2.851,0S25,138.686,25,141.857c0,3.177,0-3.172,0,0
	c0,3.177,0.523,2.465,1.105,4.088c0.58,1.616,0,3.757,0,6.794c0,3.049,5.374,2.138,7.32,2.138c1.943,0,14.114,4.086,23.962,4.086
	c9.842,0,30.825,7.19,36.068,7.19c5.252,0,6.155-2.14,8.816-2.14c2.655,0,2.129,1.231,9.126,1.231
	c6.992,0,13.602-12.046,13.602-16.063C125.004,145.163,122.673,141.446,119.166,141.446z M69.894,148.16
	c-9.066,0-12.785,1.813-22.627,1.813c-9.846,0-15.891-1.726-15.891-6.479c0,0,0.229-0.629,1.882,0.119
	c1.811,0.822,3.582,2.948,14.001,2.948c10.421,0,23.573-6.607,23.573-6.607l5.446,0.002c0,0,9.573-0.176,9.573,5.526
	C85.855,151.182,78.959,148.16,69.894,148.16z"/>
</svg>
