<?xml version="1.0" encoding="utf-8"?>
<!-- Generator: Adobe Illustrator 15.0.2, SVG Export Plug-In . SVG Version: 6.00 Build 0)  -->
<!DOCTYPE svg PUBLIC "-//W3C//DTD SVG 1.1//EN" "http://www.w3.org/Graphics/SVG/1.1/DTD/svg11.dtd">
<svg version="1.1" id="Calque_1" xmlns="http://www.w3.org/2000/svg" xmlns:xlink="http://www.w3.org/1999/xlink" x="0px" y="0px"
	 width="150px" height="220px" viewBox="0 0 150 220" enable-background="new 0 0 150 220" xml:space="preserve">
<path fill="#EEEBE8" d="M135.14,95.641c0,0,14.86,31.125,14.86,54.013c0,22.892-18.881,35.542-46.586,35.542S0,169.456,0,132.748
	c0-36.7,39.972-72.649,39.972-72.649s-22.428,14.37-36.278,47.594c0,0-1.856,0.876-1.856-2.813c0-3.682,20.641-34.198,36.985-46.917
	C55.167,45.244,70.16,34.805,83.279,34.805C96.398,34.805,124.387,66.709,135.14,95.641z"/>
<g>
	<g>
		<line fill="none" x1="56.641" y1="105.449" x2="79.404" y2="144.047"/>
		<path fill="#808090" d="M79.409,149.984c-2.031,0-4.013-1.044-5.12-2.922l-22.763-38.597c-1.666-2.825-0.727-6.465,2.099-8.131
			c2.824-1.667,6.465-0.728,8.131,2.098l22.764,38.596c1.666,2.828,0.727,6.469-2.099,8.136
			C81.471,149.72,80.436,149.984,79.409,149.984z"/>
	</g>
	<g>
		<line fill="none" x1="58.373" y1="100.381" x2="51.886" y2="105.232"/>
		<path fill="#808090" d="M51.889,108.202c-0.904,0-1.795-0.412-2.379-1.191c-0.983-1.313-0.713-3.174,0.599-4.155l6.486-4.852
			c1.313-0.981,3.173-0.714,4.156,0.599c0.982,1.313,0.713,3.174-0.599,4.156l-6.486,4.852
			C53.133,108.009,52.509,108.202,51.889,108.202z"/>
	</g>
	<g>
		<line fill="none" x1="37.639" y1="110.199" x2="60.402" y2="148.796"/>
		<path fill="#808090" d="M60.407,154.735c-2.033,0-4.014-1.043-5.121-2.924l-22.763-38.597c-1.666-2.825-0.726-6.466,2.099-8.131
			c2.824-1.667,6.465-0.728,8.131,2.098l22.762,38.597c1.667,2.825,0.729,6.466-2.097,8.132
			C62.471,154.471,61.432,154.735,60.407,154.735z"/>
	</g>
	<g>
		<line fill="none" x1="39.37" y1="105.13" x2="32.886" y2="109.984"/>
		<path fill="#808090" d="M32.888,112.952c-0.904,0-1.796-0.409-2.38-1.19c-0.981-1.312-0.713-3.173,0.599-4.154l6.485-4.853
			c1.313-0.981,3.174-0.713,4.156,0.6c0.982,1.313,0.713,3.173-0.599,4.156l-6.484,4.851
			C34.13,112.759,33.506,112.952,32.888,112.952z"/>
	</g>
	<path fill="#808090" d="M34.983,104.259c-0.945-3.185-1.649-6.449-2.102-9.762c-0.407-3.313-0.579-6.697-0.021-10.081
		c0.292-1.683,0.779-3.381,1.7-4.924c0.896-1.545,2.33-2.888,4.06-3.581c1.71-0.726,3.613-0.806,5.306-0.723
		c1.741,0.083,3.465,0.383,5.139,0.833c3.351,0.919,6.47,2.476,9.35,4.319c2.885,1.849,5.539,4.012,8.009,6.35
		c2.474,2.339,4.743,4.881,6.823,7.58c2.061,2.716,4.009,5.525,5.493,8.77c2.737,6.232,4.971,12.412,7.455,18.557
		c2.465,6.129,5.035,12.211,8.012,18.013c1.499,2.888,3.075,5.729,4.866,8.333c0.896,1.3,1.851,2.534,2.875,3.618
		c1.017,1.076,2.14,2.008,3.213,2.497c0.535,0.245,1.036,0.367,1.487,0.377c-0.002,0,0.127,0.003,0.018,0.003l0.155-0.008
		l0.31-0.013c0.184-0.012,0.243-0.032,0.374-0.04c0.273-0.048,0.549-0.105,0.808-0.196c1.037-0.339,1.956-1.086,2.741-2.157
		c1.578-2.164,2.483-5.229,3.083-8.289c1.196-6.218,1.318-12.798,1.286-19.372l-0.032-4.939c-0.046-1.468-0.243-3.082-0.487-4.653
		c-0.489-3.168-1.226-6.336-2.072-9.459c-1.724-6.245-4.079-12.336-7.199-17.976c-3.13-5.618-7.03-10.828-11.898-14.922
		c-4.847-4.104-10.728-6.915-17.012-8.022c-3.12-0.573-6.385-0.717-9.593-0.568c-3.211,0.159-6.407,0.661-9.331,1.811
		c-2.916,1.127-5.517,3.033-7.136,5.708c-1.643,2.658-2.289,5.907-2.303,9.137c-0.014,3.248,0.55,6.517,1.397,9.699
		c0.839,3.191,1.954,6.327,3.37,9.333c-3.188-5.806-5.629-12.199-6.026-19.004c-0.164-3.375,0.309-6.933,2.009-10.06
		c1.669-3.145,4.59-5.532,7.78-6.956c3.211-1.438,6.654-2.081,10.054-2.387c3.417-0.29,6.834-0.274,10.271,0.215
		c6.863,0.928,13.448,3.903,18.861,8.222c5.453,4.31,9.779,9.828,13.181,15.747c3.413,5.932,5.984,12.276,7.904,18.796
		c0.961,3.264,1.721,6.583,2.275,9.969c0.268,1.708,0.499,3.395,0.567,5.245l0.063,5.025c0.061,6.686,0.016,13.468-1.272,20.325
		c-0.338,1.712-0.776,3.431-1.385,5.14c-0.614,1.707-1.395,3.426-2.589,5.035c-1.168,1.596-2.899,3.104-5.046,3.788
		c-0.529,0.18-1.067,0.294-1.611,0.377c-0.282,0.032-0.634,0.072-0.865,0.082l-0.31,0.012l-0.157,0.004
		c-0.212,0.005-0.188-0.002-0.294-0.002c-1.212-0.029-2.344-0.361-3.313-0.812c-1.947-0.923-3.373-2.226-4.63-3.55
		c-1.247-1.338-2.314-2.749-3.296-4.187c-1.957-2.884-3.599-5.87-5.096-8.906c-2.986-6.074-5.485-12.288-7.872-18.519
		c-1.187-3.118-2.35-6.238-3.483-9.356c-1.137-3.11-2.247-6.256-3.485-9.224c-1.194-2.845-2.969-5.595-4.849-8.211
		c-1.902-2.614-4.007-5.096-6.262-7.42c-4.517-4.598-9.786-8.663-15.845-10.659c-1.508-0.491-3.059-0.847-4.631-1.007
		c-1.602-0.161-3.108-0.159-4.51,0.344c-1.395,0.474-2.576,1.446-3.42,2.725c-0.856,1.272-1.399,2.794-1.755,4.358
		c-0.7,3.153-0.713,6.485-0.498,9.769C33.804,97.722,34.269,101.017,34.983,104.259z"/>
</g>
</svg>
