<?xml version="1.0" encoding="utf-8"?>
<!-- Generator: Adobe Illustrator 15.0.2, SVG Export Plug-In . SVG Version: 6.00 Build 0)  -->
<!DOCTYPE svg PUBLIC "-//W3C//DTD SVG 1.1//EN" "http://www.w3.org/Graphics/SVG/1.1/DTD/svg11.dtd">
<svg version="1.1" id="Calque_1" xmlns="http://www.w3.org/2000/svg" xmlns:xlink="http://www.w3.org/1999/xlink" x="0px" y="0px"
	 width="150px" height="220px" viewBox="0 0 150 220" enable-background="new 0 0 150 220" xml:space="preserve">
<path fill="#EEEBE8" d="M135.141,95.641c0,0,14.859,31.125,14.859,54.013c0,22.892-18.881,35.541-46.586,35.541S0,169.456,0,132.748
	c0-36.7,39.972-72.649,39.972-72.649s-22.428,14.37-36.278,47.594c0,0-1.856,0.876-1.856-2.813c0-3.682,20.641-34.198,36.985-46.917
	C55.167,45.244,70.16,34.805,83.279,34.805S124.387,66.709,135.141,95.641z"/>
<g>
	<path fill="#808090" d="M91.344,85.559c-2.136-7.004-8.643-12.103-16.343-12.103c-7.704,0-14.208,5.099-16.342,12.103H40
		l3.797,60.979h62.409l3.794-60.979H91.344z M75.001,78.204c5.035,0,9.367,3.027,11.282,7.358c0.675,1.522,1.055,3.207,1.055,4.981
		c0,6.815-5.525,12.34-12.338,12.34c-6.816,0-12.338-5.525-12.338-12.341c0-1.775,0.381-3.46,1.055-4.982
		C65.634,81.23,69.961,78.204,75.001,78.204z"/>
	<path fill="#808090" d="M68.053,86.043l3.409,3.551c-0.081,0.304-0.137,0.619-0.137,0.946c0,2.034,1.644,3.681,3.676,3.681
		c2.029,0,3.677-1.647,3.677-3.681c0-2.029-1.647-3.676-3.677-3.676c-0.278,0-0.545,0.038-0.805,0.094l-1.343-1.399l-2.058-2.145
		c-0.727-0.758-1.93-0.779-2.683-0.058c-0.615,0.588-0.72,1.478-0.365,2.202C67.833,85.729,67.915,85.899,68.053,86.043z"/>
</g>
</svg>
