<?xml version="1.0" encoding="utf-8"?>
<!-- Generator: Adobe Illustrator 15.0.2, SVG Export Plug-In . SVG Version: 6.00 Build 0)  -->
<!DOCTYPE svg PUBLIC "-//W3C//DTD SVG 1.1//EN" "http://www.w3.org/Graphics/SVG/1.1/DTD/svg11.dtd">
<svg version="1.1" id="Calque_1" xmlns="http://www.w3.org/2000/svg" xmlns:xlink="http://www.w3.org/1999/xlink" x="0px" y="0px"
	 width="139.982px" height="139.982px" viewBox="0 0 139.982 139.982" enable-background="new 0 0 139.982 139.982"
	 xml:space="preserve">
<g>
	<polygon fill="#EEEBE8" points="41.465,1.112 105.318,21.96 102.248,46.314 139.991,92.302 90.725,138.87 73.939,124.655 
		17.546,135.112 0.869,70.566 21.056,60.798 	"/>
	<polygon fill="#EEEBE8" points="-0.009,67.934 24.363,42.145 18.862,58.165 	"/>
</g>
<g>
	<g>
		<circle fill="#808090" cx="62.331" cy="26.059" r="7.481"/>
	</g>
	<g>
		<path fill="#808090" d="M25.413,57.108c-0.516,0-1.042-0.098-1.549-0.305c-2.101-0.857-3.108-3.254-2.252-5.354l6.063-14.866
			c0.63-1.544,2.134-2.555,3.803-2.555H54.85c0.721,0,1.429,0.19,2.053,0.55l18.424,10.637l9.495-7.724
			c1.761-1.43,4.346-1.166,5.778,0.596c1.432,1.76,1.165,4.346-0.595,5.778l-11.691,9.507c-1.322,1.076-3.17,1.222-4.645,0.372
			L53.749,42.242h-19.51L29.218,54.55C28.569,56.143,27.033,57.108,25.413,57.108z"/>
	</g>
	<g>
		<path fill="#808090" d="M63.647,102.775c-2.16,0-3.97-1.687-4.096-3.871l-1.203-20.853l-10.033-6.772L43.06,83.21
			c-0.576,1.308-1.791,2.223-3.207,2.415l-23.078,3.128c-2.245,0.305-4.317-1.27-4.622-3.518c-0.305-2.248,1.271-4.316,3.519-4.621
			l20.799-2.821l6.309-14.324c0.491-1.113,1.45-1.952,2.62-2.291c1.168-0.335,2.429-0.138,3.437,0.543l15.792,10.659
			c1.063,0.716,1.729,1.887,1.803,3.167l1.32,22.883c0.13,2.265-1.599,4.207-3.864,4.338
			C63.807,102.773,63.726,102.775,63.647,102.775z"/>
	</g>
	<g>
		<path fill="#808090" d="M46.78,70.653c-0.94,0-1.896-0.176-2.823-0.545c-3.913-1.561-5.82-5.997-4.26-9.91l7.776-19.502
			c1.561-3.912,5.997-5.818,9.911-4.261c3.913,1.561,5.82,5.998,4.26,9.911l-7.777,19.503C52.677,68.834,49.81,70.653,46.78,70.653z
			"/>
	</g>
	<g>
		<path fill="#808090" d="M123.645,120.23c-1.675,0-3.25-1.033-3.858-2.698l-17.644-48.3H80.08c-2.269,0-4.106-1.838-4.106-4.107
			s1.838-4.107,4.106-4.107h27.809l19.614,53.696c0.778,2.131-0.317,4.489-2.448,5.268C124.59,120.15,124.113,120.23,123.645,120.23
			z"/>
	</g>
	<g>
		<rect x="103.844" y="56.129" fill="#808090" width="1.173" height="6.894"/>
	</g>
	<g>
		<path fill="#808090" d="M100.761,60.09c-0.734,0-1.47-0.275-2.04-0.827c-1.164-1.126-1.193-2.984-0.066-4.148l8.948-9.241
			c1.125-1.163,2.981-1.194,4.148-0.066c1.163,1.127,1.192,2.984,0.066,4.148l-8.948,9.241
			C102.295,59.791,101.529,60.09,100.761,60.09z"/>
	</g>
	<g>
		<path fill="#808090" d="M119.539,104.88l-103.316,9.337c0,0-2.885,0.733-2.885,3.961c0,3.227,2.885,3.227,2.885,3.227h110.503
			c0,0,3.227-0.146-1.174-12.175S119.539,104.88,119.539,104.88z"/>
	</g>
</g>
</svg>
