<?xml version="1.0" encoding="utf-8"?>
<!-- Generator: Adobe Illustrator 15.0.2, SVG Export Plug-In . SVG Version: 6.00 Build 0)  -->
<!DOCTYPE svg PUBLIC "-//W3C//DTD SVG 1.1//EN" "http://www.w3.org/Graphics/SVG/1.1/DTD/svg11.dtd">
<svg version="1.1" id="Calque_1" xmlns="http://www.w3.org/2000/svg" xmlns:xlink="http://www.w3.org/1999/xlink" x="0px" y="0px"
	 width="150px" height="220px" viewBox="0 0 150 220" enable-background="new 0 0 150 220" xml:space="preserve">
<g>
	<polygon fill="#EEEBE8" points="44.436,36.201 112.852,58.538 109.561,84.632 150,133.904 97.216,183.799 79.23,168.568 
		18.809,179.771 0.94,110.616 22.57,100.15 	"/>
	<polygon fill="#EEEBE8" points="0,107.796 26.113,80.166 20.219,97.329 	"/>
</g>
<g>
	<path fill="#808090" d="M54.72,142.458c0.393,0.394,0.393,1.028,0,1.424l0,0c-0.394,0.392-1.031,0.392-1.424,0L41,131.585
		c-0.393-0.393-0.393-1.031,0-1.423l0,0c0.393-0.394,1.03-0.394,1.422,0L54.72,142.458z"/>
	<path fill="#808090" d="M61.816,139.314c0.522,0.522,0.522,1.377,0,1.898l-2.51,2.51c-0.522,0.523-1.376,0.522-1.899,0
		l-16.13-16.131c-0.523-0.521-0.523-1.377,0-1.898l2.509-2.51c0.522-0.521,1.376-0.521,1.898,0L61.816,139.314z"/>
	<path fill="#808090" d="M67.272,133.859c0.522,0.521,0.523,1.376,0,1.897l-2.51,2.51c-0.522,0.521-1.376,0.521-1.898,0
		l-16.131-16.131c-0.521-0.521-0.521-1.376,0-1.897l2.51-2.51c0.522-0.521,1.375-0.521,1.898,0L67.272,133.859z"/>
	<path fill="#808090" d="M97.32,99.858c0.393,0.393,1.029,0.393,1.423,0l0,0c0.393-0.393,0.393-1.03,0-1.423L86.447,86.139
		c-0.395-0.393-1.03-0.393-1.424,0l0,0c-0.393,0.393-0.393,1.03,0,1.422L97.32,99.858z"/>
	<path fill="#808090" d="M94.177,106.954c0.521,0.523,1.377,0.523,1.898,0l2.509-2.509c0.522-0.523,0.522-1.376,0-1.898
		L82.453,86.416c-0.521-0.522-1.376-0.522-1.897,0l-2.51,2.511c-0.522,0.523-0.522,1.375,0,1.898L94.177,106.954z"/>
	<path fill="#808090" d="M88.721,112.41c0.522,0.522,1.375,0.523,1.896,0l2.51-2.51c0.523-0.522,0.523-1.376,0-1.898l-16.129-16.13
		c-0.523-0.521-1.376-0.522-1.897,0l-2.51,2.51c-0.524,0.522-0.522,1.375,0,1.898L88.721,112.41z"/>
	<path fill="#808090" d="M46.615,138.386c0.502,0.501,0.502,1.315,0,1.818l-4.902,4.903c-0.502,0.502-1.316,0.501-1.818,0l0,0
		c-0.504-0.502-0.504-1.316,0-1.819l4.902-4.903C45.298,137.883,46.112,137.883,46.615,138.386L46.615,138.386z"/>
	<path fill="#808090" d="M100.107,84.893c0.501,0.502,0.502,1.315,0,1.819l-4.902,4.902c-0.502,0.502-1.314,0.502-1.819,0l0,0
		c-0.503-0.502-0.503-1.316-0.001-1.818l4.904-4.902C98.791,84.39,99.604,84.391,100.107,84.893L100.107,84.893z"/>
	
		<rect x="57.103" y="113.765" transform="matrix(-0.7071 0.7071 -0.7071 -0.7071 200.7646 146.9426)" fill="#808090" width="25.693" height="2.572"/>
</g>
</svg>
