<?xml version="1.0" encoding="utf-8"?>
<!-- Generator: Adobe Illustrator 15.0.2, SVG Export Plug-In . SVG Version: 6.00 Build 0)  -->
<!DOCTYPE svg PUBLIC "-//W3C//DTD SVG 1.1//EN" "http://www.w3.org/Graphics/SVG/1.1/DTD/svg11.dtd">
<svg version="1.1" id="Calque_1" xmlns="http://www.w3.org/2000/svg" xmlns:xlink="http://www.w3.org/1999/xlink" x="0px" y="0px"
	 width="139.982px" height="139.982px" viewBox="0 0 139.982 139.982" enable-background="new 0 0 139.982 139.982"
	 xml:space="preserve">
<path fill="#EEEBE8" d="M125.975,56.624c0,0,13.834,28.974,13.834,50.281c0,21.31-17.576,33.086-43.367,33.086
	S0.173,125.34,0.173,91.168c0-34.165,37.21-67.63,37.21-67.63S16.505,36.915,3.611,67.844c0,0-1.727,0.815-1.727-2.62
	c0-3.427,19.214-31.835,34.429-43.675S65.485-0.009,77.698-0.009S115.966,29.691,125.975,56.624z"/>
<g>
	<g>
		<circle fill="#808090" cx="68.314" cy="28.19" r="9.612"/>
	</g>
	<g>
		<path fill="#808090" d="M104.08,46.743H30.313c-2.469,0-4.471-2.001-4.471-4.471s2.002-4.471,4.471-4.471h73.767
			c2.47,0,4.471,2.001,4.471,4.471S106.55,46.743,104.08,46.743z"/>
	</g>
	<g>
		<line fill="#808090" x1="62.503" y1="116.486" x2="62.503" y2="45.402"/>
		<path fill="#808090" d="M62.503,121.404c-2.716,0-4.918-2.202-4.918-4.918V45.402c0-2.716,2.202-4.918,4.918-4.918
			c2.716,0,4.917,2.202,4.917,4.918v71.084C67.42,119.202,65.219,121.404,62.503,121.404z"/>
	</g>
	<g>
		<line fill="#808090" x1="109.221" y1="40.484" x2="70.326" y2="78.709"/>
		<path fill="#808090" d="M70.327,83.627c-1.273,0-2.545-0.491-3.508-1.471c-1.903-1.938-1.876-5.051,0.061-6.955l38.896-38.224
			c1.938-1.904,5.051-1.876,6.954,0.06c1.903,1.938,1.876,5.051-0.061,6.955L73.773,82.217
			C72.816,83.158,71.571,83.627,70.327,83.627z"/>
	</g>
	<g>
		<rect x="58.702" y="42.273" fill="#808090" width="21.459" height="31.742"/>
	</g>
</g>
</svg>
