<?xml version="1.0" encoding="utf-8"?>
<!-- Generator: Adobe Illustrator 15.0.2, SVG Export Plug-In . SVG Version: 6.00 Build 0)  -->
<!DOCTYPE svg PUBLIC "-//W3C//DTD SVG 1.1//EN" "http://www.w3.org/Graphics/SVG/1.1/DTD/svg11.dtd">
<svg version="1.1" id="Calque_1" xmlns="http://www.w3.org/2000/svg" xmlns:xlink="http://www.w3.org/1999/xlink" x="0px" y="0px"
	 width="280px" height="175px" viewBox="0 0 280 175" enable-background="new 0 0 280 175" xml:space="preserve">
<path fill="#EEEBE8" d="M245.796,52.102c0,0,29.432,54.906,29.432,81.541c0,41.347-21.974,41.357-54.219,41.357
	c-32.242,0-216.236,0-216.236-61.029c0-42.706,46.519-84.537,46.519-84.537s-26.1,16.721-42.221,55.382c0,0-2.157,1.02-2.157-3.275
	c0-4.284,24.02-39.793,43.041-54.595C68.975,12.147,99.034,0,149.635,0C164.902,0,227.5,3.182,245.796,52.102z"/>
<g>
	<path fill="#808090" d="M162.435,53.947c-2.929-9.615-11.861-16.614-22.435-16.614s-19.506,6.999-22.434,16.614H91.95l5.212,83.719
		h85.674l5.213-83.719H162.435z M140,43.849c6.918,0,12.859,4.154,15.489,10.099c0.927,2.093,1.45,4.404,1.45,6.841
		c0,9.355-7.584,16.94-16.939,16.94c-9.354,0-16.939-7.585-16.939-16.94c0-2.437,0.523-4.749,1.45-6.841
		C127.142,48.001,133.083,43.849,140,43.849z"/>
	<path fill="#808090" d="M130.464,54.611l4.678,4.876c-0.112,0.417-0.191,0.848-0.191,1.301c0,2.788,2.262,5.049,5.05,5.049
		s5.049-2.261,5.049-5.049c0-2.789-2.261-5.05-5.049-5.05c-0.382,0-0.75,0.051-1.108,0.13l-1.842-1.921l-2.825-2.945
		c-0.997-1.04-2.647-1.071-3.686-0.076c-0.841,0.806-0.988,2.028-0.498,3.021C130.158,54.18,130.274,54.414,130.464,54.611z"/>
</g>
</svg>
