<?xml version="1.0" encoding="utf-8"?>
<!-- Generator: Adobe Illustrator 15.0.2, SVG Export Plug-In . SVG Version: 6.00 Build 0)  -->
<!DOCTYPE svg PUBLIC "-//W3C//DTD SVG 1.1//EN" "http://www.w3.org/Graphics/SVG/1.1/DTD/svg11.dtd">
<svg version="1.1" id="Calque_1" xmlns="http://www.w3.org/2000/svg" xmlns:xlink="http://www.w3.org/1999/xlink" x="0px" y="0px"
	 width="280px" height="175px" viewBox="0 0 280 175" enable-background="new 0 0 280 175" xml:space="preserve">
<path fill="#EEEBE8" d="M245.794,52.103c0,0,29.434,54.905,29.434,81.539c0,41.348-21.975,41.358-54.22,41.358
	c-32.242,0-216.235,0-216.235-61.029c0-42.706,46.519-84.537,46.519-84.537S25.191,46.155,9.07,84.816c0,0-2.156,1.02-2.156-3.275
	c0-4.284,24.02-39.794,43.041-54.595C68.975,12.147,99.034,0,149.636,0C164.902,0,227.5,3.182,245.794,52.103z"/>
<g>
	<g>
		<path fill="#808090" d="M143.736,64.581l-20.627-20.628c-8.825-8.824-23.263-8.825-32.089,0.001l-3.605,3.603l8.311,8.312
			c3.154-3.127,8.29-3.123,11.435,0.021l24.217,24.217c3.145,3.145,3.148,8.28,0.021,11.435l8.732,8.732l3.604-3.605
			C152.562,87.843,152.561,73.404,143.736,64.581z"/>
		<path fill="#808090" d="M126.954,95.992c-1.448,1.447-3.323,2.2-5.23,2.315c-1.215-7.715-4.885-15.264-10.982-21.361
			c-6.217-6.217-13.943-9.91-21.814-11.05c0.036-2.028,0.811-4.044,2.349-5.583l2.211-2.212l-8.308-8.308l-1.369,1.368
			c-4.131,4.132-6.304,9.495-6.564,14.936c-6.486,1.196-12.595,4.224-17.5,9.13c-13.607,13.608-12.839,36.44,1.719,50.996
			c14.557,14.559,37.389,15.327,50.997,1.721c4.905-4.907,7.933-11.016,9.13-17.502c5.441-0.262,10.805-2.434,14.936-6.563
			l1.369-1.37l-8.729-8.73L126.954,95.992z"/>
	</g>
	<g>
		<path fill="#808090" d="M156.892,43.953l-20.628,20.627c-8.824,8.825-8.825,23.263,0.001,32.087l3.604,3.604l8.31-8.311
			c-3.127-3.153-3.122-8.289,0.021-11.434l24.217-24.218c3.146-3.145,8.281-3.148,11.435-0.021l8.732-8.733l-3.604-3.603
			C180.155,35.127,165.717,35.128,156.892,43.953z"/>
		<path fill="#808090" d="M188.304,60.736c1.449,1.448,2.199,3.322,2.315,5.229c-7.714,1.216-15.264,4.886-21.361,10.983
			c-6.216,6.216-9.91,13.942-11.052,21.813c-2.026-0.036-4.044-0.813-5.581-2.349l-2.212-2.211l-8.309,8.307l1.369,1.37
			c4.131,4.13,9.494,6.303,14.936,6.564c1.195,6.485,4.224,12.595,9.131,17.501c13.605,13.606,36.438,12.839,50.995-1.72
			c14.559-14.557,15.328-37.389,1.719-50.996c-4.905-4.906-11.015-7.934-17.501-9.131c-0.263-5.441-2.432-10.804-6.564-14.936
			l-1.369-1.368l-8.729,8.728L188.304,60.736z"/>
	</g>
</g>
</svg>
