<?xml version="1.0" encoding="utf-8"?>
<!-- Generator: Adobe Illustrator 15.0.2, SVG Export Plug-In . SVG Version: 6.00 Build 0)  -->
<!DOCTYPE svg PUBLIC "-//W3C//DTD SVG 1.1//EN" "http://www.w3.org/Graphics/SVG/1.1/DTD/svg11.dtd">
<svg version="1.1" id="Calque_1" xmlns="http://www.w3.org/2000/svg" xmlns:xlink="http://www.w3.org/1999/xlink" x="0px" y="0px"
	 width="339.957px" height="219.973px" viewBox="0 0 339.957 219.973" enable-background="new 0 0 339.957 219.973"
	 xml:space="preserve">
<path fill="#EEEBE8" d="M302.978,65.487c0,0,37,69.024,37,102.507c0,51.979-27.624,51.993-68.16,51.993
	c-40.533,0-271.84,0-271.84-76.723c0-53.688,58.481-106.276,58.481-106.276S25.647,58.01,5.382,106.613c0,0-2.712,1.281-2.712-4.118
	c0-5.385,30.196-50.026,54.108-68.633c23.911-18.605,61.7-33.875,125.313-33.875C201.284-0.013,279.978,3.987,302.978,65.487z"/>
<path fill="#808090" d="M234.865,156.182c-5.14,0-5.989,3.459-11.025,3.459c-5.044,0-7.231-14.171-16.08-25.88
	c-8.85-11.698-21.316-17.596-21.316-22.548c0-4.952,4.473-14.273,6.569-20.173c2.098-5.895,2.377-31.018,2.377-37.395
	c0-6.373,0.678-3.634,0.678-9.908c0-6.274-2.49-16.251-6.011-16.251c-3.527,0-2.479,11.402-2.479,14.066s-3.602-4.682-3.897-1.699
	c-0.342,3.451,2.422,5.223,2.986,13.405c0.575,8.182-0.804,8.958-1.943,15.997c-1.146,7.04-1.18,12.177-2.89,20.173
	c-1.715,7.99-4.147,10.65-6.627,14.65c-2.474,3.992-1.896,7.991-1.896,7.991c-3.429-5.324-17.178-10.943-21.788-10.943
	c-4.615,0-6.002,6-6.002,6s-1.279-2.809-4.371,0.285c-3.094,3.094-5.042,11.892-5.042,24.926c0,13.037,2.031,16.749,3.518,16.749
	c1.493,0,3.26-3.27,3.26-3.27c0,2.717,4.766,3.281,4.766,3.281s-0.539,1.528-19.633,5.867c-19.376,4.406-20.906-4.996-24.687-7.802
	c-2.51-1.871-4.188,0-4.188,0s-2.621,4.966-2.621,9.627c0,4.667,0-4.661,0,0c0,4.667,0.769,3.622,1.624,6.006
	c0.853,2.373,0,5.519,0,9.982c0,4.479,7.895,3.141,10.755,3.141c2.855,0,20.735,6.003,35.203,6.003
	c14.459,0,45.287,10.563,52.99,10.563c7.715,0,9.043-3.143,12.951-3.143c3.903,0,3.129,1.81,13.408,1.81
	c10.273,0,19.982-17.698,19.982-23.599C243.44,161.643,240.016,156.182,234.865,156.182z M162.476,166.045
	c-13.319,0-18.783,2.664-33.242,2.664c-14.465,0-23.345-2.533-23.345-9.517c0,0,0.336-0.925,2.764,0.174
	c2.66,1.206,5.262,4.331,20.569,4.331c15.311,0,34.633-9.706,34.633-9.706l8,0.002c0,0,14.064-0.256,14.064,8.12
	C185.925,170.484,175.794,166.045,162.476,166.045z"/>
</svg>
