<?xml version="1.0" encoding="utf-8"?>
<!-- Generator: Adobe Illustrator 15.0.2, SVG Export Plug-In . SVG Version: 6.00 Build 0)  -->
<!DOCTYPE svg PUBLIC "-//W3C//DTD SVG 1.1//EN" "http://www.w3.org/Graphics/SVG/1.1/DTD/svg11.dtd">
<svg version="1.1" id="Calque_1" xmlns="http://www.w3.org/2000/svg" xmlns:xlink="http://www.w3.org/1999/xlink" x="0px" y="0px"
	 width="347px" height="200px" viewBox="0 0 347 200" enable-background="new 0 0 347 200" xml:space="preserve">
<g>
	<g>
		<path fill="#542954" d="M197.506,188.563c-0.229,0-0.459-0.078-0.646-0.237l-21.247-17.993l-72.131,13.376
			c-0.061,0.012-0.123,0.017-0.183,0.017c-0.448,0-0.852-0.302-0.967-0.75L80.862,99.882c-0.119-0.461,0.104-0.942,0.533-1.15
			l25.612-12.394l26.138-76.441c0.142-0.415,0.53-0.677,0.946-0.677c0.103,0,0.208,0.016,0.311,0.05l82.201,26.838
			c0.456,0.149,0.741,0.6,0.682,1.076l-3.898,30.926l48.315,58.868c0.332,0.406,0.295,1.001-0.086,1.361l-63.422,59.95
			C198,188.472,197.754,188.563,197.506,188.563z"/>
		<path fill="#FFFBFF" d="M134.091,10.221l82.201,26.838l-3.952,31.353l48.588,59.201l-63.422,59.95l-21.609-18.3l-72.598,13.462
			L81.83,99.632l25.987-12.576L134.091,10.221 M134.091,8.221c-0.832,0-1.608,0.523-1.892,1.354L106.195,85.62L80.959,97.832
			c-0.858,0.415-1.304,1.378-1.065,2.301l21.469,83.093c0.231,0.896,1.04,1.5,1.935,1.5c0.121,0,0.244-0.011,0.367-0.033
			l71.665-13.289l20.885,17.687c0.375,0.316,0.834,0.474,1.293,0.474c0.495,0,0.989-0.184,1.374-0.547l63.422-59.95
			c0.763-0.721,0.839-1.91,0.172-2.722l-48.042-58.536l3.845-30.5c0.12-0.951-0.452-1.854-1.364-2.151L134.712,8.32
			C134.506,8.253,134.297,8.221,134.091,8.221L134.091,8.221z"/>
	</g>
	<g>
		<path fill="#542954" d="M77.7,95.244c-0.306,0-0.604-0.14-0.799-0.398c-0.293-0.39-0.263-0.934,0.072-1.289l31.375-33.2
			c0.194-0.206,0.459-0.313,0.727-0.313c0.178,0,0.356,0.047,0.517,0.145c0.403,0.244,0.581,0.735,0.428,1.18l-7.082,20.624
			c-0.083,0.243-0.258,0.445-0.486,0.563L78.159,95.132C78.013,95.208,77.856,95.244,77.7,95.244z"/>
		<path fill="#FFFBFF" d="M109.075,61.044l-7.082,20.624L77.7,94.244L109.075,61.044 M109.076,59.044
			c-0.536,0-1.066,0.215-1.455,0.626l-31.375,33.2c-0.67,0.709-0.731,1.798-0.144,2.577c0.389,0.516,0.987,0.796,1.598,0.796
			c0.312,0,0.626-0.073,0.918-0.224l24.294-12.576c0.457-0.237,0.805-0.64,0.972-1.127l7.082-20.624
			c0.306-0.89-0.051-1.874-0.856-2.361C109.789,59.139,109.431,59.044,109.076,59.044L109.076,59.044z"/>
	</g>
</g>
<g>
	<path fill="#FFFBFF" d="M240.984,146.356c0,0-1.565-4.706-6.82-9.958c0,0-0.923-12.351-4.798-17.702
		c-3.871-5.347-8.284-7.898-8.284-7.898s-1.763-18.374-13.657-30.271c-11.896-11.891-22.125-16.599-22.125-16.599
		s4.242-24.153-12.172-24.153c-16.41,0-12.167,24.153-12.167,24.153s-10.228,4.708-22.125,16.599
		c-11.894,11.897-13.657,30.271-13.657,30.271s-4.416,2.549-8.287,7.898c-3.872,5.343-4.795,17.702-4.795,17.702
		c-5.252,5.252-6.823,9.958-6.823,9.958s-3.503,11.615,4.792,11.615c8.299,0,7.375-16.969,7.375-16.969
		c18.256-17.332,16.044-23.416,16.044-23.416c4.977,0,13.001-15.766,17.146-11.615c4.148,4.153-7.369,11.806-10.51,14.935
		c-3.132,3.135,0,16.97,0,27.294c0,10.323,11.247,22.864,11.247,22.864s2.214,5.16-3.319,9.769
		c-5.529,4.613-2.951,8.484-2.951,8.484s20.561,2.951,20.561-6.081c0-9.036-7.467-16.779-7.467-16.779c4.056-11.8,0-21.203,0-24.89
		c0-3.688,14.934-2.584,14.934-2.584s14.935-1.104,14.935,2.584c0,3.687-4.053,13.09,0,24.89c0,0-7.468,7.743-7.468,16.779
		c0,9.032,20.555,6.081,20.555,6.081s2.583-3.871-2.944-8.484c-5.532-4.605-3.319-9.769-3.319-9.769s11.245-12.541,11.245-22.864
		c0-10.329,3.133-24.156,0-27.294c-3.138-3.133-14.659-10.781-10.509-14.935c4.147-4.145,12.166,11.615,17.146,11.615
		c0,0-2.211,6.084,16.044,23.416c0,0-0.92,16.969,7.373,16.969C244.49,157.977,240.984,146.356,240.984,146.356z"/>
	<g>
		<rect x="41.843" y="145.988" fill="#FFFBFF" width="263.316" height="6.636"/>
	</g>
	<path fill="#FFFBFF" d="M84.263,120.543H66.556c-6.311,0-11.425,12.881-11.425,28.768c0,15.892,5.117,28.767,11.425,28.767h17.707
		c6.309,0,11.425-12.875,11.425-28.767C95.692,133.424,90.572,120.543,84.263,120.543z"/>
	<path fill="#FFFBFF" d="M279.697,120.543h-17.702c-6.31,0-11.425,12.881-11.425,28.768c0,15.892,5.118,28.767,11.425,28.767h17.702
		c6.311,0,11.428-12.875,11.428-28.767C291.124,133.424,286.004,120.543,279.697,120.543z"/>
</g>
</svg>
