<?xml version="1.0" encoding="utf-8"?>
<!-- Generator: Adobe Illustrator 15.0.2, SVG Export Plug-In . SVG Version: 6.00 Build 0)  -->
<!DOCTYPE svg PUBLIC "-//W3C//DTD SVG 1.1//EN" "http://www.w3.org/Graphics/SVG/1.1/DTD/svg11.dtd">
<svg version="1.1" id="Calque_1" xmlns="http://www.w3.org/2000/svg" xmlns:xlink="http://www.w3.org/1999/xlink" x="0px" y="0px"
	 width="280px" height="175px" viewBox="0 0 280 175" enable-background="new 0 0 280 175" xml:space="preserve">
<g>
	<polygon fill="#EEEBE9" points="103.266,0 231.164,26.484 227.265,57.422 275.21,115.842 212.626,175 144.519,156.942 
		27.09,170.226 5.905,88.23 31.55,75.821 	"/>
	<polygon fill="#EEEBE9" points="4.79,84.887 35.751,52.125 28.763,72.477 	"/>
</g>
<g>
	<path fill="#808090" d="M113.62,134.902c0.678,0.679,0.678,1.778,0,2.457l0,0c-0.679,0.679-1.779,0.679-2.457,0.001l-21.228-21.229
		c-0.678-0.679-0.678-1.777,0-2.457l0,0c0.679-0.679,1.779-0.679,2.457,0L113.62,134.902z"/>
	<path fill="#808090" d="M125.871,129.477c0.902,0.902,0.903,2.375,0.001,3.276l-4.334,4.335c-0.901,0.901-2.375,0.9-3.277-0.001
		l-27.848-27.849c-0.902-0.901-0.902-2.374,0-3.275l4.333-4.334c0.902-0.901,2.375-0.901,3.276,0L125.871,129.477z"/>
	<path fill="#808090" d="M135.29,120.058c0.901,0.901,0.902,2.375,0.001,3.276l-4.334,4.333c-0.901,0.902-2.375,0.902-3.277,0
		L99.832,99.819c-0.901-0.901-0.901-2.375,0-3.276l4.333-4.333c0.901-0.902,2.375-0.902,3.276,0L135.29,120.058z"/>
	<path fill="#808090" d="M187.164,61.359c0.678,0.678,1.777,0.677,2.457-0.001l0,0c0.678-0.679,0.678-1.778,0-2.456l-21.229-21.228
		c-0.679-0.678-1.777-0.678-2.456,0l0,0c-0.68,0.679-0.68,1.779-0.001,2.457L187.164,61.359z"/>
	<path fill="#808090" d="M181.738,73.609c0.9,0.902,2.375,0.903,3.277,0l4.333-4.333c0.901-0.902,0.901-2.375-0.001-3.276
		l-27.849-27.848c-0.901-0.902-2.374-0.902-3.275,0l-4.333,4.333c-0.902,0.903-0.901,2.375,0,3.277L181.738,73.609z"/>
	<path fill="#808090" d="M172.318,83.029c0.902,0.901,2.375,0.902,3.277,0l4.332-4.334c0.903-0.901,0.902-2.375,0-3.276
		l-27.847-27.847c-0.901-0.901-2.374-0.902-3.276,0l-4.333,4.333c-0.902,0.902-0.901,2.375,0,3.276L172.318,83.029z"/>
	<path fill="#808090" d="M99.627,127.873c0.867,0.866,0.867,2.271,0,3.139l-8.464,8.465c-0.867,0.867-2.272,0.866-3.139,0l0,0
		c-0.868-0.868-0.868-2.273,0-3.141l8.463-8.464C97.354,127.006,98.76,127.006,99.627,127.873L99.627,127.873z"/>
	<path fill="#808090" d="M191.976,35.523c0.867,0.867,0.868,2.272,0.001,3.14l-8.464,8.463c-0.867,0.866-2.272,0.866-3.14,0l0,0
		c-0.867-0.867-0.867-2.273-0.001-3.14l8.465-8.464C189.703,34.656,191.108,34.657,191.976,35.523L191.976,35.523z"/>
	
		<rect x="117.735" y="85.366" transform="matrix(-0.7071 0.7071 -0.7071 -0.7071 300.7786 50.5877)" fill="#808090" width="44.355" height="4.44"/>
</g>
</svg>
