<?xml version="1.0" encoding="utf-8"?>
<!-- Generator: Adobe Illustrator 15.0.2, SVG Export Plug-In . SVG Version: 6.00 Build 0)  -->
<!DOCTYPE svg PUBLIC "-//W3C//DTD SVG 1.1//EN" "http://www.w3.org/Graphics/SVG/1.1/DTD/svg11.dtd">
<svg version="1.1" id="Calque_1" xmlns="http://www.w3.org/2000/svg" xmlns:xlink="http://www.w3.org/1999/xlink" x="0px" y="0px"
	 width="280px" height="175px" viewBox="0 0 280 175" enable-background="new 0 0 280 175" xml:space="preserve">
<g>
	<polygon fill="#EEEBE9" points="103.265,0 231.164,26.484 227.265,57.422 275.21,115.842 212.626,175 144.519,156.942 
		27.09,170.226 5.905,88.231 31.55,75.821 	"/>
	<polygon fill="#EEEBE9" points="4.79,84.887 35.751,52.125 28.763,72.477 	"/>
</g>
<g>
	<path fill="#808090" d="M140.103,43.869c5.981,0,10.848,4.867,10.848,10.848c0,5.982-4.866,10.849-10.848,10.849
		c-5.982,0-10.848-4.866-10.848-10.849C129.254,48.735,134.121,43.869,140.103,43.869 M140.103,35.682
		c-10.513,0-19.037,8.521-19.037,19.036c0,10.515,8.523,19.037,19.037,19.037c10.514,0,19.036-8.521,19.036-19.037
		C159.139,44.204,150.616,35.682,140.103,35.682L140.103,35.682z"/>
	<circle fill="none" cx="140.103" cy="54.718" r="19.036"/>
	<path fill="#FFFFFF" d="M114.414,79.075c0,0-5.629-2.763-10.233-2.763c-4.606,0-4.506,1.024-4.506,4.22
		c0,3.197,5.631,3.251,5.631,6.73s-0.921,4.707-3.787,10.745c-2.866,6.039-7.88,20.265-7.88,30.089c0,9.825,2.456,9.928,2.456,9.928
		s13.37,0,16.068,0c2.697,0,2.866-3.479,2.866-3.479v-6.347c0-21.083,11.155-34.693,11.155-40.732c0-6.038-4.298-7.777-4.298-7.777
		l2.333-9.331c-2.96-3.005-5.082-6.84-5.965-11.123C115.456,64.787,114.414,79.075,114.414,79.075z"/>
	<path fill="#808090" d="M114.414,79.075c0,0-5.629-2.763-10.233-2.763c-4.606,0-4.506,1.024-4.506,4.22
		c0,3.197,5.631,3.251,5.631,6.73s-0.921,4.707-3.787,10.745c-2.866,6.039-7.88,20.265-7.88,30.089c0,9.825,2.456,9.928,2.456,9.928
		s13.37,0,16.068,0c2.697,0,2.866-3.479,2.866-3.479v-6.347c0-21.083,11.155-34.693,11.155-40.732c0-6.038-4.298-7.777-4.298-7.777
		l2.333-9.331c-2.96-3.005-5.082-6.84-5.965-11.123C115.456,64.787,114.414,79.075,114.414,79.075z"/>
	<path fill="#808090" d="M165.586,79.075c0,0,5.629-2.763,10.233-2.763c4.605,0,4.505,1.024,4.505,4.22
		c0,3.197-5.631,3.251-5.631,6.73s0.921,4.707,3.787,10.745c2.866,6.039,7.881,20.265,7.881,30.089c0,9.825-2.457,9.928-2.457,9.928
		s-13.37,0-16.067,0c-2.698,0-2.866-3.479-2.866-3.479v-6.347c0-21.083-11.154-34.693-11.154-40.732
		c0-6.038,4.297-7.777,4.297-7.777l-2.332-9.331c2.96-3.005,5.081-6.84,5.966-11.123C164.545,64.787,165.586,79.075,165.586,79.075z
		"/>
</g>
</svg>
