<?xml version="1.0" encoding="utf-8"?>
<!-- Generator: Adobe Illustrator 15.0.2, SVG Export Plug-In . SVG Version: 6.00 Build 0)  -->
<!DOCTYPE svg PUBLIC "-//W3C//DTD SVG 1.1//EN" "http://www.w3.org/Graphics/SVG/1.1/DTD/svg11.dtd">
<svg version="1.1" id="Calque_1" xmlns="http://www.w3.org/2000/svg" xmlns:xlink="http://www.w3.org/1999/xlink" x="0px" y="0px"
	 width="205px" height="205px" viewBox="0 0 205 205" enable-background="new 0 0 205 205" xml:space="preserve">
<linearGradient id="SVGID_1_" gradientUnits="userSpaceOnUse" x1="401.4033" y1="-236.6626" x2="344.3835" y2="-349.1329" gradientTransform="matrix(1 0 0 -1 -269.5996 -186.96)">
	<stop  offset="0" style="stop-color:#FFFFFE"/>
	<stop  offset="1" style="stop-color:#000000"/>
</linearGradient>
<path fill="url(#SVGID_1_)" d="M36.805,72.45c0-1.725,1.22-3.848,2.713-4.715l60.269-35.033c1.491-0.868,3.936-0.868,5.426,0
	l60.27,35.033c1.494,0.868,2.713,2.99,2.713,4.715v70.101c0,1.727-1.219,3.848-2.713,4.715l-60.27,35.031
	c-1.49,0.87-3.935,0.87-5.426,0l-60.269-35.031c-1.493-0.867-2.713-2.988-2.713-4.715V72.45z"/>
<linearGradient id="SVGID_2_" gradientUnits="userSpaceOnUse" x1="392.0664" y1="-353.2954" x2="352.4559" y2="-237.6071" gradientTransform="matrix(1 0 0 -1 -269.5996 -186.96)">
	<stop  offset="0" style="stop-color:#E8C6B0"/>
	<stop  offset="1" style="stop-color:#EEEBE8"/>
</linearGradient>
<path fill="url(#SVGID_2_)" d="M36.805,72.45c0-1.725,1.22-3.848,2.713-4.715l60.269-33.986c1.491-0.868,3.936-0.868,5.426,0
	l60.27,35.031c1.494,0.869,2.713,2.99,2.713,4.716v68.008c0,1.725-1.219,3.85-2.713,4.717l-60.27,35.03
	c-1.49,0.87-3.935,0.87-5.426,0l-60.269-33.985c-1.493-0.867-2.713-2.988-2.713-4.715V72.45z"/>
<linearGradient id="SVGID_3_" gradientUnits="userSpaceOnUse" x1="441.7158" y1="-278.5181" x2="386.789" y2="-299.4426" gradientTransform="matrix(1 0 0 -1 -269.5996 -186.96)">
	<stop  offset="0" style="stop-color:#FFFFFE;stop-opacity:0.75"/>
	<stop  offset="1" style="stop-color:#FFFFFE;stop-opacity:0"/>
</linearGradient>
<path fill="url(#SVGID_3_)" d="M62.023,159.956l37.764,21.295c1.491,0.87,3.936,0.87,5.426,0l60.27-35.03
	c1.494-0.867,2.713-2.992,2.713-4.717V73.496c0-1.726-1.219-3.848-2.713-4.716l-40.487-23.534"/>
<linearGradient id="SVGID_4_" gradientUnits="userSpaceOnUse" x1="372.0996" y1="-244.3672" x2="372.0996" y2="-345.333" gradientTransform="matrix(1 0 0 -1 -269.5996 -186.96)">
	<stop  offset="0" style="stop-color:#808090;stop-opacity:0.05"/>
	<stop  offset="1" style="stop-color:#9595A4;stop-opacity:0.1"/>
</linearGradient>
<path fill="url(#SVGID_4_)" d="M147.605,128.357c-0.291-1.41-0.752-2.75-1.377-4.03c-0.629-1.278-1.414-2.494-2.4-3.618
	c-0.99-1.116-2.188-2.146-3.616-2.948c-1.424-0.801-3.089-1.356-4.787-1.521c-0.428-0.042-0.845-0.063-1.274-0.062l-0.434,0.002
	l-0.443,0.014c-0.576,0.018-1.127,0.046-1.672,0.076c-0.184,0.013-0.363,0.026-0.545,0.039c1.094-1.371,1.748-2.847,2.152-4.205
	c0.432-1.449,0.611-2.814,0.688-4.108c0.021-0.322,0.031-0.644,0.035-0.953l0.002-0.233v-0.334l-0.002-0.097l-0.014-0.269
	c-0.014-0.231-0.027-0.344-0.045-0.5c-0.146-1.143-0.436-1.987-0.747-2.75c-0.632-1.506-1.401-2.677-2.269-3.776
	c-0.875-1.089-1.858-2.076-3.035-2.971c-1.186-0.883-2.572-1.711-4.399-2.203c-0.455-0.122-0.938-0.217-1.444-0.274
	c-0.502-0.059-1.082-0.075-1.529-0.05c-0.86,0.042-1.45,0.133-2.053,0.224c-1.17,0.186-2.213,0.403-3.254,0.627
	c-2.059,0.452-4.041,0.937-6.009,1.422l-2.933,0.726c-0.971,0.238-1.938,0.483-2.903,0.684c-0.967,0.205-1.934,0.374-2.872,0.567
	c-0.932,0.195-1.853,0.424-2.677,0.65l-1.031,0.275c-0.052,0.015-0.096,0.026-0.102,0.039c-0.074,0.003,0.102,0.006,0.045,0.009
	l-0.095,0.008c-0.097,0.006-0.043,0.007-0.039,0.015c-0.01,0.023-0.095,0.038-0.143,0.053c-0.212,0.053-0.477,0.054-0.806-0.09
	c-0.325-0.14-0.702-0.425-1.027-0.835c-0.33-0.407-0.609-0.932-0.811-1.519c-0.104-0.294-0.182-0.605-0.238-0.927L93.48,95.39
	c-0.004-0.075-0.006,0.036-0.009-0.013l-0.008-0.094l-0.009-0.092L93.45,95.17c-0.004-0.014-0.011-0.022-0.015-0.062
	c-0.016-0.124-0.024-0.257-0.024-0.394c-0.005-0.25,0.028-0.517,0.075-0.793c0.187-0.815,1.134-3.304,5.875-3.304
	c5.676,0,11.23-6.855,11.23-9.456s2.956-9.929,2.956-11.465c-0.005-1.538-3.434-11.467-7.334-11.467
	c-3.898,0-6.499,9.693-6.499,12.115c0,2.421,2.654,6.915,2.654,8.924c0,2.009-1.595,3.665-6.438,3.665
	c-4.848,0-13.217,7.242-9.149,17.747v-0.001c0.145,0.42,0.314,0.838,0.505,1.252c0.639,1.355,1.556,2.668,2.804,3.779
	c0.408,0.36,0.854,0.694,1.331,1c-1.728-0.222-3.467-0.437-5.223-0.633c-1.027-0.114-2.059-0.222-3.138-0.313
	c-0.542-0.048-1.09-0.087-1.699-0.115l-0.479-0.018l-0.28-0.003l-0.375,0.003c-0.689,0.02-1.372,0.135-1.996,0.323
	c-1.257,0.373-2.256,0.989-3.034,1.622c-0.782,0.636-1.378,1.304-1.876,1.962c-0.984,1.321-1.612,2.627-2.103,3.938
	c-0.477,1.311-0.795,2.635-0.973,3.996c-0.176,1.361-0.212,2.767-0.037,4.243c0.182,1.472,0.572,3.043,1.408,4.621
	c0.183,0.338,0.388,0.679,0.614,1.011c-0.347-0.024-0.705-0.049-1.099-0.072l-0.511-0.02l-0.336-0.002l-0.344,0.01
	c-0.46,0.017-0.915,0.062-1.353,0.137c-0.882,0.143-1.719,0.385-2.492,0.691c-1.545,0.619-2.848,1.479-3.977,2.455
	c-1.125,0.987-2.078,2.092-2.88,3.337c-0.797,1.251-1.463,2.636-1.863,4.293c-0.098,0.415-0.178,0.851-0.23,1.302l-0.034,0.347
	c-0.011,0.12-0.02,0.221-0.026,0.381l-0.011,0.344l-0.004,0.308c0.006,0.69,0.05,1.375,0.13,2.055
	c0.162,1.363,0.47,2.732,0.994,4.12c0.529,1.382,1.296,2.791,2.397,4.063c1.092,1.274,2.531,2.37,4.083,3.07
	c1.55,0.712,3.147,1.051,4.625,1.193l0.282,0.024l0.316,0.017l0.449,0.023l0.583,0.01l0.507-0.01
	c0.664-0.013,1.275-0.063,1.864-0.125c1.172-0.134,2.258-0.342,3.307-0.617c2.084-0.574,4.047-1.24,5.992-1.896l5.745-1.981
	c3.782-1.33,7.542-2.613,11.256-3.572c0.928-0.23,1.853-0.438,2.754-0.59l0.669-0.1l0.334-0.045c0.096-0.014,0.19-0.021,0.283-0.03
	c0.379-0.034,0.766-0.038,1.155-0.013c1.575,0.098,3.247,0.779,4.785,1.814c1.556,1.025,2.985,2.375,4.295,3.85
	c0.659,0.742,1.28,1.523,1.877,2.326c0.599,0.808,1.169,1.643,1.688,2.513c-0.572-1.95-1.364-3.849-2.33-5.687
	c-0.973-1.834-2.145-3.602-3.646-5.203c-0.76-0.793-1.607-1.536-2.566-2.188c-0.963-0.645-2.045-1.191-3.229-1.552
	c-0.592-0.185-1.209-0.318-1.835-0.396c-0.154-0.021-0.313-0.037-0.469-0.048l-0.424-0.038c-0.287-0.021-0.559-0.035-0.837-0.047
	c-1.105-0.048-2.188-0.031-3.252,0.012c-2.135,0.082-4.22,0.285-6.274,0.539c-2.059,0.246-4.089,0.533-6.107,0.825l-5.981,0.906
	c-1.972,0.29-3.927,0.548-5.795,0.741c-0.928,0.107-1.825,0.242-2.648,0.357c-0.412,0.061-0.802,0.109-1.145,0.148l-0.25,0.023
	l-0.114,0.008l-0.052,0.006c-0.078,0.002,0.047,0.005-0.002,0.005l-0.31,0.005l-0.06,0.003h-0.091
	c-0.528-0.004-0.928-0.108-1.209-0.235c-0.286-0.133-0.485-0.283-0.708-0.537c-0.217-0.25-0.445-0.625-0.635-1.123
	c-0.191-0.489-0.338-1.099-0.41-1.735c-0.039-0.315-0.058-0.644-0.061-0.955c0,0.003,0-0.017,0-0.033v-0.038
	c0-0.023,0-0.087,0-0.072v0.035c-0.002,0.035,0,0.014,0,0.002c0-0.004,0.002-0.021,0.004-0.027c0.005-0.049,0.016-0.108,0.035-0.184
	c0.067-0.304,0.262-0.771,0.55-1.211c0.284-0.443,0.657-0.881,1.051-1.22c0.392-0.341,0.804-0.59,1.127-0.715
	c0.165-0.067,0.303-0.104,0.414-0.122c0.054-0.011,0.104-0.014,0.147-0.014h0.074l0.241,0.005c0.398,0.021,0.884,0.059,1.358,0.096
	l1.458,0.123c3.942,0.358,7.953,0.772,11.95,1.187c8.002,0.822,16.021,1.664,24.057,2.455c4.015,0.396,8.037,0.777,12.076,1.135
	c2.022,0.177,4.042,0.343,6.079,0.498c2.04,0.149,4.078,0.289,6.195,0.379c0.529,0.025,1.067,0.043,1.621,0.055l0.42,0.003h0.485
	h0.19l0.313-0.013c0.225-0.006,0.389-0.016,0.592-0.032c1.525-0.123,3.235-0.507,4.885-1.415c0.818-0.453,1.604-1.031,2.293-1.71
	s1.273-1.452,1.732-2.252c0.928-1.614,1.359-3.3,1.514-4.866C148.016,131.264,147.893,129.773,147.605,128.357z M124.002,106.596
	l0.002,0.062c0,0.005,0,0.007,0,0.005v0.009C124.002,106.645,124.002,106.555,124.002,106.596z M105.619,106.971
	c1.98-0.527,3.949-0.986,5.893-1.475c1.938-0.479,3.869-0.952,5.742-1.362c0.928-0.2,1.857-0.391,2.674-0.519
	c0.387-0.063,0.786-0.108,0.941-0.114c0.008,0.003,0.01,0.003,0.021,0.005c0.121,0.025,0.525,0.204,0.944,0.529
	c0.429,0.32,0.882,0.765,1.265,1.247c0.383,0.474,0.709,1.019,0.851,1.37c0.024,0.055,0.04,0.102,0.053,0.139L124,106.875
	c-0.002,0.189-0.008,0.376-0.02,0.557c-0.039,0.713-0.143,1.355-0.289,1.834c-0.141,0.483-0.316,0.771-0.403,0.867
	c-0.099,0.096-0.083,0.098-0.271,0.172c-0.094,0.028-0.235,0.066-0.435,0.086c-0.048,0.008-0.104,0.01-0.155,0.014h-0.046
	c-0.019,0,0,0.008-0.085,0.01l-0.251,0.001l-0.271-0.011c-0.801-0.022-1.766-0.102-2.711-0.188
	c-0.955-0.091-1.928-0.192-2.905-0.306c-1.961-0.223-3.938-0.467-5.923-0.723l-8.886-1.176c0.425-0.074,0.845-0.158,1.259-0.252
	C103.637,107.523,104.631,107.232,105.619,106.971z M80.547,116.896c0.19-0.533,0.446-1.015,0.659-1.313
	c0.323,0.02,0.672,0.043,1.027,0.077c0.928,0.075,1.894,0.181,2.869,0.284c3.905,0.44,7.893,0.978,11.876,1.509l11.606,1.535
	c-6.425,0.872-12.829,1.747-19.164,2.442c-1.957,0.207-3.912,0.397-5.784,0.514c-0.468,0.027-0.925,0.053-1.37,0.066l-0.647,0.016
	l-0.258,0.002l-0.169-0.002c-0.008-0.002-0.013-0.002-0.023-0.002c-0.401-0.025-0.579-0.104-0.611-0.127
	c-0.038-0.026-0.061-0.023-0.18-0.231c-0.111-0.204-0.25-0.608-0.313-1.134C79.937,119.482,80.116,118.052,80.547,116.896z
	 M137.979,131.885c-0.039,0.43-0.15,0.732-0.231,0.864c-0.088,0.137-0.101,0.146-0.222,0.224c-0.117,0.066-0.408,0.176-0.881,0.211
	l-0.164,0.012l-0.067,0.003h-0.187l-0.605-0.003c-0.449-0.012-0.918-0.023-1.395-0.045c-1.908-0.076-3.885-0.217-5.857-0.361
	c-1.979-0.148-3.969-0.314-5.96-0.487c-3.985-0.349-7.978-0.729-11.972-1.122c-3.433-0.339-6.862-0.691-10.297-1.039
	c4.834-0.63,9.631-1.299,14.426-1.936c3.979-0.529,7.951-1.049,11.875-1.49c1.959-0.21,3.918-0.414,5.775-0.531
	c0.463-0.026,0.916-0.05,1.346-0.064l0.636-0.01c0.073,0,0.157,0.006,0.231,0.013c0.303,0.032,0.592,0.121,0.922,0.303
	c0.654,0.353,1.441,1.194,1.959,2.265C137.835,129.736,138.075,131.011,137.979,131.885z"/>
<g opacity="0.15">
	
		<linearGradient id="SVGID_5_" gradientUnits="userSpaceOnUse" x1="402.0947" y1="-244.3809" x2="402.0947" y2="-345.3188" gradientTransform="matrix(1 0 0 -1 -269.5996 -186.96)">
		<stop  offset="0" style="stop-color:#2D2B2C"/>
		<stop  offset="1" style="stop-color:#0C0C0C"/>
	</linearGradient>
	<path fill="url(#SVGID_5_)" d="M133.209,110.87c-0.404,1.356-1.059,2.834-2.152,4.204c0.182-0.014,0.361-0.029,0.545-0.039
		c0.108-0.006,0.225-0.012,0.334-0.016c0.584-0.979,0.992-1.977,1.273-2.916c0.432-1.451,0.611-2.815,0.688-4.109
		c0.021-0.322,0.031-0.643,0.035-0.953l0.002-0.232v-0.336l-0.002-0.096l-0.014-0.236c-0.004,0.207-0.008,0.411-0.021,0.62
		C133.82,108.055,133.641,109.42,133.209,110.87z"/>
	
		<linearGradient id="SVGID_6_" gradientUnits="userSpaceOnUse" x1="388.6699" y1="-244.3589" x2="388.6699" y2="-345.3364" gradientTransform="matrix(1 0 0 -1 -269.5996 -186.96)">
		<stop  offset="0" style="stop-color:#2D2B2C"/>
		<stop  offset="1" style="stop-color:#0C0C0C"/>
	</linearGradient>
	<path fill="url(#SVGID_6_)" d="M100.14,128.904c1.753,0.178,3.5,0.351,5.252,0.531c3.063-0.414,6.127-0.826,9.174-1.231
		c3.979-0.529,7.951-1.05,11.875-1.49c1.959-0.21,3.918-0.414,5.775-0.53c0.463-0.027,0.916-0.051,1.346-0.065l0.635-0.009
		c0.074,0,0.158,0.005,0.232,0.012c0.303,0.031,0.592,0.121,0.922,0.303c0.654,0.352,1.441,1.194,1.959,2.266
		c0.342,0.683,0.547,1.451,0.635,2.151c0.01-0.067,0.027-0.114,0.033-0.188c0.097-0.873-0.145-2.147-0.668-3.198
		c-0.518-1.07-1.305-1.911-1.959-2.263c-0.33-0.185-0.619-0.271-0.922-0.307c-0.074-0.004-0.158-0.01-0.232-0.01l-0.635,0.008
		c-0.43,0.016-0.883,0.037-1.346,0.065c-1.857,0.118-3.816,0.319-5.775,0.532c-3.924,0.439-7.896,0.963-11.875,1.49
		C109.771,127.609,104.975,128.273,100.14,128.904z"/>
	
		<linearGradient id="SVGID_7_" gradientUnits="userSpaceOnUse" x1="340.7686" y1="-244.3613" x2="340.7686" y2="-345.3354" gradientTransform="matrix(1 0 0 -1 -269.5996 -186.96)">
		<stop  offset="0" style="stop-color:#2D2B2C"/>
		<stop  offset="1" style="stop-color:#0C0C0C"/>
	</linearGradient>
	<path fill="url(#SVGID_7_)" d="M71.619,125.104c-0.836-1.576-1.227-3.146-1.408-4.617c-0.052-0.442-0.083-0.875-0.095-1.307
		c-0.03,0.827-0.006,1.668,0.095,2.538c0.171,1.388,0.542,2.86,1.283,4.349c0.251,0.018,0.507,0.029,0.739,0.048
		C72.007,125.781,71.801,125.443,71.619,125.104z"/>
	
		<linearGradient id="SVGID_8_" gradientUnits="userSpaceOnUse" x1="363.9082" y1="-244.3389" x2="363.9082" y2="-345.3484" gradientTransform="matrix(1 0 0 -1 -269.5996 -186.96)">
		<stop  offset="0" style="stop-color:#2D2B2C"/>
		<stop  offset="1" style="stop-color:#0C0C0C"/>
	</linearGradient>
	<path fill="url(#SVGID_8_)" d="M81.206,115.584c0.323,0.02,0.672,0.043,1.027,0.077c0.928,0.075,1.894,0.181,2.869,0.284
		c3.905,0.44,7.893,0.978,11.876,1.509l6.974,0.921c1.545-0.206,3.086-0.409,4.633-0.617l-11.606-1.539
		c-3.983-0.531-7.971-1.064-11.876-1.507c-0.975-0.104-1.941-0.208-2.869-0.286c-0.355-0.031-0.705-0.056-1.027-0.078
		c-0.212,0.303-0.468,0.782-0.659,1.313c-0.42,1.124-0.594,2.498-0.485,3.539c0.061-0.771,0.217-1.586,0.485-2.304
		C80.738,116.363,80.994,115.883,81.206,115.584z"/>
	
		<linearGradient id="SVGID_9_" gradientUnits="userSpaceOnUse" x1="382.2754" y1="-244.3706" x2="382.2754" y2="-345.3293" gradientTransform="matrix(1 0 0 -1 -269.5996 -186.96)">
		<stop  offset="0" style="stop-color:#2D2B2C"/>
		<stop  offset="1" style="stop-color:#0C0C0C"/>
	</linearGradient>
	<path fill="url(#SVGID_9_)" d="M111.512,105.496c1.938-0.479,3.869-0.952,5.742-1.362c0.928-0.2,1.857-0.391,2.674-0.519
		c0.387-0.063,0.786-0.108,0.941-0.114c0.008,0.003,0.01,0.003,0.021,0.005c0.121,0.025,0.525,0.204,0.944,0.529
		c0.429,0.32,0.882,0.765,1.265,1.247c0.379,0.463,0.691,0.991,0.838,1.344c0.013-0.146,0.037-0.278,0.043-0.431
		c0.012-0.18,0.018-0.364,0.02-0.557l0.003-0.082c-0.013-0.037-0.028-0.084-0.053-0.139c-0.142-0.354-0.468-0.896-0.851-1.371
		c-0.383-0.48-0.836-0.926-1.265-1.247c-0.419-0.325-0.823-0.503-0.944-0.53c-0.012-0.002-0.014-0.002-0.021-0.003
		c-0.155,0.005-0.557,0.05-0.941,0.112c-0.814,0.128-1.746,0.319-2.674,0.519c-1.873,0.413-3.804,0.883-5.742,1.363
		c-1.943,0.488-3.912,0.948-5.893,1.474c-0.988,0.264-1.982,0.555-3.011,0.793c-0.416,0.092-0.834,0.175-1.259,0.252l3.342,0.441
		c0.307-0.086,0.617-0.172,0.928-0.252C107.6,106.443,109.568,105.984,111.512,105.496z"/>
	
		<linearGradient id="SVGID_10_" gradientUnits="userSpaceOnUse" x1="393.6025" y1="-244.0269" x2="393.6025" y2="-345.7072" gradientTransform="matrix(1 0 0 -1 -269.5996 -186.96)">
		<stop  offset="0" style="stop-color:#2D2B2C"/>
		<stop  offset="1" style="stop-color:#0C0C0C"/>
	</linearGradient>
	<path fill="url(#SVGID_10_)" d="M124.004,105.426c0,0.004,0,0.002,0-0.004l-0.002-0.061c0-0.041,0,0.049,0.002,0.074V105.426z"/>
	
		<linearGradient id="SVGID_11_" gradientUnits="userSpaceOnUse" x1="376.2305" y1="-243.1333" x2="376.2305" y2="-344.0933" gradientTransform="matrix(1 0 0 -1 -269.5996 -186.96)">
		<stop  offset="0" style="stop-color:#2D2B2C"/>
		<stop  offset="1" style="stop-color:#0C0C0C"/>
	</linearGradient>
	<path fill="url(#SVGID_11_)" d="M106.214,58.229c3.56,0,6.716,8.243,7.247,10.863c0.051-0.256,0.087-0.479,0.087-0.63
		c-0.005-1.538-3.433-11.467-7.334-11.467c-3.898,0-6.499,9.693-6.499,12.115c0,0.15,0.037,0.33,0.054,0.495
		C100.151,66.398,102.632,58.229,106.214,58.229z"/>
	
		<linearGradient id="SVGID_12_" gradientUnits="userSpaceOnUse" x1="363.6396" y1="-243.1328" x2="363.6396" y2="-344.0965" gradientTransform="matrix(1 0 0 -1 -269.5996 -186.96)">
		<stop  offset="0" style="stop-color:#2D2B2C"/>
		<stop  offset="1" style="stop-color:#0C0C0C"/>
	</linearGradient>
	<path fill="url(#SVGID_12_)" d="M95.932,82.933c4.846,0,6.44-1.656,6.44-3.665c0-0.158-0.041-0.354-0.071-0.54
		c-0.351,1.682-2.094,2.97-6.369,2.97c-4.059,0-10.582,5.079-10.209,12.896C86.045,87.481,92.094,82.933,95.932,82.933z"/>
	
		<linearGradient id="SVGID_13_" gradientUnits="userSpaceOnUse" x1="409.0859" y1="-243.1396" x2="409.0859" y2="-344.0934" gradientTransform="matrix(1 0 0 -1 -269.5996 -186.96)">
		<stop  offset="0" style="stop-color:#2D2B2C"/>
		<stop  offset="1" style="stop-color:#0C0C0C"/>
	</linearGradient>
	<path fill="url(#SVGID_13_)" d="M131.602,116.27c0.545-0.03,1.096-0.06,1.672-0.076l0.443-0.014l0.434-0.002
		c0.431-0.003,0.848,0.02,1.274,0.062c1.698,0.165,3.363,0.722,4.787,1.521c1.431,0.802,2.626,1.832,3.616,2.948
		c0.986,1.124,1.771,2.34,2.4,3.618c0.625,1.28,1.086,2.62,1.377,4.03c0.162,0.799,0.262,1.623,0.299,2.472
		c0.053-1.289-0.061-2.522-0.299-3.704c-0.291-1.411-0.752-2.752-1.377-4.033c-0.629-1.277-1.414-2.492-2.4-3.615
		c-0.99-1.117-2.188-2.146-3.616-2.949c-1.424-0.803-3.089-1.356-4.787-1.524c-0.428-0.04-0.845-0.063-1.274-0.06l-0.434,0.004
		l-0.443,0.013c-0.463,0.013-0.901,0.037-1.338,0.062c-0.26,0.437-0.543,0.867-0.879,1.289
		C131.238,116.296,131.418,116.281,131.602,116.27z"/>
	
		<linearGradient id="SVGID_14_" gradientUnits="userSpaceOnUse" x1="383.2734" y1="-243.1299" x2="383.2733" y2="-344.1016" gradientTransform="matrix(1 0 0 -1 -269.5996 -186.96)">
		<stop  offset="0" style="stop-color:#2D2B2C"/>
		<stop  offset="1" style="stop-color:#0C0C0C"/>
	</linearGradient>
	<path fill="url(#SVGID_14_)" d="M106.201,95.348c-0.971,0.239-1.938,0.484-2.903,0.684c-0.967,0.205-1.931,0.374-2.869,0.568
		c-0.937,0.195-1.855,0.424-2.677,0.65l-1.032,0.275c-0.054,0.015-0.098,0.026-0.106,0.039c-0.073,0.003,0.106,0.006,0.046,0.009
		l-0.093,0.007c-0.095,0.007-0.043,0.008-0.039,0.015c-0.01,0.024-0.095,0.038-0.143,0.053c-0.212,0.053-0.474,0.054-0.806-0.09
		c-0.325-0.139-0.702-0.424-1.027-0.834c-0.33-0.407-0.611-0.932-0.811-1.519c-0.104-0.292-0.182-0.604-0.238-0.927l-0.021-0.122
		c-0.002-0.075-0.006,0.036-0.009-0.013l-0.002-0.027c-0.03,0.205-0.061,0.41-0.058,0.598c0,0.137,0.008,0.27,0.024,0.394
		c0.004,0.039,0.01,0.047,0.015,0.062l0.007,0.021l0.006,0.092l0.008,0.094c0.002,0.049,0.007-0.062,0.009,0.013l0.021,0.123
		c0.057,0.322,0.134,0.633,0.238,0.927c0.2,0.587,0.481,1.111,0.811,1.519c0.325,0.41,0.702,0.695,1.027,0.835
		c0.332,0.144,0.594,0.143,0.806,0.09c0.048-0.015,0.133-0.03,0.143-0.053c-0.004-0.008-0.056-0.009,0.039-0.015l0.093-0.008
		c0.061-0.002-0.119-0.005-0.046-0.009c0.009-0.013,0.053-0.024,0.106-0.039l1.032-0.275c0.821-0.227,1.74-0.455,2.677-0.65
		c0.938-0.194,1.902-0.363,2.869-0.567c0.968-0.201,1.933-0.445,2.903-0.684l2.933-0.726c1.968-0.485,3.95-0.97,6.009-1.422
		c1.041-0.224,2.084-0.442,3.254-0.627c0.603-0.091,1.191-0.182,2.053-0.224c0.447-0.024,1.027-0.009,1.529,0.05
		c0.506,0.058,0.989,0.153,1.444,0.274c1.827,0.492,3.214,1.319,4.399,2.203c1.177,0.895,2.16,1.882,3.035,2.971
		c0.867,1.099,1.637,2.27,2.269,3.776c0.312,0.763,0.603,1.608,0.747,2.75c0.018,0.156,0.031,0.269,0.045,0.5v0.031
		c0.005-0.11,0.014-0.224,0.014-0.334l0.002-0.233v-0.334l-0.002-0.097l-0.014-0.268c-0.014-0.232-0.027-0.344-0.045-0.5
		c-0.146-1.143-0.436-1.987-0.747-2.751c-0.632-1.505-1.401-2.677-2.269-3.776c-0.875-1.088-1.858-2.076-3.035-2.971
		c-1.186-0.883-2.572-1.71-4.399-2.203c-0.455-0.121-0.938-0.216-1.444-0.274c-0.502-0.06-1.082-0.075-1.529-0.051
		c-0.86,0.042-1.45,0.133-2.053,0.225c-1.17,0.185-2.213,0.403-3.254,0.627c-2.059,0.452-4.041,0.938-6.009,1.422"/>
	
		<linearGradient id="SVGID_15_" gradientUnits="userSpaceOnUse" x1="393.6025" y1="-243.0693" x2="393.6025" y2="-344.162" gradientTransform="matrix(1 0 0 -1 -269.5996 -186.96)">
		<stop  offset="0" style="stop-color:#2D2B2C"/>
		<stop  offset="1" style="stop-color:#0C0C0C"/>
	</linearGradient>
	<path fill="url(#SVGID_15_)" d="M124.004,106.661c0,0.002,0,0,0-0.005l-0.002-0.061c0-0.041,0,0.049,0.002,0.073V106.661z"/>
	
		<linearGradient id="SVGID_16_" gradientUnits="userSpaceOnUse" x1="361.8203" y1="-243.1221" x2="361.8203" y2="-344.099" gradientTransform="matrix(1 0 0 -1 -269.5996 -186.96)">
		<stop  offset="0" style="stop-color:#2D2B2C"/>
		<stop  offset="1" style="stop-color:#0C0C0C"/>
	</linearGradient>
	<path fill="url(#SVGID_16_)" d="M67.005,140.661c-0.001,0.008-0.004,0.024-0.004,0.026c0,0.014,0,0.027,0,0.035v0.039
		c0,0.018,0,0.036,0,0.033c0.002,0.313,0.021,0.639,0.061,0.955c0.071,0.639,0.219,1.246,0.41,1.734
		c0.19,0.5,0.418,0.873,0.635,1.123c0.223,0.254,0.422,0.406,0.708,0.537c0.281,0.129,0.681,0.232,1.209,0.236h0.091l0.06-0.003
		l0.31-0.005c0.05,0-0.076-0.003,0.002-0.005l0.052-0.005l0.114-0.008l0.25-0.024c0.342-0.039,0.732-0.089,1.145-0.149
		c0.823-0.115,1.72-0.25,2.648-0.356c1.868-0.193,3.823-0.451,5.795-0.741l5.981-0.906c2.018-0.292,4.048-0.58,6.107-0.824
		c2.054-0.254,4.139-0.457,6.271-0.539c1.066-0.043,2.15-0.061,3.255-0.013c0.278,0.013,0.55,0.026,0.837,0.048l0.423,0.037
		c0.156,0.012,0.314,0.027,0.47,0.047c0.626,0.078,1.243,0.213,1.835,0.396c1.186,0.359,2.268,0.908,3.229,1.552
		c0.961,0.65,1.809,1.396,2.567,2.187c1.502,1.604,2.673,3.371,3.646,5.203c0.518,0.98,0.977,1.979,1.383,2.986
		c0.331,0.477,0.648,0.965,0.947,1.467c-0.571-1.949-1.363-3.85-2.33-5.685c-0.973-1.836-2.144-3.604-3.646-5.205
		c-0.76-0.795-1.606-1.535-2.567-2.187c-0.963-0.646-2.043-1.191-3.229-1.554c-0.592-0.185-1.209-0.315-1.835-0.396
		c-0.153-0.018-0.313-0.037-0.47-0.049l-0.423-0.037c-0.287-0.021-0.559-0.036-0.837-0.047c-1.105-0.045-2.188-0.029-3.255,0.011
		c-2.132,0.085-4.217,0.288-6.271,0.54c-2.059,0.244-4.089,0.535-6.107,0.826l-5.981,0.904c-1.972,0.293-3.927,0.551-5.795,0.743
		c-0.928,0.106-1.825,0.24-2.648,0.356c-0.412,0.06-0.802,0.111-1.145,0.15l-0.25,0.023l-0.114,0.009l-0.052,0.004
		c-0.078,0.002,0.047,0.002-0.002,0.002l-0.31,0.011h-0.06h-0.091c-0.528-0.004-0.928-0.109-1.209-0.235
		c-0.286-0.132-0.485-0.283-0.708-0.537c-0.217-0.248-0.445-0.626-0.635-1.125c-0.191-0.489-0.338-1.097-0.41-1.735
		c-0.004-0.025-0.004-0.056-0.007-0.085c-0.002,0.015-0.013,0.035-0.015,0.048C67.021,140.553,67.01,140.613,67.005,140.661z"/>
	
		<linearGradient id="SVGID_17_" gradientUnits="userSpaceOnUse" x1="350.3623" y1="-243.1284" x2="350.3623" y2="-344.102" gradientTransform="matrix(1 0 0 -1 -269.5996 -186.96)">
		<stop  offset="0" style="stop-color:#2D2B2C"/>
		<stop  offset="1" style="stop-color:#0C0C0C"/>
	</linearGradient>
	<path fill="url(#SVGID_17_)" d="M71.22,113.479c0.49-1.313,1.119-2.617,2.103-3.938c0.499-0.658,1.094-1.326,1.876-1.962
		c0.778-0.633,1.777-1.249,3.034-1.622c0.624-0.188,1.307-0.304,1.996-0.323l0.375-0.003l0.28,0.003l0.479,0.018
		c0.609,0.029,1.157,0.067,1.699,0.115c1.08,0.092,2.111,0.198,3.138,0.313c1.755,0.196,3.493,0.411,5.223,0.633
		c-0.477-0.305-0.923-0.64-1.329-1c-0.16-0.144-0.301-0.3-0.453-0.451c-1.145-0.142-2.284-0.286-3.441-0.415
		c-1.027-0.115-2.059-0.222-3.138-0.313c-0.542-0.048-1.09-0.089-1.699-0.115l-0.479-0.017l-0.28-0.006l-0.375,0.006
		c-0.689,0.019-1.372,0.134-1.996,0.322c-1.257,0.373-2.256,0.989-3.034,1.62c-0.782,0.638-1.378,1.306-1.876,1.966
		c-0.984,1.32-1.612,2.625-2.103,3.938c-0.477,1.311-0.795,2.633-0.973,3.996c-0.121,0.953-0.171,1.931-0.132,2.939
		c0.017-0.576,0.06-1.146,0.132-1.705C70.425,116.111,70.743,114.788,71.22,113.479z"/>
	
		<linearGradient id="SVGID_18_" gradientUnits="userSpaceOnUse" x1="334.252" y1="-243.1328" x2="334.2519" y2="-344.099" gradientTransform="matrix(1 0 0 -1 -269.5996 -186.96)">
		<stop  offset="0" style="stop-color:#2D2B2C"/>
		<stop  offset="1" style="stop-color:#0C0C0C"/>
	</linearGradient>
	<path fill="url(#SVGID_18_)" d="M57.147,139.479c0.052-0.451,0.132-0.886,0.23-1.301c0.4-1.656,1.066-3.042,1.863-4.293
		c0.802-1.246,1.755-2.35,2.88-3.337c1.129-0.976,2.432-1.836,3.977-2.455c0.773-0.308,1.61-0.55,2.492-0.692
		c0.438-0.074,0.893-0.119,1.353-0.135l0.344-0.011l0.336,0.002l0.511,0.019c0.395,0.024,0.752,0.049,1.099,0.072
		c-0.226-0.33-0.431-0.672-0.614-1.01c-0.048-0.091-0.082-0.182-0.125-0.273c-0.122-0.006-0.229-0.016-0.36-0.021l-0.511-0.021
		l-0.336-0.002l-0.344,0.008c-0.46,0.019-0.915,0.063-1.353,0.136c-0.882,0.144-1.719,0.39-2.492,0.694
		c-1.545,0.621-2.848,1.481-3.977,2.457c-1.125,0.982-2.078,2.088-2.88,3.338c-0.797,1.246-1.463,2.633-1.863,4.289
		c-0.098,0.416-0.178,0.853-0.23,1.301l-0.034,0.348c-0.011,0.121-0.02,0.221-0.026,0.381l-0.011,0.342l-0.004,0.31
		c0.002,0.132,0.021,0.265,0.026,0.397c0.004-0.068,0.008-0.133,0.015-0.194L57.147,139.479z"/>
	
		<linearGradient id="SVGID_19_" gradientUnits="userSpaceOnUse" x1="336.5996" y1="-242.2036" x2="336.5996" y2="-345.8318" gradientTransform="matrix(1 0 0 -1 -269.5996 -186.96)">
		<stop  offset="0" style="stop-color:#2D2B2C"/>
		<stop  offset="1" style="stop-color:#0C0C0C"/>
	</linearGradient>
	<path fill="url(#SVGID_19_)" d="M67.001,139.455c0-0.001,0-0.001,0-0.003C66.999,139.486,67.001,139.465,67.001,139.455z"/>
	
		<linearGradient id="SVGID_20_" gradientUnits="userSpaceOnUse" x1="336.5996" y1="-240.9365" x2="336.5996" y2="-344.5647" gradientTransform="matrix(1 0 0 -1 -269.5996 -186.96)">
		<stop  offset="0" style="stop-color:#2D2B2C"/>
		<stop  offset="1" style="stop-color:#0C0C0C"/>
	</linearGradient>
	<path fill="url(#SVGID_20_)" d="M67.001,139.455c0-0.001,0-0.001,0-0.003C66.999,139.486,67.001,139.465,67.001,139.455z"/>
	
		<linearGradient id="SVGID_21_" gradientUnits="userSpaceOnUse" x1="336.5996" y1="-235.4775" x2="336.5996" y2="-347.2205" gradientTransform="matrix(1 0 0 -1 -269.5996 -186.96)">
		<stop  offset="0" style="stop-color:#2D2B2C"/>
		<stop  offset="1" style="stop-color:#0C0C0C"/>
	</linearGradient>
	<path fill="url(#SVGID_21_)" d="M67.001,140.688c0-0.002,0-0.002,0-0.002C66.999,140.723,67.001,140.7,67.001,140.688z"/>
	
		<linearGradient id="SVGID_22_" gradientUnits="userSpaceOnUse" x1="336.5996" y1="-234.1113" x2="336.5996" y2="-345.8543" gradientTransform="matrix(1 0 0 -1 -269.5996 -186.96)">
		<stop  offset="0" style="stop-color:#2D2B2C"/>
		<stop  offset="1" style="stop-color:#0C0C0C"/>
	</linearGradient>
	<path fill="url(#SVGID_22_)" d="M67.001,140.688c0-0.002,0-0.002,0-0.002C66.999,140.723,67.001,140.7,67.001,140.688z"/>
</g>
</svg>
