<?xml version="1.0" encoding="utf-8"?>
<!-- Generator: Adobe Illustrator 15.0.2, SVG Export Plug-In . SVG Version: 6.00 Build 0)  -->
<!DOCTYPE svg PUBLIC "-//W3C//DTD SVG 1.1//EN" "http://www.w3.org/Graphics/SVG/1.1/DTD/svg11.dtd">
<svg version="1.1" id="Calque_1" xmlns="http://www.w3.org/2000/svg" xmlns:xlink="http://www.w3.org/1999/xlink" x="0px" y="0px"
	 width="80px" height="80px" viewBox="0 0 80 80" enable-background="new 0 0 80 80" xml:space="preserve">
<linearGradient id="SVGID_1_" gradientUnits="userSpaceOnUse" x1="322.8057" y1="-325.9141" x2="297.1101" y2="-376.5978" gradientTransform="matrix(1 0 0 -1 -269.5996 -311.96)">
	<stop  offset="0" style="stop-color:#FFFFFE"/>
	<stop  offset="1" style="stop-color:#000000"/>
</linearGradient>
<path fill="url(#SVGID_1_)" d="M10.396,24.205c0-0.777,0.55-1.734,1.223-2.125L38.777,6.293c0.672-0.391,1.773-0.391,2.446,0
	L68.382,22.08c0.675,0.391,1.224,1.348,1.224,2.125v31.59c0,0.777-0.549,1.732-1.224,2.125L41.223,73.706
	c-0.672,0.392-1.772,0.392-2.445,0L11.618,57.92c-0.672-0.393-1.223-1.348-1.223-2.125L10.396,24.205L10.396,24.205z"/>
<linearGradient id="SVGID_2_" gradientUnits="userSpaceOnUse" x1="318.5967" y1="-378.4731" x2="300.747" y2="-326.3405" gradientTransform="matrix(1 0 0 -1 -269.5996 -311.96)">
	<stop  offset="0" style="stop-color:#E8C6B0"/>
	<stop  offset="1" style="stop-color:#EEEBE8"/>
</linearGradient>
<path fill="url(#SVGID_2_)" d="M10.396,24.205c0-0.777,0.55-1.734,1.223-2.125L38.777,6.765c0.672-0.391,1.773-0.391,2.446,0
	l27.158,15.786c0.674,0.392,1.223,1.348,1.223,2.125v30.646c0,0.777-0.549,1.734-1.223,2.125L41.223,73.234
	c-0.672,0.393-1.772,0.393-2.445,0L11.618,57.92c-0.672-0.393-1.223-1.348-1.223-2.125L10.396,24.205L10.396,24.205z"/>
<linearGradient id="SVGID_3_" gradientUnits="userSpaceOnUse" x1="340.9717" y1="-344.7759" x2="316.2199" y2="-354.2052" gradientTransform="matrix(1 0 0 -1 -269.5996 -311.96)">
	<stop  offset="0" style="stop-color:#FFFFFE;stop-opacity:0.75"/>
	<stop  offset="1" style="stop-color:#FFFFFE;stop-opacity:0"/>
</linearGradient>
<path fill="url(#SVGID_3_)" d="M21.76,63.639l17.018,9.596c0.672,0.394,1.773,0.394,2.445,0l27.159-15.785
	c0.675-0.391,1.224-1.348,1.224-2.125V24.677c0-0.778-0.549-1.734-1.224-2.125L50.137,11.946"/>
<linearGradient id="SVGID_4_" gradientUnits="userSpaceOnUse" x1="309.6016" y1="-329.3867" x2="309.6016" y2="-374.8862" gradientTransform="matrix(1 0 0 -1 -269.5996 -311.96)">
	<stop  offset="0" style="stop-color:#808090;stop-opacity:0.05"/>
	<stop  offset="1" style="stop-color:#9595A4;stop-opacity:0.1"/>
</linearGradient>
<path fill="url(#SVGID_4_)" d="M60.326,49.398c-0.131-0.635-0.34-1.238-0.62-1.815c-0.283-0.576-0.638-1.124-1.082-1.631
	c-0.446-0.503-0.985-0.968-1.63-1.328c-0.643-0.36-1.393-0.61-2.157-0.687c-0.192-0.02-0.381-0.028-0.573-0.027l-0.195,0.001
	l-0.2,0.006c-0.261,0.008-0.509,0.021-0.753,0.034c-0.083,0.006-0.164,0.013-0.246,0.02c0.492-0.619,0.788-1.283,0.971-1.896
	c0.194-0.653,0.275-1.27,0.311-1.852c0.009-0.146,0.014-0.29,0.016-0.43l0.001-0.105v-0.151l-0.001-0.042l-0.006-0.121
	c-0.006-0.105-0.014-0.155-0.021-0.225c-0.064-0.515-0.195-0.896-0.336-1.24c-0.285-0.679-0.632-1.206-1.021-1.702
	c-0.395-0.491-0.838-0.936-1.368-1.339c-0.534-0.398-1.159-0.771-1.981-0.993c-0.205-0.055-0.424-0.098-0.652-0.124
	c-0.225-0.027-0.486-0.034-0.688-0.023c-0.388,0.019-0.653,0.06-0.925,0.101c-0.527,0.083-0.997,0.182-1.466,0.283
	c-0.929,0.204-1.821,0.422-2.708,0.641l-1.321,0.327c-0.438,0.107-0.873,0.218-1.309,0.308c-0.435,0.092-0.871,0.168-1.294,0.256
	c-0.42,0.088-0.835,0.191-1.206,0.293l-0.465,0.124c-0.024,0.007-0.043,0.012-0.046,0.018c-0.033,0.001,0.046,0.003,0.02,0.004
	l-0.043,0.003c-0.043,0.003-0.019,0.003-0.017,0.007c-0.005,0.011-0.043,0.017-0.065,0.024c-0.095,0.024-0.214,0.024-0.364-0.041
	c-0.146-0.063-0.315-0.191-0.462-0.376c-0.149-0.184-0.275-0.42-0.366-0.685c-0.046-0.132-0.082-0.272-0.106-0.417l-0.01-0.055
	c-0.002-0.034-0.003,0.016-0.004-0.006l-0.004-0.042l-0.003-0.042l-0.002-0.01c-0.002-0.006-0.005-0.01-0.007-0.028
	c-0.007-0.056-0.011-0.116-0.011-0.177c-0.001-0.112,0.013-0.233,0.034-0.357c0.084-0.367,0.51-1.489,2.647-1.489
	c2.559,0,5.061-3.089,5.061-4.261s1.332-4.474,1.332-5.167c-0.002-0.693-1.547-5.167-3.305-5.167c-1.757,0-2.929,4.368-2.929,5.459
	c0,1.091,1.197,3.116,1.197,4.021c0,0.905-0.719,1.651-2.902,1.651c-2.185,0-5.956,3.264-4.123,7.998v-0.001
	c0.065,0.189,0.141,0.378,0.228,0.564c0.288,0.611,0.701,1.203,1.264,1.703c0.184,0.163,0.384,0.313,0.599,0.45
	c-0.778-0.099-1.562-0.196-2.353-0.285c-0.463-0.051-0.929-0.1-1.414-0.141c-0.245-0.021-0.492-0.04-0.767-0.052l-0.215-0.007
	l-0.125-0.002l-0.169,0.002c-0.311,0.009-0.619,0.061-0.9,0.146c-0.566,0.168-1.016,0.446-1.367,0.731
	c-0.352,0.287-0.62,0.587-0.845,0.884c-0.444,0.597-0.727,1.185-0.948,1.774c-0.214,0.591-0.358,1.188-0.438,1.802
	c-0.079,0.612-0.096,1.246-0.017,1.911c0.082,0.664,0.257,1.371,0.634,2.082c0.083,0.152,0.175,0.307,0.277,0.455
	c-0.156-0.01-0.317-0.021-0.495-0.031l-0.23-0.01h-0.152l-0.156,0.004c-0.207,0.008-0.412,0.027-0.609,0.062
	c-0.397,0.063-0.774,0.175-1.123,0.313c-0.697,0.279-1.284,0.666-1.792,1.105c-0.507,0.444-0.936,0.942-1.298,1.504
	c-0.359,0.563-0.659,1.188-0.839,1.936c-0.044,0.188-0.081,0.383-0.104,0.586l-0.016,0.156c-0.005,0.054-0.009,0.1-0.012,0.172
	l-0.005,0.154l-0.002,0.139c0.003,0.312,0.022,0.619,0.059,0.926c0.073,0.613,0.211,1.23,0.448,1.855
	c0.238,0.623,0.584,1.258,1.08,1.832c0.493,0.573,1.141,1.067,1.839,1.383c0.699,0.32,1.418,0.475,2.084,0.539l0.127,0.011
	l0.143,0.008l0.202,0.011l0.263,0.004l0.229-0.004c0.298-0.006,0.574-0.027,0.839-0.057c0.529-0.061,1.019-0.154,1.491-0.277
	c0.939-0.26,1.824-0.56,2.7-0.854l2.589-0.894c1.704-0.601,3.399-1.179,5.072-1.609c0.418-0.104,0.835-0.197,1.241-0.266
	l0.301-0.046l0.151-0.021c0.042-0.006,0.085-0.01,0.127-0.014c0.17-0.017,0.346-0.019,0.521-0.007
	c0.71,0.044,1.463,0.353,2.155,0.818c0.701,0.462,1.347,1.069,1.937,1.733c0.297,0.334,0.577,0.688,0.847,1.049
	c0.27,0.363,0.525,0.74,0.76,1.133c-0.258-0.879-0.613-1.734-1.049-2.563c-0.438-0.826-0.967-1.623-1.644-2.346
	c-0.343-0.357-0.726-0.691-1.157-0.984c-0.434-0.291-0.921-0.537-1.455-0.699c-0.267-0.084-0.545-0.145-0.826-0.18
	c-0.069-0.009-0.141-0.017-0.211-0.021l-0.191-0.017c-0.129-0.011-0.252-0.018-0.377-0.021c-0.499-0.021-0.986-0.016-1.466,0.005
	c-0.962,0.037-1.901,0.129-2.827,0.243c-0.927,0.109-1.843,0.24-2.752,0.372l-2.695,0.407c-0.888,0.132-1.77,0.248-2.611,0.334
	c-0.418,0.05-0.822,0.109-1.193,0.162c-0.185,0.026-0.361,0.049-0.516,0.066l-0.112,0.012L25.6,57.061l-0.023,0.002
	c-0.036,0,0.021,0.002-0.001,0.002l-0.139,0.002l-0.027,0.002h-0.042c-0.238-0.002-0.417-0.049-0.544-0.106
	c-0.129-0.06-0.218-0.128-0.319-0.241c-0.098-0.113-0.201-0.281-0.287-0.507c-0.085-0.221-0.152-0.495-0.184-0.782
	c-0.018-0.143-0.026-0.289-0.027-0.431c0,0.002,0-0.007,0-0.015v-0.019c0-0.011,0-0.038,0-0.032v0.017c-0.001,0.016,0,0.006,0,0.001
	c0-0.002,0.001-0.01,0.002-0.014c0.002-0.021,0.007-0.049,0.016-0.082c0.03-0.137,0.118-0.348,0.248-0.545
	c0.128-0.201,0.296-0.396,0.473-0.551c0.177-0.152,0.363-0.266,0.509-0.322c0.073-0.029,0.136-0.047,0.186-0.055
	c0.025-0.005,0.047-0.006,0.066-0.006h0.033l0.109,0.002c0.179,0.01,0.397,0.026,0.612,0.043l0.657,0.057
	c1.776,0.16,3.584,0.349,5.384,0.533c3.607,0.371,7.22,0.75,10.84,1.106c1.811,0.179,3.623,0.351,5.442,0.512
	c0.911,0.079,1.821,0.154,2.739,0.224c0.919,0.068,1.838,0.131,2.792,0.172c0.237,0.012,0.481,0.02,0.729,0.023l0.189,0.002h0.219
	h0.086l0.141-0.006c0.103-0.002,0.176-0.007,0.268-0.015c0.688-0.056,1.458-0.229,2.201-0.638c0.369-0.205,0.723-0.465,1.033-0.771
	c0.31-0.307,0.574-0.654,0.781-1.016c0.418-0.728,0.611-1.486,0.682-2.192C60.512,50.708,60.455,50.037,60.326,49.398z
	 M49.689,39.593v0.027c0,0.002,0,0.003,0,0.002v0.004C49.689,39.614,49.689,39.574,49.689,39.593z M41.404,39.761
	c0.894-0.237,1.781-0.444,2.656-0.664c0.873-0.216,1.744-0.429,2.588-0.614c0.418-0.09,0.838-0.176,1.205-0.234
	c0.174-0.028,0.354-0.048,0.424-0.051c0.004,0,0.005,0.001,0.01,0.002c0.055,0.012,0.236,0.092,0.426,0.238
	c0.193,0.145,0.396,0.345,0.569,0.562c0.173,0.213,0.319,0.458,0.384,0.618c0.012,0.024,0.018,0.045,0.023,0.062l-0.002,0.038
	c0,0.086-0.004,0.169-0.008,0.25c-0.019,0.322-0.064,0.612-0.132,0.828c-0.063,0.218-0.144,0.347-0.182,0.392
	c-0.044,0.043-0.037,0.043-0.122,0.076c-0.042,0.014-0.105,0.03-0.195,0.039c-0.021,0.004-0.048,0.004-0.07,0.006h-0.021
	c-0.008,0,0,0.004-0.038,0.004l-0.113,0.002l-0.121-0.006c-0.36-0.011-0.795-0.045-1.223-0.084c-0.43-0.041-0.867-0.088-1.309-0.139
	c-0.885-0.1-1.775-0.21-2.67-0.325l-4.004-0.53c0.191-0.034,0.381-0.072,0.567-0.113C40.512,40.01,40.96,39.879,41.404,39.761z
	 M30.107,44.234c0.087-0.24,0.202-0.457,0.297-0.592c0.146,0.008,0.303,0.02,0.462,0.034c0.418,0.034,0.854,0.081,1.293,0.128
	c1.76,0.199,3.557,0.44,5.351,0.68l5.231,0.692c-2.896,0.394-5.782,0.787-8.636,1.101c-0.881,0.095-1.763,0.181-2.606,0.231
	c-0.21,0.013-0.417,0.023-0.618,0.03l-0.292,0.007l-0.116,0.001l-0.077-0.001c-0.004-0.001-0.006-0.001-0.011-0.001
	c-0.18-0.012-0.26-0.047-0.275-0.059c-0.017-0.012-0.027-0.01-0.081-0.104c-0.05-0.092-0.113-0.273-0.141-0.511
	C29.832,45.4,29.913,44.755,30.107,44.234z M55.988,50.988c-0.018,0.193-0.068,0.33-0.104,0.39c-0.04,0.062-0.046,0.065-0.1,0.101
	c-0.054,0.03-0.185,0.08-0.397,0.097l-0.074,0.005l-0.029,0.001h-0.084l-0.271-0.001c-0.203-0.005-0.414-0.012-0.63-0.021
	c-0.858-0.033-1.75-0.098-2.64-0.162c-0.893-0.067-1.788-0.143-2.686-0.221c-1.797-0.156-3.596-0.328-5.396-0.506
	c-1.548-0.152-3.093-0.313-4.641-0.468c2.179-0.284,4.341-0.585,6.501-0.872c1.793-0.238,3.582-0.473,5.352-0.672
	c0.883-0.096,1.766-0.188,2.604-0.239c0.207-0.013,0.412-0.022,0.605-0.028l0.286-0.005c0.032,0,0.071,0.003,0.104,0.005
	c0.137,0.016,0.266,0.055,0.416,0.137c0.295,0.158,0.648,0.539,0.881,1.021C55.923,50.021,56.031,50.596,55.988,50.988z"/>
<g opacity="0.15">
	
		<linearGradient id="SVGID_5_" gradientUnits="userSpaceOnUse" x1="323.1162" y1="-329.3911" x2="323.1162" y2="-374.8813" gradientTransform="matrix(1 0 0 -1 -269.5996 -311.96)">
		<stop  offset="0" style="stop-color:#2D2B2C"/>
		<stop  offset="1" style="stop-color:#0C0C0C"/>
	</linearGradient>
	<path fill="url(#SVGID_5_)" d="M53.839,41.52c-0.183,0.61-0.478,1.276-0.971,1.895c0.082-0.006,0.163-0.014,0.245-0.018
		c0.05-0.002,0.102-0.006,0.15-0.008c0.264-0.44,0.447-0.891,0.574-1.313c0.194-0.653,0.275-1.269,0.311-1.852
		c0.009-0.146,0.014-0.29,0.016-0.43l0.001-0.105v-0.151l-0.001-0.042l-0.006-0.107c-0.002,0.093-0.004,0.186-0.01,0.279
		C54.113,40.249,54.033,40.865,53.839,41.52z"/>
	
		<linearGradient id="SVGID_6_" gradientUnits="userSpaceOnUse" x1="317.0674" y1="-329.377" x2="317.0674" y2="-374.8903" gradientTransform="matrix(1 0 0 -1 -269.5996 -311.96)">
		<stop  offset="0" style="stop-color:#2D2B2C"/>
		<stop  offset="1" style="stop-color:#0C0C0C"/>
	</linearGradient>
	<path fill="url(#SVGID_6_)" d="M38.937,49.646c0.791,0.08,1.579,0.158,2.368,0.238c1.379-0.187,2.76-0.371,4.133-0.555
		c1.793-0.238,3.584-0.473,5.353-0.672c0.883-0.096,1.767-0.188,2.603-0.239c0.209-0.013,0.414-0.022,0.606-0.028l0.286-0.005
		c0.033,0,0.07,0.003,0.104,0.005c0.137,0.016,0.268,0.055,0.416,0.137c0.295,0.158,0.649,0.539,0.883,1.021
		c0.153,0.309,0.246,0.654,0.285,0.971c0.006-0.03,0.014-0.053,0.016-0.086c0.044-0.394-0.064-0.968-0.301-1.44
		c-0.232-0.481-0.588-0.861-0.883-1.021c-0.148-0.082-0.279-0.121-0.416-0.138c-0.033-0.002-0.07-0.005-0.104-0.005l-0.286,0.004
		c-0.192,0.007-0.397,0.018-0.606,0.029c-0.836,0.054-1.72,0.145-2.603,0.24c-1.769,0.197-3.56,0.434-5.353,0.672
		C43.277,49.063,41.115,49.361,38.937,49.646z"/>
	
		<linearGradient id="SVGID_7_" gradientUnits="userSpaceOnUse" x1="295.4805" y1="-329.3828" x2="295.4805" y2="-374.889" gradientTransform="matrix(1 0 0 -1 -269.5996 -311.96)">
		<stop  offset="0" style="stop-color:#2D2B2C"/>
		<stop  offset="1" style="stop-color:#0C0C0C"/>
	</linearGradient>
	<path fill="url(#SVGID_7_)" d="M26.083,47.934c-0.377-0.711-0.552-1.418-0.634-2.082c-0.024-0.199-0.037-0.395-0.043-0.588
		c-0.014,0.372-0.002,0.752,0.043,1.145c0.077,0.625,0.244,1.289,0.578,1.959c0.113,0.008,0.229,0.014,0.333,0.021
		C26.259,48.238,26.166,48.086,26.083,47.934z"/>
	
		<linearGradient id="SVGID_8_" gradientUnits="userSpaceOnUse" x1="305.9072" y1="-329.3853" x2="305.9072" y2="-374.8848" gradientTransform="matrix(1 0 0 -1 -269.5996 -311.96)">
		<stop  offset="0" style="stop-color:#2D2B2C"/>
		<stop  offset="1" style="stop-color:#0C0C0C"/>
	</linearGradient>
	<path fill="url(#SVGID_8_)" d="M30.404,43.643c0.146,0.01,0.303,0.021,0.462,0.035c0.418,0.034,0.854,0.081,1.293,0.129
		c1.76,0.198,3.557,0.439,5.351,0.68l3.142,0.414c0.697-0.092,1.392-0.185,2.089-0.277L37.51,43.93
		c-1.794-0.238-3.591-0.479-5.351-0.679c-0.439-0.048-0.875-0.094-1.293-0.129c-0.16-0.015-0.317-0.024-0.462-0.035
		c-0.096,0.136-0.21,0.353-0.297,0.593c-0.189,0.506-0.268,1.125-0.219,1.594c0.028-0.347,0.098-0.715,0.219-1.037
		C30.194,43.994,30.309,43.777,30.404,43.643z"/>
	
		<linearGradient id="SVGID_9_" gradientUnits="userSpaceOnUse" x1="314.1875" y1="-329.3911" x2="314.1875" y2="-374.8796" gradientTransform="matrix(1 0 0 -1 -269.5996 -311.96)">
		<stop  offset="0" style="stop-color:#2D2B2C"/>
		<stop  offset="1" style="stop-color:#0C0C0C"/>
	</linearGradient>
	<path fill="url(#SVGID_9_)" d="M44.061,39.097c0.875-0.216,1.744-0.429,2.588-0.614c0.418-0.09,0.838-0.176,1.205-0.234
		c0.174-0.028,0.354-0.048,0.424-0.051c0.005,0,0.006,0.001,0.011,0.002c0.055,0.012,0.237,0.092,0.426,0.238
		c0.193,0.145,0.397,0.345,0.569,0.562c0.171,0.208,0.313,0.447,0.378,0.605c0.006-0.065,0.017-0.125,0.021-0.194
		c0.004-0.081,0.008-0.164,0.008-0.25l0.002-0.038c-0.006-0.017-0.014-0.038-0.023-0.062c-0.063-0.16-0.211-0.405-0.384-0.618
		c-0.173-0.217-0.376-0.417-0.569-0.562c-0.188-0.146-0.371-0.227-0.426-0.238c-0.005-0.001-0.006-0.001-0.01-0.002
		c-0.069,0.002-0.25,0.022-0.424,0.051c-0.367,0.058-0.787,0.144-1.205,0.234c-0.844,0.185-1.715,0.398-2.588,0.614
		c-0.875,0.22-1.764,0.427-2.655,0.664c-0.445,0.119-0.894,0.25-1.357,0.357c-0.187,0.042-0.375,0.079-0.567,0.113l1.505,0.199
		c0.14-0.038,0.279-0.077,0.419-0.113C42.298,39.524,43.186,39.317,44.061,39.097z"/>
	
		<linearGradient id="SVGID_10_" gradientUnits="userSpaceOnUse" x1="319.29" y1="-329.3472" x2="319.2899" y2="-374.9281" gradientTransform="matrix(1 0 0 -1 -269.5996 -311.96)">
		<stop  offset="0" style="stop-color:#2D2B2C"/>
		<stop  offset="1" style="stop-color:#0C0C0C"/>
	</linearGradient>
	<path fill="url(#SVGID_10_)" d="M49.689,39.065c0,0.001,0,0,0-0.002v-0.027c0-0.019,0,0.021,0,0.033V39.065z"/>
	
		<linearGradient id="SVGID_11_" gradientUnits="userSpaceOnUse" x1="311.4609" y1="-328.8301" x2="311.4609" y2="-374.3276" gradientTransform="matrix(1 0 0 -1 -269.5996 -311.96)">
		<stop  offset="0" style="stop-color:#2D2B2C"/>
		<stop  offset="1" style="stop-color:#0C0C0C"/>
	</linearGradient>
	<path fill="url(#SVGID_11_)" d="M41.674,17.797c1.604,0,3.025,3.714,3.266,4.895c0.022-0.115,0.039-0.215,0.039-0.284
		c-0.002-0.693-1.547-5.167-3.305-5.167c-1.757,0-2.929,4.368-2.929,5.459c0,0.068,0.017,0.148,0.025,0.223
		C38.942,21.478,40.06,17.797,41.674,17.797z"/>
	
		<linearGradient id="SVGID_12_" gradientUnits="userSpaceOnUse" x1="305.7871" y1="-328.8296" x2="305.7871" y2="-374.3293" gradientTransform="matrix(1 0 0 -1 -269.5996 -311.96)">
		<stop  offset="0" style="stop-color:#2D2B2C"/>
		<stop  offset="1" style="stop-color:#0C0C0C"/>
	</linearGradient>
	<path fill="url(#SVGID_12_)" d="M37.04,28.929c2.184,0,2.902-0.746,2.902-1.651c0-0.071-0.018-0.159-0.032-0.243
		c-0.159,0.758-0.944,1.338-2.871,1.338c-1.829,0-4.769,2.289-4.601,5.812C32.585,30.979,35.31,28.929,37.04,28.929z"/>
	
		<linearGradient id="SVGID_13_" gradientUnits="userSpaceOnUse" x1="326.2656" y1="-328.8345" x2="326.2656" y2="-374.3265" gradientTransform="matrix(1 0 0 -1 -269.5996 -311.96)">
		<stop  offset="0" style="stop-color:#2D2B2C"/>
		<stop  offset="1" style="stop-color:#0C0C0C"/>
	</linearGradient>
	<path fill="url(#SVGID_13_)" d="M53.113,43.951c0.246-0.014,0.494-0.026,0.754-0.034l0.199-0.006l0.195-0.001
		c0.193-0.001,0.383,0.009,0.574,0.027c0.766,0.074,1.516,0.324,2.157,0.687c0.646,0.36,1.185,0.825,1.63,1.328
		c0.443,0.507,0.799,1.055,1.082,1.631c0.281,0.577,0.488,1.181,0.62,1.815c0.073,0.359,0.118,0.731,0.135,1.113
		c0.022-0.58-0.026-1.137-0.135-1.669c-0.132-0.636-0.339-1.239-0.62-1.817c-0.283-0.575-0.639-1.123-1.082-1.629
		c-0.445-0.504-0.984-0.967-1.63-1.33c-0.642-0.36-1.392-0.61-2.157-0.687c-0.191-0.019-0.381-0.028-0.574-0.026l-0.195,0.002
		l-0.199,0.006c-0.209,0.006-0.406,0.017-0.604,0.027c-0.117,0.195-0.244,0.391-0.396,0.58
		C52.95,43.964,53.031,43.957,53.113,43.951z"/>
	
		<linearGradient id="SVGID_14_" gradientUnits="userSpaceOnUse" x1="314.6348" y1="-328.8306" x2="314.6348" y2="-374.33" gradientTransform="matrix(1 0 0 -1 -269.5996 -311.96)">
		<stop  offset="0" style="stop-color:#2D2B2C"/>
		<stop  offset="1" style="stop-color:#0C0C0C"/>
	</linearGradient>
	<path fill="url(#SVGID_14_)" d="M41.668,34.524c-0.438,0.107-0.873,0.218-1.309,0.308c-0.435,0.092-0.87,0.168-1.293,0.256
		c-0.421,0.088-0.835,0.191-1.206,0.293l-0.465,0.124c-0.024,0.007-0.044,0.012-0.047,0.018c-0.033,0.001,0.047,0.003,0.02,0.004
		l-0.042,0.003c-0.043,0.003-0.019,0.003-0.017,0.007c-0.005,0.011-0.043,0.017-0.064,0.024c-0.096,0.024-0.214,0.024-0.364-0.041
		c-0.146-0.063-0.315-0.191-0.462-0.376c-0.149-0.184-0.275-0.42-0.366-0.685c-0.046-0.132-0.082-0.272-0.107-0.417l-0.01-0.055
		c-0.001-0.034-0.003,0.016-0.004-0.006l-0.001-0.012c-0.014,0.092-0.027,0.185-0.026,0.27c0,0.062,0.004,0.122,0.011,0.177
		c0.002,0.018,0.005,0.021,0.007,0.028l0.003,0.01l0.003,0.042l0.004,0.042c0.001,0.022,0.003-0.028,0.004,0.006l0.01,0.055
		c0.025,0.145,0.061,0.285,0.107,0.417c0.091,0.265,0.217,0.501,0.366,0.685c0.146,0.185,0.315,0.313,0.462,0.376
		c0.15,0.065,0.269,0.064,0.364,0.041c0.021-0.007,0.059-0.013,0.064-0.024c-0.001-0.003-0.026-0.004,0.017-0.007l0.042-0.003
		c0.027-0.001-0.053-0.002-0.02-0.004c0.003-0.006,0.023-0.011,0.047-0.018l0.465-0.124c0.37-0.102,0.785-0.205,1.206-0.293
		c0.423-0.087,0.858-0.164,1.293-0.256c0.436-0.09,0.871-0.201,1.309-0.308l1.321-0.327c0.887-0.218,1.779-0.437,2.707-0.641
		c0.47-0.101,0.939-0.199,1.467-0.283c0.271-0.041,0.537-0.082,0.925-0.101c0.202-0.011,0.464-0.004,0.688,0.023
		c0.229,0.026,0.447,0.069,0.652,0.124c0.822,0.222,1.447,0.595,1.981,0.993c0.53,0.403,0.974,0.848,1.368,1.339
		c0.391,0.496,0.736,1.023,1.021,1.702c0.142,0.344,0.271,0.725,0.337,1.24c0.008,0.07,0.016,0.12,0.021,0.225v0.014
		c0.002-0.05,0.006-0.101,0.006-0.15l0.001-0.105V38.98l-0.001-0.042l-0.006-0.121c-0.006-0.105-0.014-0.155-0.021-0.225
		c-0.064-0.515-0.195-0.896-0.337-1.24c-0.284-0.679-0.631-1.206-1.021-1.702c-0.396-0.491-0.838-0.936-1.368-1.339
		c-0.534-0.398-1.159-0.771-1.981-0.993c-0.205-0.055-0.424-0.098-0.652-0.124c-0.225-0.027-0.486-0.034-0.688-0.023
		c-0.388,0.019-0.653,0.06-0.925,0.101c-0.527,0.083-0.997,0.182-1.467,0.283c-0.928,0.204-1.82,0.422-2.707,0.641"/>
	
		<linearGradient id="SVGID_15_" gradientUnits="userSpaceOnUse" x1="319.29" y1="-328.7886" x2="319.2899" y2="-374.3695" gradientTransform="matrix(1 0 0 -1 -269.5996 -311.96)">
		<stop  offset="0" style="stop-color:#2D2B2C"/>
		<stop  offset="1" style="stop-color:#0C0C0C"/>
	</linearGradient>
	<path fill="url(#SVGID_15_)" d="M49.689,39.622c0,0.001,0,0,0-0.002v-0.027c0-0.019,0,0.021,0,0.033V39.622z"/>
	
		<linearGradient id="SVGID_16_" gradientUnits="userSpaceOnUse" x1="304.9668" y1="-328.8267" x2="304.9668" y2="-374.3296" gradientTransform="matrix(1 0 0 -1 -269.5996 -311.96)">
		<stop  offset="0" style="stop-color:#2D2B2C"/>
		<stop  offset="1" style="stop-color:#0C0C0C"/>
	</linearGradient>
	<path fill="url(#SVGID_16_)" d="M24.005,54.943c-0.001,0.004-0.002,0.011-0.002,0.013c0,0.006,0,0.012,0,0.017v0.018
		c0,0.008,0,0.017,0,0.015c0.001,0.142,0.01,0.288,0.027,0.431c0.032,0.287,0.099,0.563,0.184,0.782
		c0.086,0.226,0.189,0.394,0.287,0.507c0.101,0.113,0.19,0.183,0.319,0.241c0.127,0.058,0.307,0.104,0.544,0.106h0.042l0.027-0.002
		l0.139-0.002c0.023,0-0.034-0.002,0.001-0.002l0.023-0.002l0.052-0.004l0.112-0.012c0.155-0.018,0.331-0.04,0.516-0.066
		c0.371-0.053,0.775-0.112,1.193-0.162c0.841-0.086,1.723-0.202,2.611-0.334l2.695-0.407c0.91-0.132,1.825-0.263,2.752-0.372
		c0.926-0.114,1.865-0.206,2.827-0.243c0.48-0.021,0.968-0.026,1.466-0.005c0.125,0.005,0.249,0.012,0.378,0.021l0.19,0.017
		c0.072,0.005,0.143,0.013,0.211,0.021c0.282,0.035,0.562,0.097,0.828,0.18c0.533,0.162,1.02,0.408,1.454,0.699
		c0.433,0.293,0.813,0.627,1.157,0.984c0.677,0.723,1.204,1.52,1.643,2.346c0.232,0.44,0.439,0.891,0.623,1.346
		c0.148,0.215,0.293,0.435,0.428,0.66c-0.258-0.879-0.614-1.734-1.051-2.563c-0.438-0.827-0.966-1.624-1.643-2.345
		c-0.344-0.358-0.725-0.692-1.157-0.985c-0.435-0.291-0.921-0.537-1.454-0.699c-0.268-0.084-0.546-0.144-0.828-0.18
		c-0.068-0.008-0.14-0.018-0.211-0.021l-0.19-0.017c-0.129-0.01-0.252-0.017-0.378-0.021c-0.498-0.021-0.985-0.014-1.466,0.005
		c-0.961,0.038-1.9,0.13-2.827,0.243c-0.927,0.109-1.843,0.24-2.752,0.371L30.08,55.93c-0.888,0.133-1.77,0.248-2.611,0.336
		c-0.418,0.047-0.822,0.107-1.193,0.16c-0.185,0.026-0.361,0.051-0.516,0.067l-0.112,0.011l-0.052,0.004l-0.023,0.002
		c-0.036,0.002,0.021,0.002-0.001,0.002l-0.139,0.004h-0.027h-0.042c-0.238-0.002-0.417-0.05-0.544-0.105
		c-0.129-0.061-0.218-0.128-0.319-0.242c-0.098-0.111-0.201-0.281-0.287-0.507c-0.085-0.222-0.152-0.494-0.184-0.782
		c-0.002-0.012-0.002-0.025-0.003-0.038c-0.001,0.007-0.006,0.017-0.007,0.021C24.012,54.895,24.007,54.922,24.005,54.943z"/>
	
		<linearGradient id="SVGID_17_" gradientUnits="userSpaceOnUse" x1="299.8027" y1="-328.8291" x2="299.8027" y2="-374.3313" gradientTransform="matrix(1 0 0 -1 -269.5996 -311.96)">
		<stop  offset="0" style="stop-color:#2D2B2C"/>
		<stop  offset="1" style="stop-color:#0C0C0C"/>
	</linearGradient>
	<path fill="url(#SVGID_17_)" d="M25.904,42.693c0.221-0.592,0.503-1.18,0.948-1.774c0.225-0.297,0.493-0.598,0.845-0.884
		c0.351-0.285,0.801-0.563,1.367-0.731c0.281-0.085,0.589-0.137,0.9-0.146l0.169-0.002l0.125,0.002l0.215,0.007
		c0.275,0.013,0.521,0.031,0.767,0.052c0.485,0.041,0.951,0.09,1.414,0.141c0.791,0.089,1.574,0.186,2.353,0.285
		c-0.214-0.137-0.415-0.288-0.598-0.45c-0.072-0.064-0.136-0.135-0.205-0.203c-0.515-0.064-1.028-0.129-1.55-0.188
		c-0.463-0.051-0.929-0.1-1.414-0.141c-0.245-0.021-0.492-0.04-0.767-0.052l-0.215-0.007L30.133,38.6l-0.169,0.002
		c-0.311,0.009-0.619,0.061-0.9,0.146c-0.566,0.168-1.016,0.446-1.367,0.731c-0.352,0.287-0.62,0.588-0.845,0.885
		c-0.444,0.596-0.727,1.184-0.948,1.775c-0.214,0.59-0.358,1.187-0.438,1.801c-0.055,0.43-0.078,0.869-0.06,1.324
		c0.009-0.26,0.028-0.517,0.06-0.769C25.546,43.881,25.69,43.284,25.904,42.693z"/>
	
		<linearGradient id="SVGID_18_" gradientUnits="userSpaceOnUse" x1="292.5439" y1="-328.8311" x2="292.5439" y2="-374.331" gradientTransform="matrix(1 0 0 -1 -269.5996 -311.96)">
		<stop  offset="0" style="stop-color:#2D2B2C"/>
		<stop  offset="1" style="stop-color:#0C0C0C"/>
	</linearGradient>
	<path fill="url(#SVGID_18_)" d="M19.563,54.411c0.023-0.203,0.06-0.399,0.104-0.586c0.18-0.747,0.479-1.371,0.839-1.935
		c0.362-0.563,0.792-1.061,1.298-1.505c0.508-0.438,1.096-0.827,1.792-1.106c0.348-0.139,0.725-0.247,1.123-0.313
		c0.197-0.033,0.402-0.054,0.609-0.061l0.156-0.006l0.152,0.002l0.23,0.009c0.178,0.011,0.339,0.021,0.495,0.032
		c-0.102-0.149-0.194-0.303-0.277-0.455c-0.021-0.041-0.036-0.082-0.057-0.123c-0.055-0.004-0.103-0.008-0.162-0.01l-0.23-0.01
		h-0.152l-0.156,0.004c-0.207,0.008-0.412,0.027-0.609,0.061c-0.397,0.064-0.774,0.175-1.123,0.313
		c-0.697,0.279-1.284,0.668-1.792,1.106c-0.507,0.442-0.936,0.94-1.298,1.504c-0.359,0.563-0.659,1.187-0.839,1.935
		c-0.044,0.188-0.081,0.383-0.104,0.586l-0.016,0.155c-0.005,0.056-0.009,0.101-0.012,0.173l-0.005,0.153l-0.002,0.14
		c0,0.06,0.01,0.118,0.012,0.18c0.002-0.031,0.004-0.061,0.007-0.088L19.563,54.411z"/>
	
		<linearGradient id="SVGID_19_" gradientUnits="userSpaceOnUse" x1="293.6025" y1="-326.4717" x2="293.6025" y2="-375.5587" gradientTransform="matrix(1 0 0 -1 -269.5996 -311.96)">
		<stop  offset="0" style="stop-color:#2D2B2C"/>
		<stop  offset="1" style="stop-color:#0C0C0C"/>
	</linearGradient>
	<path fill="url(#SVGID_19_)" d="M24.003,54.4c0-0.002,0-0.002,0-0.002C24.002,54.414,24.003,54.404,24.003,54.4z"/>
	
		<linearGradient id="SVGID_20_" gradientUnits="userSpaceOnUse" x1="293.6025" y1="-325.8711" x2="293.6025" y2="-374.9581" gradientTransform="matrix(1 0 0 -1 -269.5996 -311.96)">
		<stop  offset="0" style="stop-color:#2D2B2C"/>
		<stop  offset="1" style="stop-color:#0C0C0C"/>
	</linearGradient>
	<path fill="url(#SVGID_20_)" d="M24.003,54.4c0-0.002,0-0.002,0-0.002C24.002,54.414,24.003,54.404,24.003,54.4z"/>
	
		<linearGradient id="SVGID_21_" gradientUnits="userSpaceOnUse" x1="293.6025" y1="-326.4272" x2="293.6025" y2="-375.5143" gradientTransform="matrix(1 0 0 -1 -269.5996 -311.96)">
		<stop  offset="0" style="stop-color:#2D2B2C"/>
		<stop  offset="1" style="stop-color:#0C0C0C"/>
	</linearGradient>
	<path fill="url(#SVGID_21_)" d="M24.003,54.956C24.003,54.955,24.003,54.955,24.003,54.956
		C24.002,54.971,24.003,54.961,24.003,54.956z"/>
	
		<linearGradient id="SVGID_22_" gradientUnits="userSpaceOnUse" x1="293.6025" y1="-325.8276" x2="293.6025" y2="-374.9147" gradientTransform="matrix(1 0 0 -1 -269.5996 -311.96)">
		<stop  offset="0" style="stop-color:#2D2B2C"/>
		<stop  offset="1" style="stop-color:#0C0C0C"/>
	</linearGradient>
	<path fill="url(#SVGID_22_)" d="M24.003,54.956C24.003,54.955,24.003,54.955,24.003,54.956
		C24.002,54.971,24.003,54.961,24.003,54.956z"/>
</g>
</svg>
