<?xml version="1.0" encoding="utf-8"?>
<!-- Generator: Adobe Illustrator 15.0.2, SVG Export Plug-In . SVG Version: 6.00 Build 0)  -->
<!DOCTYPE svg PUBLIC "-//W3C//DTD SVG 1.1//EN" "http://www.w3.org/Graphics/SVG/1.1/DTD/svg11.dtd">
<svg version="1.1" id="Calque_1" xmlns="http://www.w3.org/2000/svg" xmlns:xlink="http://www.w3.org/1999/xlink" x="0px" y="0px"
	 width="92px" height="56px" viewBox="0 0 92 56" enable-background="new 0 0 92 56" xml:space="preserve">
<linearGradient id="SVGID_1_" gradientUnits="userSpaceOnUse" x1="325.0127" y1="-345.394" x2="306.6969" y2="-381.5215" gradientTransform="matrix(1 0 0 -1 -269.5996 -335.96)">
	<stop  offset="0" style="stop-color:#FFFFFE"/>
	<stop  offset="1" style="stop-color:#000000"/>
</linearGradient>
<path fill="url(#SVGID_1_)" d="M24.898,16.742c0-0.555,0.392-1.237,0.871-1.515L45.128,3.973c0.48-0.279,1.265-0.279,1.744,0
	L66.23,15.227c0.48,0.278,0.871,0.96,0.871,1.515V39.26c0,0.553-0.391,1.234-0.871,1.516l-19.358,11.25
	c-0.479,0.279-1.264,0.279-1.744,0L25.769,40.773c-0.479-0.279-0.871-0.961-0.871-1.515V16.742z"/>
<linearGradient id="SVGID_2_" gradientUnits="userSpaceOnUse" x1="322.0146" y1="-382.8594" x2="309.2904" y2="-345.6967" gradientTransform="matrix(1 0 0 -1 -269.5996 -335.96)">
	<stop  offset="0" style="stop-color:#E8C6B0"/>
	<stop  offset="1" style="stop-color:#EEEBE8"/>
</linearGradient>
<path fill="url(#SVGID_2_)" d="M24.898,16.742c0-0.555,0.392-1.237,0.871-1.515L45.128,4.31c0.48-0.279,1.265-0.279,1.744,0
	L66.23,15.562c0.48,0.28,0.871,0.961,0.871,1.516v21.845c0,0.554-0.391,1.236-0.871,1.517l-19.358,11.25
	c-0.479,0.281-1.264,0.281-1.744,0L25.769,40.773c-0.479-0.279-0.871-0.961-0.871-1.515V16.742z"/>
<linearGradient id="SVGID_3_" gradientUnits="userSpaceOnUse" x1="337.9629" y1="-358.8394" x2="320.3189" y2="-365.5609" gradientTransform="matrix(1 0 0 -1 -269.5996 -335.96)">
	<stop  offset="0" style="stop-color:#FFFFFE;stop-opacity:0.75"/>
	<stop  offset="1" style="stop-color:#FFFFFE;stop-opacity:0"/>
</linearGradient>
<path fill="url(#SVGID_3_)" d="M32.998,44.852l12.13,6.84c0.48,0.279,1.265,0.279,1.744,0L66.23,40.438
	c0.48-0.278,0.871-0.961,0.871-1.516V17.078c0-0.555-0.391-1.236-0.871-1.516L53.227,8.003"/>
<linearGradient id="SVGID_4_" gradientUnits="userSpaceOnUse" x1="315.5986" y1="-347.8691" x2="315.5986" y2="-380.3035" gradientTransform="matrix(1 0 0 -1 -269.5996 -335.96)">
	<stop  offset="0" style="stop-color:#808090;stop-opacity:0.05"/>
	<stop  offset="1" style="stop-color:#9595A4;stop-opacity:0.1"/>
</linearGradient>
<path fill="url(#SVGID_4_)" d="M60.488,34.7c-0.094-0.453-0.24-0.884-0.441-1.294c-0.201-0.411-0.455-0.803-0.771-1.163
	c-0.317-0.359-0.703-0.688-1.162-0.946c-0.456-0.259-0.992-0.438-1.538-0.49c-0.138-0.014-0.271-0.021-0.408-0.02h-0.14
	l-0.143,0.005c-0.188,0.006-0.363,0.015-0.537,0.024c-0.059,0.004-0.117,0.009-0.177,0.014c0.353-0.439,0.563-0.914,0.692-1.352
	c0.139-0.467,0.197-0.904,0.221-1.32c0.006-0.104,0.012-0.206,0.012-0.306v-0.075V27.67v-0.03l-0.004-0.086
	c-0.005-0.075-0.009-0.11-0.015-0.16c-0.048-0.368-0.14-0.639-0.241-0.884c-0.202-0.483-0.449-0.859-0.729-1.213
	c-0.279-0.35-0.598-0.667-0.975-0.954c-0.382-0.284-0.826-0.55-1.414-0.708c-0.146-0.039-0.301-0.07-0.464-0.088
	c-0.161-0.02-0.348-0.024-0.491-0.017c-0.275,0.013-0.466,0.043-0.658,0.072c-0.377,0.059-0.713,0.129-1.045,0.201
	c-0.662,0.145-1.299,0.301-1.932,0.457l-0.941,0.232c-0.312,0.077-0.623,0.156-0.933,0.22c-0.311,0.065-0.621,0.12-0.923,0.182
	c-0.299,0.063-0.595,0.136-0.859,0.209l-0.331,0.088c-0.017,0.005-0.031,0.008-0.033,0.012c-0.023,0.001,0.033,0.002,0.014,0.003
	l-0.031,0.002c-0.031,0.002-0.013,0.003-0.012,0.005c-0.003,0.007-0.031,0.012-0.046,0.017c-0.067,0.017-0.152,0.018-0.259-0.029
	c-0.104-0.044-0.225-0.136-0.33-0.268c-0.105-0.131-0.196-0.3-0.261-0.488c-0.033-0.095-0.059-0.194-0.076-0.298l-0.006-0.039
	c-0.001-0.024-0.003,0.011-0.004-0.004l-0.002-0.03l-0.003-0.03l-0.001-0.006c-0.001-0.004-0.004-0.007-0.005-0.02
	c-0.005-0.04-0.007-0.083-0.007-0.126c-0.001-0.08,0.009-0.167,0.024-0.255c0.06-0.261,0.364-1.061,1.887-1.061
	c1.823,0,3.608-2.202,3.608-3.037c0-0.836,0.948-3.189,0.948-3.684c-0.001-0.494-1.103-3.684-2.354-3.684
	c-1.253,0-2.088,3.114-2.088,3.892s0.854,2.221,0.854,2.867c0,0.645-0.513,1.177-2.069,1.177c-1.558,0-4.246,2.327-2.939,5.701
	v-0.001c0.047,0.135,0.101,0.27,0.163,0.402c0.205,0.436,0.499,0.857,0.9,1.214c0.131,0.116,0.274,0.224,0.427,0.321
	c-0.555-0.071-1.113-0.139-1.677-0.203c-0.331-0.037-0.662-0.071-1.009-0.101c-0.174-0.015-0.35-0.028-0.546-0.038L39.056,27.4
	l-0.089-0.001L38.846,27.4c-0.222,0.006-0.441,0.043-0.642,0.104c-0.404,0.12-0.724,0.318-0.975,0.521
	c-0.251,0.204-0.442,0.418-0.602,0.629c-0.317,0.426-0.519,0.845-0.676,1.266c-0.152,0.421-0.255,0.848-0.313,1.284
	c-0.057,0.438-0.068,0.889-0.012,1.362c0.059,0.474,0.184,0.978,0.452,1.484c0.059,0.108,0.125,0.217,0.197,0.324
	c-0.111-0.007-0.226-0.016-0.353-0.023l-0.164-0.006H35.65l-0.111,0.004c-0.147,0.004-0.294,0.02-0.434,0.043
	c-0.284,0.045-0.552,0.123-0.8,0.223c-0.497,0.199-0.916,0.476-1.278,0.787c-0.361,0.318-0.667,0.674-0.925,1.074
	c-0.256,0.399-0.47,0.846-0.598,1.377c-0.032,0.135-0.058,0.273-0.074,0.42l-0.011,0.11c-0.003,0.038-0.006,0.07-0.008,0.122
	l-0.004,0.109l-0.001,0.099c0.002,0.224,0.016,0.44,0.042,0.66c0.052,0.438,0.15,0.878,0.319,1.323
	c0.17,0.443,0.417,0.896,0.77,1.306c0.352,0.41,0.814,0.763,1.312,0.986c0.499,0.228,1.011,0.338,1.485,0.384l0.091,0.007
	l0.102,0.007l0.144,0.008l0.187,0.002l0.163-0.002c0.213-0.006,0.41-0.021,0.598-0.041c0.377-0.043,0.726-0.109,1.063-0.197
	c0.669-0.186,1.3-0.399,1.924-0.609l1.845-0.637c1.215-0.428,2.423-0.84,3.616-1.146c0.298-0.074,0.595-0.141,0.884-0.188
	l0.215-0.032l0.108-0.016c0.03-0.004,0.061-0.006,0.09-0.01c0.122-0.011,0.248-0.012,0.371-0.004
	c0.509,0.031,1.043,0.25,1.539,0.584c0.498,0.328,0.957,0.762,1.379,1.235c0.211,0.237,0.41,0.487,0.604,0.747
	c0.191,0.26,0.374,0.527,0.542,0.809c-0.185-0.628-0.438-1.236-0.749-1.826c-0.313-0.59-0.688-1.158-1.171-1.672
	c-0.244-0.257-0.517-0.494-0.825-0.703c-0.308-0.207-0.656-0.383-1.035-0.498c-0.19-0.061-0.39-0.104-0.59-0.127
	c-0.049-0.006-0.1-0.013-0.15-0.016l-0.136-0.014c-0.093-0.006-0.181-0.012-0.27-0.016c-0.355-0.015-0.702-0.01-1.044,0.004
	c-0.686,0.025-1.355,0.093-2.015,0.174c-0.661,0.078-1.313,0.171-1.962,0.266l-1.921,0.29c-0.633,0.095-1.261,0.177-1.861,0.239
	c-0.298,0.033-0.585,0.078-0.851,0.113c-0.131,0.021-0.257,0.035-0.368,0.049l-0.08,0.009l-0.037,0.003l-0.016,0.001
	c-0.025,0,0.016,0.002-0.001,0.002l-0.099,0.001l-0.019,0.002h-0.03c-0.169-0.002-0.297-0.036-0.388-0.077
	c-0.092-0.042-0.156-0.091-0.228-0.173c-0.07-0.079-0.143-0.199-0.204-0.359c-0.061-0.158-0.109-0.354-0.131-0.558
	c-0.013-0.104-0.019-0.207-0.02-0.308c0,0,0-0.006,0-0.012v-0.013c0-0.007,0-0.026,0-0.022v0.012c0,0.011,0,0.005,0,0
	c0-0.001,0.001-0.006,0.001-0.01c0.001-0.015,0.005-0.034,0.011-0.059c0.022-0.097,0.084-0.248,0.177-0.389
	c0.091-0.143,0.211-0.282,0.337-0.393c0.126-0.108,0.259-0.188,0.363-0.229c0.052-0.021,0.097-0.033,0.133-0.039
	c0.018-0.003,0.033-0.005,0.047-0.005h0.023l0.078,0.002c0.127,0.007,0.283,0.019,0.436,0.03l0.469,0.039
	c1.266,0.115,2.555,0.248,3.837,0.383c2.572,0.264,5.147,0.533,7.729,0.787c1.291,0.128,2.582,0.25,3.881,0.363
	c0.648,0.059,1.297,0.11,1.951,0.16c0.654,0.049,1.312,0.094,1.99,0.122c0.17,0.009,0.344,0.015,0.521,0.019l0.135,0.002h0.156
	h0.063l0.1-0.006c0.072,0,0.125-0.004,0.189-0.01c0.489-0.039,1.041-0.162,1.569-0.455c0.263-0.146,0.515-0.332,0.735-0.55
	s0.41-0.466,0.558-0.724c0.298-0.518,0.437-1.061,0.485-1.563C60.62,35.633,60.581,35.154,60.488,34.7z M52.907,27.709v0.019
	c0,0.002,0,0.002,0,0.001v0.004C52.907,27.725,52.907,27.696,52.907,27.709z M47.001,27.83c0.638-0.169,1.271-0.317,1.894-0.474
	c0.623-0.154,1.244-0.306,1.846-0.438c0.298-0.064,0.598-0.125,0.857-0.167c0.125-0.02,0.254-0.035,0.303-0.036
	c0.004,0,0.004,0,0.009,0.001c0.038,0.008,0.168,0.065,0.302,0.169c0.139,0.104,0.283,0.246,0.407,0.401
	c0.123,0.152,0.228,0.327,0.272,0.441c0.008,0.017,0.014,0.032,0.018,0.044l-0.001,0.026c0,0.062-0.003,0.121-0.007,0.179
	c-0.014,0.229-0.045,0.436-0.094,0.59c-0.045,0.154-0.102,0.246-0.129,0.277c-0.031,0.03-0.027,0.032-0.088,0.057
	c-0.029,0.009-0.076,0.021-0.139,0.027c-0.016,0.002-0.034,0.004-0.051,0.004h-0.014c-0.007,0,0,0.002-0.029,0.002l-0.08,0.002
	l-0.086-0.004c-0.258-0.009-0.566-0.033-0.871-0.062c-0.307-0.029-0.619-0.062-0.934-0.099c-0.63-0.07-1.266-0.148-1.902-0.231
	l-2.854-0.377c0.137-0.024,0.272-0.051,0.405-0.081C46.365,28.007,46.684,27.914,47.001,27.83z M38.948,31.018
	c0.063-0.17,0.144-0.324,0.212-0.42c0.104,0.006,0.216,0.012,0.33,0.023c0.298,0.025,0.609,0.059,0.922,0.092
	c1.255,0.143,2.535,0.313,3.814,0.484l3.729,0.494c-2.064,0.279-4.122,0.561-6.156,0.783c-0.628,0.067-1.257,0.129-1.858,0.164
	c-0.149,0.01-0.297,0.019-0.44,0.022l-0.208,0.004l-0.082,0.002l-0.055-0.002c-0.003,0-0.004,0-0.007,0
	c-0.128-0.009-0.186-0.033-0.197-0.041c-0.012-0.009-0.019-0.007-0.057-0.075c-0.036-0.064-0.081-0.193-0.101-0.363
	C38.751,31.852,38.81,31.391,38.948,31.018z M57.396,35.832c-0.014,0.139-0.049,0.236-0.074,0.279
	c-0.029,0.041-0.032,0.047-0.071,0.07c-0.039,0.021-0.131,0.057-0.284,0.068l-0.053,0.003l-0.021,0.001h-0.06l-0.194-0.001
	c-0.146-0.003-0.295-0.008-0.449-0.017c-0.61-0.022-1.246-0.067-1.881-0.114c-0.636-0.049-1.273-0.103-1.914-0.157
	c-1.279-0.111-2.563-0.232-3.846-0.359c-1.104-0.108-2.205-0.224-3.308-0.332c1.554-0.203,3.095-0.42,4.634-0.623
	c1.277-0.17,2.555-0.336,3.814-0.479c0.629-0.067,1.258-0.134,1.855-0.17c0.146-0.011,0.293-0.017,0.432-0.022l0.203-0.002
	c0.023,0,0.053,0.002,0.075,0.004c0.097,0.011,0.188,0.039,0.297,0.098c0.21,0.113,0.462,0.385,0.628,0.729
	C57.352,35.143,57.428,35.552,57.396,35.832z"/>
<g opacity="0.15">
	
		<linearGradient id="SVGID_5_" gradientUnits="userSpaceOnUse" x1="325.2344" y1="-347.873" x2="325.2344" y2="-380.2998" gradientTransform="matrix(1 0 0 -1 -269.5996 -335.96)">
		<stop  offset="0" style="stop-color:#2D2B2C"/>
		<stop  offset="1" style="stop-color:#0C0C0C"/>
	</linearGradient>
	<path fill="url(#SVGID_5_)" d="M55.865,29.082c-0.131,0.436-0.342,0.911-0.693,1.352c0.059-0.004,0.118-0.01,0.178-0.013
		c0.034-0.002,0.07-0.003,0.105-0.005c0.188-0.314,0.318-0.637,0.41-0.938c0.138-0.467,0.195-0.904,0.22-1.32
		c0.006-0.104,0.011-0.206,0.013-0.306v-0.075V27.67v-0.03l-0.005-0.076c-0.002,0.066-0.003,0.132-0.008,0.199
		C56.063,28.178,56.003,28.616,55.865,29.082z"/>
	
		<linearGradient id="SVGID_6_" gradientUnits="userSpaceOnUse" x1="320.9219" y1="-347.8706" x2="320.9219" y2="-380.3011" gradientTransform="matrix(1 0 0 -1 -269.5996 -335.96)">
		<stop  offset="0" style="stop-color:#2D2B2C"/>
		<stop  offset="1" style="stop-color:#0C0C0C"/>
	</linearGradient>
	<path fill="url(#SVGID_6_)" d="M45.242,34.875c0.564,0.059,1.125,0.113,1.688,0.171c0.982-0.133,1.969-0.265,2.946-0.396
		c1.276-0.17,2.556-0.336,3.815-0.479c0.627-0.067,1.258-0.134,1.854-0.17c0.147-0.011,0.293-0.017,0.431-0.022l0.205-0.002
		c0.022,0,0.051,0.002,0.074,0.004c0.098,0.011,0.189,0.039,0.297,0.098c0.211,0.113,0.463,0.385,0.629,0.729
		c0.109,0.219,0.176,0.467,0.203,0.69c0.004-0.021,0.01-0.036,0.012-0.06c0.029-0.283-0.047-0.69-0.215-1.029
		c-0.166-0.344-0.418-0.613-0.629-0.727c-0.107-0.06-0.199-0.086-0.297-0.099c-0.023,0-0.052-0.003-0.074-0.003l-0.205,0.003
		c-0.138,0.004-0.283,0.013-0.431,0.021c-0.599,0.039-1.228,0.104-1.854,0.172c-1.262,0.142-2.539,0.309-3.815,0.479
		C48.337,34.46,46.796,34.673,45.242,34.875z"/>
	
		<linearGradient id="SVGID_7_" gradientUnits="userSpaceOnUse" x1="305.5352" y1="-347.8711" x2="305.5352" y2="-380.3015" gradientTransform="matrix(1 0 0 -1 -269.5996 -335.96)">
		<stop  offset="0" style="stop-color:#2D2B2C"/>
		<stop  offset="1" style="stop-color:#0C0C0C"/>
	</linearGradient>
	<path fill="url(#SVGID_7_)" d="M36.08,33.654c-0.269-0.506-0.394-1.01-0.452-1.482c-0.017-0.143-0.026-0.281-0.031-0.42
		c-0.01,0.266-0.002,0.535,0.031,0.814c0.055,0.445,0.174,0.92,0.412,1.396c0.081,0.006,0.163,0.01,0.238,0.016
		C36.205,33.873,36.139,33.764,36.08,33.654z"/>
	
		<linearGradient id="SVGID_8_" gradientUnits="userSpaceOnUse" x1="312.9688" y1="-347.8657" x2="312.9688" y2="-380.3058" gradientTransform="matrix(1 0 0 -1 -269.5996 -335.96)">
		<stop  offset="0" style="stop-color:#2D2B2C"/>
		<stop  offset="1" style="stop-color:#0C0C0C"/>
	</linearGradient>
	<path fill="url(#SVGID_8_)" d="M39.16,30.598c0.104,0.006,0.216,0.012,0.33,0.023c0.298,0.025,0.609,0.059,0.922,0.092
		c1.255,0.143,2.535,0.313,3.814,0.484l2.241,0.296c0.496-0.065,0.99-0.132,1.488-0.198l-3.729-0.494
		c-1.279-0.17-2.56-0.342-3.814-0.484c-0.313-0.033-0.624-0.065-0.922-0.09c-0.114-0.012-0.226-0.021-0.33-0.025
		c-0.068,0.097-0.15,0.251-0.212,0.421c-0.135,0.36-0.191,0.804-0.156,1.138c0.02-0.248,0.07-0.511,0.156-0.74
		C39.01,30.848,39.092,30.691,39.16,30.598z"/>
	
		<linearGradient id="SVGID_9_" gradientUnits="userSpaceOnUse" x1="318.8691" y1="-347.874" x2="318.8691" y2="-380.2962" gradientTransform="matrix(1 0 0 -1 -269.5996 -335.96)">
		<stop  offset="0" style="stop-color:#2D2B2C"/>
		<stop  offset="1" style="stop-color:#0C0C0C"/>
	</linearGradient>
	<path fill="url(#SVGID_9_)" d="M48.895,27.356c0.623-0.154,1.244-0.306,1.846-0.438c0.298-0.064,0.598-0.125,0.857-0.167
		c0.125-0.02,0.254-0.035,0.303-0.036c0.004,0,0.004,0,0.009,0.001c0.038,0.008,0.168,0.065,0.302,0.169
		c0.139,0.104,0.283,0.246,0.407,0.401c0.12,0.149,0.223,0.318,0.269,0.432c0.004-0.046,0.012-0.089,0.016-0.138
		c0.002-0.057,0.006-0.117,0.006-0.178l0.001-0.026c-0.005-0.013-0.011-0.027-0.019-0.045c-0.045-0.114-0.148-0.289-0.271-0.44
		c-0.124-0.155-0.27-0.298-0.407-0.4c-0.134-0.104-0.265-0.162-0.302-0.17c-0.006,0-0.006-0.001-0.008-0.001
		c-0.051,0.001-0.18,0.016-0.303,0.036c-0.262,0.041-0.562,0.103-0.858,0.167c-0.603,0.132-1.224,0.284-1.845,0.438
		c-0.625,0.157-1.258,0.305-1.895,0.473c-0.316,0.085-0.636,0.179-0.966,0.255c-0.133,0.029-0.268,0.057-0.405,0.081l1.074,0.143
		c0.1-0.027,0.197-0.055,0.297-0.081C47.639,27.661,48.271,27.513,48.895,27.356z"/>
	
		<linearGradient id="SVGID_10_" gradientUnits="userSpaceOnUse" x1="322.5068" y1="-347.7295" x2="322.5068" y2="-380.4542" gradientTransform="matrix(1 0 0 -1 -269.5996 -335.96)">
		<stop  offset="0" style="stop-color:#2D2B2C"/>
		<stop  offset="1" style="stop-color:#0C0C0C"/>
	</linearGradient>
	<path fill="url(#SVGID_10_)" d="M52.907,27.334C52.907,27.334,52.907,27.334,52.907,27.334v-0.021c0-0.013,0,0.016,0,0.024V27.334z
		"/>
	
		<linearGradient id="SVGID_11_" gradientUnits="userSpaceOnUse" x1="316.9258" y1="-347.4731" x2="316.9258" y2="-379.9016" gradientTransform="matrix(1 0 0 -1 -269.5996 -335.96)">
		<stop  offset="0" style="stop-color:#2D2B2C"/>
		<stop  offset="1" style="stop-color:#0C0C0C"/>
	</linearGradient>
	<path fill="url(#SVGID_11_)" d="M47.193,12.173c1.144,0,2.156,2.648,2.328,3.49c0.016-0.082,0.026-0.153,0.026-0.203
		c-0.001-0.494-1.103-3.683-2.354-3.683c-1.253,0-2.088,3.114-2.088,3.892c0,0.048,0.012,0.106,0.018,0.159
		C45.246,14.797,46.042,12.173,47.193,12.173z"/>
	
		<linearGradient id="SVGID_12_" gradientUnits="userSpaceOnUse" x1="312.8828" y1="-347.4731" x2="312.8828" y2="-379.9045" gradientTransform="matrix(1 0 0 -1 -269.5996 -335.96)">
		<stop  offset="0" style="stop-color:#2D2B2C"/>
		<stop  offset="1" style="stop-color:#0C0C0C"/>
	</linearGradient>
	<path fill="url(#SVGID_12_)" d="M43.89,20.108c1.557,0,2.069-0.532,2.069-1.177c0-0.051-0.013-0.114-0.023-0.173
		c-0.113,0.54-0.673,0.954-2.046,0.954c-1.304,0-3.399,1.631-3.279,4.142C40.714,21.57,42.657,20.108,43.89,20.108z"/>
	
		<linearGradient id="SVGID_13_" gradientUnits="userSpaceOnUse" x1="327.4805" y1="-347.4844" x2="327.4805" y2="-379.9007" gradientTransform="matrix(1 0 0 -1 -269.5996 -335.96)">
		<stop  offset="0" style="stop-color:#2D2B2C"/>
		<stop  offset="1" style="stop-color:#0C0C0C"/>
	</linearGradient>
	<path fill="url(#SVGID_13_)" d="M55.35,30.816c0.174-0.01,0.351-0.02,0.537-0.024l0.143-0.005h0.139
		c0.137-0.001,0.271,0.006,0.408,0.02c0.546,0.055,1.082,0.231,1.537,0.49c0.461,0.258,0.846,0.587,1.164,0.946
		c0.314,0.36,0.568,0.752,0.771,1.163c0.202,0.41,0.349,0.841,0.44,1.294c0.054,0.256,0.086,0.521,0.098,0.793
		c0.018-0.414-0.021-0.812-0.098-1.188c-0.092-0.453-0.239-0.884-0.44-1.297c-0.2-0.41-0.455-0.801-0.771-1.16
		c-0.318-0.359-0.703-0.689-1.164-0.947c-0.455-0.258-0.991-0.438-1.537-0.489c-0.137-0.013-0.271-0.021-0.408-0.019h-0.139
		l-0.143,0.004c-0.15,0.004-0.291,0.012-0.432,0.021c-0.083,0.14-0.174,0.276-0.283,0.414C55.23,30.825,55.29,30.82,55.35,30.816z"
		/>
	
		<linearGradient id="SVGID_14_" gradientUnits="userSpaceOnUse" x1="319.1875" y1="-347.4712" x2="319.1875" y2="-379.908" gradientTransform="matrix(1 0 0 -1 -269.5996 -335.96)">
		<stop  offset="0" style="stop-color:#2D2B2C"/>
		<stop  offset="1" style="stop-color:#0C0C0C"/>
	</linearGradient>
	<path fill="url(#SVGID_14_)" d="M47.188,24.097c-0.311,0.076-0.621,0.155-0.932,0.219c-0.311,0.066-0.62,0.121-0.922,0.183
		c-0.3,0.063-0.596,0.136-0.859,0.208l-0.332,0.089c-0.017,0.005-0.031,0.008-0.034,0.013c-0.023,0,0.034,0.002,0.015,0.003
		l-0.031,0.002c-0.03,0.002-0.013,0.002-0.012,0.005c-0.003,0.007-0.031,0.012-0.045,0.017c-0.068,0.017-0.153,0.018-0.26-0.028
		c-0.104-0.046-0.225-0.137-0.33-0.269c-0.105-0.131-0.196-0.299-0.261-0.488c-0.033-0.094-0.059-0.194-0.076-0.297l-0.007-0.04
		c0-0.023-0.002,0.012-0.003-0.003v-0.009c-0.01,0.065-0.02,0.132-0.019,0.192c0,0.043,0.003,0.087,0.007,0.126
		c0.001,0.013,0.004,0.016,0.005,0.02l0.002,0.006l0.002,0.03l0.002,0.03c0.001,0.016,0.002-0.02,0.003,0.004l0.007,0.039
		c0.018,0.104,0.043,0.203,0.076,0.298c0.065,0.188,0.155,0.357,0.261,0.488c0.105,0.131,0.225,0.223,0.33,0.268
		c0.107,0.046,0.191,0.045,0.26,0.029c0.015-0.005,0.042-0.01,0.045-0.017c-0.001-0.002-0.018-0.003,0.012-0.005l0.031-0.002
		c0.019,0-0.038-0.001-0.015-0.003c0.003-0.004,0.017-0.007,0.034-0.012l0.332-0.088c0.263-0.073,0.559-0.146,0.859-0.209
		c0.302-0.063,0.611-0.117,0.922-0.182c0.31-0.064,0.622-0.143,0.933-0.22l0.941-0.232c0.633-0.156,1.27-0.312,1.932-0.457
		c0.332-0.072,0.668-0.142,1.045-0.201c0.192-0.029,0.383-0.059,0.658-0.072c0.145-0.008,0.33-0.003,0.491,0.017
		c0.163,0.018,0.317,0.049,0.464,0.088c0.588,0.158,1.032,0.423,1.414,0.708c0.377,0.288,0.694,0.604,0.975,0.954
		c0.279,0.354,0.525,0.729,0.729,1.213c0.102,0.245,0.193,0.517,0.241,0.884c0.006,0.05,0.01,0.085,0.015,0.16v0.01
		c0.001-0.036,0.004-0.072,0.004-0.107v-0.075v-0.108v-0.031l-0.004-0.086c-0.005-0.075-0.009-0.111-0.015-0.16
		c-0.048-0.368-0.14-0.639-0.241-0.884c-0.202-0.484-0.449-0.859-0.729-1.213c-0.279-0.349-0.598-0.667-0.975-0.954
		c-0.382-0.284-0.826-0.55-1.414-0.708c-0.146-0.04-0.301-0.07-0.464-0.088c-0.161-0.019-0.348-0.024-0.491-0.017
		c-0.275,0.014-0.466,0.043-0.658,0.073c-0.377,0.06-0.713,0.129-1.045,0.201c-0.662,0.146-1.299,0.301-1.932,0.457"/>
	
		<linearGradient id="SVGID_15_" gradientUnits="userSpaceOnUse" x1="322.5068" y1="-347.0347" x2="322.5068" y2="-380.3438" gradientTransform="matrix(1 0 0 -1 -269.5996 -335.96)">
		<stop  offset="0" style="stop-color:#2D2B2C"/>
		<stop  offset="1" style="stop-color:#0C0C0C"/>
	</linearGradient>
	<path fill="url(#SVGID_15_)" d="M52.907,27.73C52.907,27.731,52.907,27.731,52.907,27.73v-0.02c0-0.013,0,0.016,0,0.024V27.73z"/>
	
		<linearGradient id="SVGID_16_" gradientUnits="userSpaceOnUse" x1="312.2988" y1="-347.4692" x2="312.2988" y2="-379.9063" gradientTransform="matrix(1 0 0 -1 -269.5996 -335.96)">
		<stop  offset="0" style="stop-color:#2D2B2C"/>
		<stop  offset="1" style="stop-color:#0C0C0C"/>
	</linearGradient>
	<path fill="url(#SVGID_16_)" d="M34.598,38.65c0,0.004-0.001,0.009-0.001,0.01c0,0.005,0,0.009,0,0.012v0.014
		c0,0.006,0,0.012,0,0.012c0.001,0.1,0.007,0.203,0.02,0.307c0.022,0.204,0.07,0.398,0.131,0.559s0.134,0.279,0.204,0.358
		c0.072,0.082,0.136,0.131,0.228,0.173c0.091,0.041,0.219,0.075,0.388,0.077h0.03l0.019-0.002l0.099-0.001
		c0.017,0-0.024-0.002,0.001-0.002l0.016-0.001l0.037-0.003l0.08-0.008c0.11-0.014,0.236-0.029,0.368-0.049
		c0.265-0.037,0.553-0.08,0.851-0.114c0.601-0.063,1.229-0.146,1.861-0.239l1.921-0.29c0.649-0.095,1.301-0.187,1.962-0.265
		c0.66-0.082,1.329-0.148,2.015-0.176c0.343-0.013,0.69-0.018,1.045-0.002c0.089,0.002,0.177,0.008,0.27,0.015l0.135,0.014
		c0.051,0.003,0.102,0.009,0.151,0.015c0.201,0.024,0.399,0.067,0.59,0.129c0.379,0.115,0.729,0.289,1.035,0.496
		c0.311,0.211,0.582,0.447,0.825,0.703c0.481,0.514,0.858,1.082,1.171,1.672c0.166,0.314,0.314,0.635,0.445,0.959
		c0.105,0.152,0.208,0.311,0.304,0.472c-0.184-0.627-0.438-1.237-0.749-1.826c-0.313-0.59-0.688-1.158-1.171-1.672
		c-0.243-0.255-0.517-0.493-0.825-0.703c-0.308-0.207-0.656-0.382-1.035-0.499c-0.19-0.059-0.39-0.102-0.59-0.126
		c-0.049-0.006-0.1-0.013-0.151-0.017l-0.135-0.012c-0.093-0.008-0.18-0.013-0.27-0.016c-0.355-0.016-0.702-0.01-1.045,0.003
		c-0.686,0.028-1.355,0.093-2.015,0.174c-0.661,0.079-1.313,0.173-1.962,0.267l-1.921,0.289c-0.633,0.096-1.261,0.179-1.861,0.24
		c-0.298,0.033-0.585,0.076-0.851,0.114c-0.131,0.019-0.257,0.035-0.368,0.048l-0.08,0.008l-0.037,0.004h-0.016
		c-0.025,0,0.016,0-0.001,0l-0.099,0.004l-0.019,0.002h-0.03c-0.169-0.002-0.297-0.037-0.388-0.076
		c-0.092-0.043-0.156-0.092-0.228-0.174c-0.07-0.08-0.143-0.201-0.204-0.361c-0.061-0.156-0.109-0.352-0.131-0.559
		c-0.001-0.006-0.001-0.018-0.002-0.025c0,0.005-0.004,0.011-0.005,0.016C34.604,38.616,34.6,38.637,34.598,38.65z"/>
	
		<linearGradient id="SVGID_17_" gradientUnits="userSpaceOnUse" x1="308.6182" y1="-347.4683" x2="308.6182" y2="-379.9102" gradientTransform="matrix(1 0 0 -1 -269.5996 -335.96)">
		<stop  offset="0" style="stop-color:#2D2B2C"/>
		<stop  offset="1" style="stop-color:#0C0C0C"/>
	</linearGradient>
	<path fill="url(#SVGID_17_)" d="M35.952,29.92c0.157-0.421,0.359-0.84,0.676-1.266c0.16-0.211,0.351-0.425,0.602-0.629
		c0.25-0.203,0.571-0.401,0.975-0.521c0.2-0.061,0.42-0.098,0.642-0.104l0.121-0.001l0.089,0.001l0.154,0.005
		c0.196,0.01,0.372,0.023,0.546,0.038c0.347,0.029,0.678,0.064,1.009,0.101c0.563,0.064,1.122,0.132,1.677,0.203
		c-0.153-0.098-0.296-0.206-0.426-0.321c-0.052-0.045-0.098-0.096-0.146-0.145c-0.367-0.045-0.733-0.092-1.104-0.134
		c-0.331-0.037-0.662-0.071-1.009-0.101c-0.174-0.015-0.35-0.028-0.546-0.037l-0.154-0.005l-0.089-0.001l-0.121,0.001
		c-0.222,0.007-0.441,0.043-0.642,0.104c-0.404,0.121-0.724,0.318-0.975,0.521c-0.251,0.205-0.442,0.419-0.602,0.631
		c-0.317,0.424-0.519,0.844-0.676,1.264c-0.152,0.422-0.255,0.847-0.313,1.285c-0.039,0.306-0.055,0.619-0.042,0.943
		c0.006-0.186,0.02-0.368,0.042-0.548C35.697,30.768,35.8,30.341,35.952,29.92z"/>
	
		<linearGradient id="SVGID_18_" gradientUnits="userSpaceOnUse" x1="303.4424" y1="-347.4688" x2="303.4424" y2="-379.9069" gradientTransform="matrix(1 0 0 -1 -269.5996 -335.96)">
		<stop  offset="0" style="stop-color:#2D2B2C"/>
		<stop  offset="1" style="stop-color:#0C0C0C"/>
	</linearGradient>
	<path fill="url(#SVGID_18_)" d="M31.432,38.273c0.017-0.146,0.042-0.285,0.074-0.42c0.128-0.531,0.342-0.978,0.598-1.377
		c0.258-0.4,0.564-0.756,0.925-1.074c0.362-0.313,0.781-0.588,1.278-0.787c0.248-0.1,0.517-0.178,0.8-0.223
		c0.14-0.023,0.287-0.039,0.434-0.043l0.111-0.004h0.108l0.164,0.006c0.127,0.008,0.242,0.018,0.353,0.023
		c-0.073-0.107-0.139-0.216-0.197-0.324c-0.016-0.029-0.026-0.059-0.041-0.088c-0.039-0.002-0.073-0.005-0.115-0.008l-0.164-0.006
		l-0.108-0.001l-0.111,0.003c-0.147,0.006-0.294,0.021-0.434,0.044c-0.284,0.045-0.552,0.125-0.8,0.223
		c-0.497,0.2-0.916,0.476-1.278,0.788c-0.361,0.317-0.667,0.674-0.925,1.073c-0.256,0.399-0.47,0.846-0.598,1.378
		c-0.032,0.134-0.058,0.273-0.074,0.417l-0.011,0.112c-0.003,0.039-0.006,0.07-0.008,0.123l-0.004,0.109l-0.001,0.098
		c0.001,0.043,0.007,0.086,0.008,0.129c0.001-0.022,0.003-0.043,0.005-0.063L31.432,38.273z"/>
	
		<linearGradient id="SVGID_19_" gradientUnits="userSpaceOnUse" x1="304.1973" y1="-347.9731" x2="304.1973" y2="-380.2783" gradientTransform="matrix(1 0 0 -1 -269.5996 -335.96)">
		<stop  offset="0" style="stop-color:#2D2B2C"/>
		<stop  offset="1" style="stop-color:#0C0C0C"/>
	</linearGradient>
	<path fill="url(#SVGID_19_)" d="M34.597,38.266c0,0,0,0,0-0.002C34.596,38.273,34.597,38.268,34.597,38.266z"/>
	
		<linearGradient id="SVGID_20_" gradientUnits="userSpaceOnUse" x1="304.1973" y1="-347.5781" x2="304.1973" y2="-379.8833" gradientTransform="matrix(1 0 0 -1 -269.5996 -335.96)">
		<stop  offset="0" style="stop-color:#2D2B2C"/>
		<stop  offset="1" style="stop-color:#0C0C0C"/>
	</linearGradient>
	<path fill="url(#SVGID_20_)" d="M34.597,38.266c0,0,0,0,0-0.002C34.596,38.273,34.597,38.268,34.597,38.266z"/>
	
		<linearGradient id="SVGID_21_" gradientUnits="userSpaceOnUse" x1="304.1973" y1="-347.6294" x2="304.1973" y2="-380.3541" gradientTransform="matrix(1 0 0 -1 -269.5996 -335.96)">
		<stop  offset="0" style="stop-color:#2D2B2C"/>
		<stop  offset="1" style="stop-color:#0C0C0C"/>
	</linearGradient>
	<path fill="url(#SVGID_21_)" d="M34.597,38.66L34.597,38.66C34.596,38.671,34.597,38.665,34.597,38.66z"/>
	
		<linearGradient id="SVGID_22_" gradientUnits="userSpaceOnUse" x1="304.1973" y1="-347.229" x2="304.1973" y2="-379.9537" gradientTransform="matrix(1 0 0 -1 -269.5996 -335.96)">
		<stop  offset="0" style="stop-color:#2D2B2C"/>
		<stop  offset="1" style="stop-color:#0C0C0C"/>
	</linearGradient>
	<path fill="url(#SVGID_22_)" d="M34.597,38.66L34.597,38.66C34.596,38.671,34.597,38.665,34.597,38.66z"/>
</g>
</svg>
