<?xml version="1.0" encoding="utf-8"?>
<!-- Generator: Adobe Illustrator 15.0.2, SVG Export Plug-In . SVG Version: 6.00 Build 0)  -->
<!DOCTYPE svg PUBLIC "-//W3C//DTD SVG 1.1//EN" "http://www.w3.org/Graphics/SVG/1.1/DTD/svg11.dtd">
<svg version="1.1" id="Calque_1" xmlns="http://www.w3.org/2000/svg" xmlns:xlink="http://www.w3.org/1999/xlink" x="0px" y="0px"
	 width="80px" height="80px" viewBox="0 0 80 80" enable-background="new 0 0 80 80" xml:space="preserve">
<g>
	
		<linearGradient id="SVGID_1_" gradientUnits="userSpaceOnUse" x1="915.4521" y1="-1114.8984" x2="892.7798" y2="-1159.6193" gradientTransform="matrix(1 0 0 -1 -863.7988 -1097.8799)">
		<stop  offset="0" style="stop-color:#FFFFFE"/>
		<stop  offset="1" style="stop-color:#000000"/>
	</linearGradient>
	<path fill="url(#SVGID_1_)" d="M13.879,26.065c0-0.688,0.485-1.531,1.079-1.875l23.964-13.93c0.594-0.346,1.565-0.346,2.159,0
		l23.963,13.93c0.594,0.344,1.079,1.188,1.079,1.875v27.873c0,0.686-0.484,1.529-1.079,1.877L41.08,69.741
		c-0.594,0.346-1.565,0.346-2.159,0L14.958,55.813c-0.593-0.346-1.079-1.189-1.079-1.877V26.065z"/>
	
		<linearGradient id="SVGID_2_" gradientUnits="userSpaceOnUse" x1="911.7383" y1="-1161.2764" x2="895.9877" y2="-1115.2747" gradientTransform="matrix(1 0 0 -1 -863.7988 -1097.8799)">
		<stop  offset="0" style="stop-color:#E8C6B0"/>
		<stop  offset="1" style="stop-color:#EEEBE8"/>
	</linearGradient>
	<path fill="url(#SVGID_2_)" d="M13.879,26.065c0-0.688,0.485-1.531,1.079-1.875l23.964-13.514c0.594-0.345,1.565-0.345,2.159,0
		l23.963,13.929c0.594,0.346,1.079,1.189,1.079,1.876v27.041c0,0.686-0.484,1.529-1.079,1.877L41.08,69.325
		c-0.594,0.349-1.565,0.349-2.159,0L14.958,55.813c-0.593-0.346-1.079-1.189-1.079-1.877V26.065z"/>
	
		<linearGradient id="SVGID_3_" gradientUnits="userSpaceOnUse" x1="931.4834" y1="-1131.542" x2="909.6428" y2="-1139.8622" gradientTransform="matrix(1 0 0 -1 -863.7988 -1097.8799)">
		<stop  offset="0" style="stop-color:#FFFFFE;stop-opacity:0.75"/>
		<stop  offset="1" style="stop-color:#FFFFFE;stop-opacity:0"/>
	</linearGradient>
	<path fill="url(#SVGID_3_)" d="M23.907,60.861l15.015,8.467c0.594,0.346,1.565,0.346,2.159,0l23.963-13.931
		c0.594-0.345,1.079-1.189,1.079-1.877V26.481c0-0.687-0.484-1.531-1.079-1.876l-16.097-9.357"/>
	
		<linearGradient id="SVGID_4_" gradientUnits="userSpaceOnUse" x1="903.7988" y1="-1117.9629" x2="903.7988" y2="-1158.1125" gradientTransform="matrix(1 0 0 -1 -863.7988 -1097.8799)">
		<stop  offset="0" style="stop-color:#808090;stop-opacity:0.05"/>
		<stop  offset="1" style="stop-color:#9595A4;stop-opacity:0.1"/>
	</linearGradient>
	<path fill="url(#SVGID_4_)" d="M57.935,48.296c-0.116-0.562-0.298-1.095-0.547-1.603c-0.25-0.509-0.563-0.993-0.953-1.439
		c-0.393-0.445-0.872-0.853-1.438-1.173c-0.564-0.319-1.228-0.54-1.903-0.606c-0.173-0.016-0.337-0.024-0.505-0.023h-0.175
		l-0.177,0.006c-0.231,0.008-0.45,0.018-0.665,0.029c-0.072,0.006-0.146,0.012-0.219,0.018c0.437-0.545,0.697-1.132,0.857-1.673
		c0.172-0.578,0.244-1.119,0.273-1.634c0.008-0.129,0.016-0.255,0.016-0.379v-0.093v-0.132v-0.037l-0.006-0.107
		c-0.007-0.093-0.011-0.136-0.018-0.198c-0.06-0.456-0.172-0.792-0.298-1.094c-0.251-0.598-0.557-1.063-0.902-1.501
		c-0.346-0.434-0.74-0.826-1.207-1.182c-0.474-0.351-1.021-0.68-1.751-0.876c-0.18-0.048-0.372-0.086-0.574-0.109
		c-0.199-0.024-0.431-0.03-0.606-0.021c-0.341,0.016-0.578,0.054-0.814,0.089c-0.467,0.073-0.884,0.16-1.294,0.249
		c-0.821,0.179-1.609,0.373-2.392,0.564l-1.165,0.288c-0.388,0.094-0.771,0.192-1.156,0.272c-0.385,0.08-0.769,0.148-1.142,0.225
		c-0.37,0.078-0.737,0.168-1.063,0.259l-0.41,0.109c-0.021,0.006-0.039,0.01-0.041,0.015c-0.029,0.001,0.041,0.002,0.017,0.004
		l-0.039,0.002c-0.038,0.002-0.016,0.003-0.015,0.006c-0.004,0.009-0.039,0.015-0.057,0.021c-0.083,0.021-0.188,0.022-0.321-0.035
		c-0.129-0.055-0.279-0.168-0.409-0.333c-0.13-0.163-0.243-0.372-0.323-0.604c-0.042-0.117-0.074-0.24-0.095-0.369l-0.007-0.048
		c-0.001-0.03-0.003,0.014-0.005-0.005l-0.002-0.037l-0.004-0.038l0-0.007c-0.001-0.004-0.005-0.008-0.006-0.025
		c-0.006-0.05-0.008-0.103-0.008-0.156c0-0.099,0.011-0.208,0.03-0.316c0.074-0.323,0.45-1.313,2.335-1.313
		c2.256,0,4.465-2.726,4.465-3.76c0-1.035,1.175-3.947,1.175-4.561c-0.001-0.611-1.365-4.561-2.915-4.561
		c-1.551,0-2.584,3.855-2.584,4.818c0,0.963,1.057,2.75,1.057,3.549c0,0.798-0.635,1.457-2.562,1.457
		c-1.928,0-5.256,2.881-3.638,7.058v-0.001c0.059,0.167,0.125,0.334,0.202,0.498c0.253,0.54,0.618,1.061,1.115,1.502
		c0.162,0.145,0.339,0.278,0.529,0.398c-0.688-0.089-1.378-0.172-2.076-0.251c-0.41-0.046-0.82-0.088-1.25-0.125
		c-0.215-0.019-0.434-0.035-0.676-0.047l-0.188-0.002l-0.11-0.001l-0.149,0.001c-0.275,0.007-0.546,0.053-0.794,0.128
		c-0.5,0.148-0.896,0.394-1.207,0.645c-0.311,0.252-0.547,0.518-0.745,0.779c-0.393,0.527-0.642,1.047-0.836,1.566
		c-0.188,0.521-0.316,1.049-0.388,1.59c-0.07,0.543-0.084,1.101-0.015,1.687c0.073,0.587,0.228,1.209,0.56,1.836
		c0.073,0.134,0.154,0.269,0.244,0.401c-0.137-0.009-0.28-0.021-0.437-0.027l-0.204-0.008h-0.133l-0.138,0.005
		c-0.182,0.004-0.363,0.024-0.537,0.053c-0.352,0.056-0.684,0.152-0.99,0.275c-0.615,0.246-1.134,0.589-1.583,0.975
		c-0.447,0.394-0.826,0.834-1.145,1.33c-0.316,0.493-0.582,1.047-0.74,1.703c-0.04,0.167-0.072,0.337-0.092,0.52l-0.014,0.136
		c-0.004,0.048-0.007,0.087-0.01,0.151l-0.004,0.135l-0.001,0.123c0.003,0.277,0.019,0.544,0.051,0.817
		c0.064,0.541,0.186,1.086,0.396,1.637c0.21,0.549,0.516,1.11,0.954,1.617c0.435,0.508,1.007,0.946,1.625,1.222
		c0.617,0.281,1.251,0.418,1.838,0.475l0.112,0.009l0.126,0.01l0.178,0.01l0.231,0.003l0.202-0.003
		c0.263-0.007,0.507-0.026,0.74-0.051c0.467-0.053,0.898-0.136,1.315-0.243c0.828-0.23,1.609-0.495,2.381-0.755l2.285-0.788
		c1.504-0.529,3-1.041,4.475-1.42c0.37-0.091,0.736-0.174,1.094-0.232l0.266-0.04l0.134-0.021c0.037-0.005,0.075-0.007,0.112-0.012
		c0.151-0.014,0.306-0.015,0.458-0.005c0.632,0.038,1.291,0.31,1.904,0.723c0.616,0.406,1.185,0.943,1.707,1.529
		c0.262,0.293,0.508,0.604,0.749,0.924c0.235,0.322,0.463,0.652,0.671,1.002c-0.23-0.776-0.542-1.53-0.926-2.262
		c-0.39-0.73-0.854-1.434-1.451-2.069c-0.301-0.318-0.641-0.612-1.019-0.87c-0.384-0.257-0.813-0.475-1.282-0.616
		c-0.235-0.075-0.484-0.128-0.731-0.157c-0.062-0.008-0.125-0.017-0.186-0.02l-0.168-0.017c-0.115-0.007-0.224-0.014-0.334-0.019
		c-0.439-0.019-0.87-0.014-1.292,0.005c-0.849,0.03-1.678,0.114-2.494,0.215c-0.819,0.097-1.625,0.211-2.429,0.328l-2.377,0.359
		c-0.784,0.117-1.562,0.218-2.304,0.296c-0.369,0.041-0.724,0.097-1.053,0.141c-0.163,0.025-0.318,0.044-0.456,0.062l-0.099,0.01
		l-0.046,0.005h-0.02c-0.031,0,0.02,0.003-0.001,0.003l-0.122,0.001l-0.023,0.003h-0.038c-0.209-0.003-0.368-0.045-0.48-0.096
		c-0.114-0.052-0.193-0.112-0.282-0.214c-0.087-0.099-0.177-0.247-0.252-0.444c-0.076-0.196-0.135-0.438-0.162-0.691
		c-0.017-0.129-0.023-0.257-0.025-0.381c0,0,0-0.008,0-0.015v-0.017c0-0.009,0-0.03,0-0.026v0.015c0,0.014,0,0.006,0,0
		c0-0.001,0.001-0.007,0.001-0.013c0.001-0.019,0.006-0.041,0.014-0.073c0.027-0.12,0.104-0.307,0.219-0.481
		c0.112-0.178,0.261-0.35,0.417-0.487c0.156-0.133,0.32-0.232,0.449-0.282c0.064-0.026,0.121-0.042,0.166-0.048
		c0.022-0.004,0.04-0.007,0.057-0.007h0.029l0.097,0.003c0.157,0.008,0.35,0.022,0.54,0.037l0.58,0.048
		c1.567,0.143,3.163,0.308,4.75,0.475c3.184,0.326,6.372,0.66,9.567,0.975c1.598,0.157,3.196,0.31,4.805,0.449
		c0.8,0.073,1.605,0.137,2.414,0.198c0.81,0.062,1.624,0.117,2.464,0.15c0.208,0.013,0.424,0.02,0.645,0.023l0.167,0.003h0.193
		h0.077l0.125-0.007c0.089,0,0.155-0.006,0.234-0.014c0.605-0.048,1.288-0.2,1.942-0.563c0.325-0.181,0.638-0.411,0.91-0.682
		c0.271-0.27,0.508-0.576,0.689-0.896c0.369-0.642,0.542-1.314,0.601-1.936C58.098,49.448,58.05,48.858,57.935,48.296z
		 M48.551,39.641v0.024c0,0.002,0,0.002,0,0v0.004C48.551,39.661,48.551,39.625,48.551,39.641z M41.239,39.791
		c0.79-0.209,1.573-0.392,2.344-0.587c0.772-0.19,1.541-0.379,2.287-0.542c0.369-0.08,0.739-0.155,1.061-0.207
		c0.153-0.024,0.313-0.043,0.373-0.045c0.006,0,0.006,0,0.014,0.001c0.045,0.01,0.208,0.081,0.373,0.209
		c0.173,0.129,0.351,0.304,0.504,0.497c0.152,0.188,0.283,0.404,0.336,0.546c0.01,0.021,0.018,0.04,0.023,0.055l-0.002,0.032
		c0,0.077-0.004,0.15-0.01,0.222c-0.017,0.284-0.056,0.541-0.116,0.731c-0.056,0.19-0.126,0.304-0.159,0.343
		c-0.038,0.036-0.034,0.039-0.109,0.07c-0.037,0.012-0.094,0.026-0.172,0.033c-0.019,0.004-0.043,0.006-0.063,0.006h-0.017
		c-0.01,0,0,0.002-0.035,0.002l-0.101,0.003l-0.106-0.005c-0.319-0.012-0.7-0.041-1.078-0.077c-0.38-0.037-0.767-0.078-1.156-0.123
		c-0.78-0.086-1.567-0.184-2.354-0.286l-3.535-0.467c0.17-0.03,0.336-0.063,0.501-0.101C40.453,40.01,40.847,39.894,41.239,39.791z
		 M31.271,43.735c0.078-0.209,0.179-0.401,0.264-0.519c0.128,0.008,0.267,0.015,0.408,0.028c0.369,0.032,0.754,0.073,1.142,0.114
		c1.553,0.176,3.138,0.387,4.721,0.599l4.615,0.611c-2.554,0.347-5.101,0.695-7.62,0.97c-0.778,0.083-1.556,0.161-2.3,0.204
		c-0.185,0.013-0.367,0.022-0.544,0.027l-0.257,0.004l-0.102,0.002l-0.068-0.002c-0.004,0-0.005,0-0.009,0
		c-0.158-0.012-0.23-0.041-0.243-0.051c-0.016-0.011-0.024-0.009-0.072-0.093c-0.045-0.079-0.1-0.237-0.125-0.449
		C31.028,44.769,31.101,44.198,31.271,43.735z M54.108,49.696c-0.019,0.172-0.061,0.293-0.093,0.346
		c-0.036,0.051-0.039,0.058-0.088,0.087c-0.048,0.025-0.162,0.071-0.352,0.083l-0.065,0.004l-0.026,0.002h-0.073l-0.242-0.002
		c-0.18-0.004-0.364-0.01-0.555-0.021c-0.755-0.026-1.543-0.082-2.329-0.141c-0.786-0.061-1.575-0.128-2.367-0.195
		c-1.582-0.136-3.173-0.285-4.762-0.443c-1.364-0.135-2.73-0.277-4.094-0.411c1.924-0.251,3.831-0.52,5.736-0.771
		c1.58-0.209,3.163-0.416,4.722-0.593c0.779-0.083,1.557-0.166,2.295-0.21c0.181-0.015,0.363-0.021,0.536-0.027l0.252-0.003
		c0.028,0,0.064,0.003,0.091,0.005c0.122,0.016,0.233,0.048,0.368,0.122c0.261,0.14,0.572,0.477,0.779,0.903
		C54.053,48.843,54.146,49.35,54.108,49.696z"/>
	<g opacity="0.15">
		
			<linearGradient id="SVGID_5_" gradientUnits="userSpaceOnUse" x1="915.7266" y1="-1117.9673" x2="915.7266" y2="-1158.1091" gradientTransform="matrix(1 0 0 -1 -863.7988 -1097.8799)">
			<stop  offset="0" style="stop-color:#2D2B2C"/>
			<stop  offset="1" style="stop-color:#0C0C0C"/>
		</linearGradient>
		<path fill="url(#SVGID_5_)" d="M52.213,41.341c-0.163,0.539-0.424,1.128-0.858,1.673c0.071-0.006,0.146-0.013,0.22-0.017
			c0.042-0.002,0.087-0.004,0.13-0.006c0.233-0.391,0.394-0.788,0.509-1.161c0.17-0.578,0.241-1.119,0.272-1.634
			c0.006-0.129,0.013-0.255,0.015-0.379v-0.093v-0.133v-0.037l-0.006-0.095c-0.003,0.082-0.003,0.164-0.009,0.247
			C52.457,40.221,52.383,40.765,52.213,41.341z"/>
		
			<linearGradient id="SVGID_6_" gradientUnits="userSpaceOnUse" x1="910.3877" y1="-1117.9668" x2="910.3877" y2="-1158.1086" gradientTransform="matrix(1 0 0 -1 -863.7988 -1097.8799)">
			<stop  offset="0" style="stop-color:#2D2B2C"/>
			<stop  offset="1" style="stop-color:#0C0C0C"/>
		</linearGradient>
		<path fill="url(#SVGID_6_)" d="M39.063,48.513c0.698,0.071,1.393,0.14,2.089,0.211c1.216-0.165,2.438-0.328,3.647-0.489
			c1.578-0.211,3.163-0.417,4.723-0.594c0.776-0.083,1.558-0.166,2.294-0.21c0.182-0.014,0.363-0.021,0.535-0.028l0.253-0.003
			c0.026,0,0.063,0.003,0.091,0.006c0.122,0.015,0.233,0.048,0.369,0.122c0.261,0.139,0.573,0.476,0.778,0.903
			c0.135,0.27,0.218,0.577,0.25,0.853c0.006-0.026,0.014-0.044,0.017-0.075c0.035-0.35-0.059-0.854-0.267-1.272
			c-0.205-0.427-0.518-0.759-0.778-0.9c-0.133-0.074-0.247-0.106-0.369-0.122c-0.027,0-0.064-0.004-0.091-0.004l-0.253,0.004
			c-0.172,0.006-0.351,0.016-0.535,0.025c-0.742,0.048-1.521,0.129-2.294,0.212c-1.562,0.177-3.144,0.384-4.723,0.595
			C42.894,47.997,40.986,48.262,39.063,48.513z"/>
		
			<linearGradient id="SVGID_7_" gradientUnits="userSpaceOnUse" x1="891.3418" y1="-1117.9609" x2="891.3418" y2="-1158.1129" gradientTransform="matrix(1 0 0 -1 -863.7988 -1097.8799)">
			<stop  offset="0" style="stop-color:#2D2B2C"/>
			<stop  offset="1" style="stop-color:#0C0C0C"/>
		</linearGradient>
		<path fill="url(#SVGID_7_)" d="M27.721,47.001c-0.333-0.627-0.488-1.251-0.56-1.836c-0.021-0.176-0.032-0.348-0.038-0.519
			c-0.013,0.328-0.002,0.662,0.038,1.008c0.068,0.55,0.216,1.14,0.51,1.728c0.101,0.007,0.202,0.015,0.295,0.021
			C27.875,47.271,27.794,47.137,27.721,47.001z"/>
		
			<linearGradient id="SVGID_8_" gradientUnits="userSpaceOnUse" x1="900.541" y1="-1117.9536" x2="900.541" y2="-1158.1177" gradientTransform="matrix(1 0 0 -1 -863.7988 -1097.8799)">
			<stop  offset="0" style="stop-color:#2D2B2C"/>
			<stop  offset="1" style="stop-color:#0C0C0C"/>
		</linearGradient>
		<path fill="url(#SVGID_8_)" d="M31.534,43.217c0.128,0.008,0.267,0.015,0.408,0.028c0.369,0.032,0.754,0.073,1.142,0.114
			c1.553,0.176,3.138,0.387,4.721,0.599l2.774,0.366c0.613-0.08,1.227-0.163,1.841-0.244l-4.615-0.612
			c-1.583-0.21-3.168-0.422-4.721-0.6c-0.388-0.039-0.772-0.08-1.142-0.11c-0.141-0.015-0.28-0.025-0.408-0.031
			c-0.085,0.12-0.186,0.311-0.264,0.521c-0.167,0.445-0.236,0.995-0.192,1.408c0.025-0.306,0.086-0.632,0.192-0.915
			C31.348,43.526,31.449,43.333,31.534,43.217z"/>
		
			<linearGradient id="SVGID_9_" gradientUnits="userSpaceOnUse" x1="907.8486" y1="-1117.9824" x2="907.8486" y2="-1158.0879" gradientTransform="matrix(1 0 0 -1 -863.7988 -1097.8799)">
			<stop  offset="0" style="stop-color:#2D2B2C"/>
			<stop  offset="1" style="stop-color:#0C0C0C"/>
		</linearGradient>
		<path fill="url(#SVGID_9_)" d="M43.583,39.204c0.772-0.19,1.541-0.379,2.287-0.542c0.369-0.08,0.739-0.155,1.061-0.207
			c0.153-0.024,0.313-0.043,0.373-0.045c0.006,0,0.006,0,0.014,0.001c0.045,0.01,0.208,0.081,0.373,0.209
			c0.173,0.129,0.351,0.304,0.504,0.497c0.146,0.185,0.275,0.394,0.334,0.535c0.005-0.057,0.014-0.11,0.02-0.17
			c0.001-0.071,0.007-0.146,0.007-0.221v-0.031c-0.006-0.017-0.013-0.033-0.021-0.056c-0.056-0.141-0.185-0.358-0.337-0.544
			c-0.152-0.192-0.333-0.37-0.504-0.495c-0.166-0.129-0.327-0.201-0.374-0.211c-0.007,0-0.007,0-0.009,0
			c-0.063,0-0.223,0.02-0.375,0.045c-0.325,0.05-0.695,0.127-1.063,0.206c-0.745,0.164-1.515,0.352-2.282,0.542
			c-0.774,0.194-1.557,0.377-2.347,0.585c-0.391,0.105-0.787,0.221-1.195,0.316c-0.166,0.035-0.332,0.07-0.502,0.1l1.33,0.177
			c0.124-0.034,0.243-0.068,0.367-0.1C42.029,39.582,42.813,39.399,43.583,39.204z"/>
		
			<linearGradient id="SVGID_10_" gradientUnits="userSpaceOnUse" x1="912.3496" y1="-1117.3232" x2="912.3496" y2="-1158.8135" gradientTransform="matrix(1 0 0 -1 -863.7988 -1097.8799)">
			<stop  offset="0" style="stop-color:#2D2B2C"/>
			<stop  offset="1" style="stop-color:#0C0C0C"/>
		</linearGradient>
		<path fill="url(#SVGID_10_)" d="M48.551,39.176L48.551,39.176V39.15c0-0.017,0,0.02,0,0.03V39.176z"/>
		
			<linearGradient id="SVGID_11_" gradientUnits="userSpaceOnUse" x1="905.4414" y1="-1117.4727" x2="905.4414" y2="-1157.6086" gradientTransform="matrix(1 0 0 -1 -863.7988 -1097.8799)">
			<stop  offset="0" style="stop-color:#2D2B2C"/>
			<stop  offset="1" style="stop-color:#0C0C0C"/>
		</linearGradient>
		<path fill="url(#SVGID_11_)" d="M41.479,20.409c1.415,0,2.669,3.277,2.881,4.32c0.02-0.102,0.032-0.19,0.032-0.251
			c-0.001-0.612-1.366-4.559-2.913-4.559c-1.552,0-2.585,3.855-2.585,4.818c0,0.059,0.015,0.131,0.022,0.197
			C39.067,23.657,40.053,20.409,41.479,20.409z"/>
		
			<linearGradient id="SVGID_12_" gradientUnits="userSpaceOnUse" x1="900.4365" y1="-1117.4707" x2="900.4365" y2="-1157.6216" gradientTransform="matrix(1 0 0 -1 -863.7988 -1097.8799)">
			<stop  offset="0" style="stop-color:#2D2B2C"/>
			<stop  offset="1" style="stop-color:#0C0C0C"/>
		</linearGradient>
		<path fill="url(#SVGID_12_)" d="M37.389,30.232c1.927,0,2.562-0.658,2.562-1.457c0-0.063-0.017-0.141-0.029-0.214
			c-0.14,0.668-0.832,1.181-2.532,1.181c-1.615,0-4.208,2.019-4.06,5.127C33.457,32.042,35.862,30.232,37.389,30.232z"/>
		
			<linearGradient id="SVGID_13_" gradientUnits="userSpaceOnUse" x1="918.5078" y1="-1117.4873" x2="918.5078" y2="-1157.6128" gradientTransform="matrix(1 0 0 -1 -863.7988 -1097.8799)">
			<stop  offset="0" style="stop-color:#2D2B2C"/>
			<stop  offset="1" style="stop-color:#0C0C0C"/>
		</linearGradient>
		<path fill="url(#SVGID_13_)" d="M51.574,43.486c0.215-0.012,0.435-0.024,0.665-0.029l0.176-0.006h0.173
			c0.171-0.001,0.335,0.008,0.505,0.023c0.677,0.067,1.341,0.287,1.903,0.606c0.571,0.32,1.047,0.728,1.439,1.173
			c0.39,0.446,0.703,0.931,0.955,1.439c0.251,0.508,0.434,1.041,0.544,1.603c0.068,0.316,0.108,0.644,0.123,0.981
			c0.023-0.513-0.026-1.005-0.123-1.471c-0.113-0.562-0.295-1.095-0.544-1.605c-0.246-0.509-0.563-0.992-0.955-1.438
			c-0.393-0.444-0.868-0.852-1.439-1.172c-0.563-0.318-1.227-0.542-1.903-0.604c-0.17-0.017-0.334-0.026-0.505-0.023h-0.173
			l-0.176,0.005c-0.187,0.004-0.36,0.016-0.535,0.026c-0.103,0.174-0.215,0.341-0.35,0.513
			C51.426,43.498,51.501,43.492,51.574,43.486z"/>
		
			<linearGradient id="SVGID_14_" gradientUnits="userSpaceOnUse" x1="908.2422" y1="-1117.4678" x2="908.2422" y2="-1157.6252" gradientTransform="matrix(1 0 0 -1 -863.7988 -1097.8799)">
			<stop  offset="0" style="stop-color:#2D2B2C"/>
			<stop  offset="1" style="stop-color:#0C0C0C"/>
		</linearGradient>
		<path fill="url(#SVGID_14_)" d="M41.471,35.17c-0.385,0.094-0.769,0.191-1.153,0.271c-0.385,0.082-0.767,0.15-1.141,0.227
			c-0.371,0.078-0.738,0.167-1.063,0.257l-0.411,0.11c-0.021,0.006-0.039,0.011-0.042,0.016c-0.029,0,0.042,0.002,0.019,0.004
			l-0.038,0.002c-0.037,0.002-0.016,0.002-0.015,0.006c-0.003,0.009-0.039,0.015-0.055,0.021c-0.085,0.021-0.19,0.022-0.323-0.035
			c-0.128-0.057-0.278-0.17-0.408-0.333c-0.13-0.163-0.243-0.37-0.324-0.605c-0.041-0.116-0.073-0.24-0.094-0.367l-0.008-0.05
			c0-0.028-0.002,0.015-0.004-0.003v-0.01c-0.013,0.08-0.025,0.163-0.023,0.237c0,0.053,0.003,0.108,0.008,0.156
			c0,0.017,0.005,0.021,0.006,0.025l0.003,0.007l0.002,0.038l0.002,0.037c0,0.019,0.002-0.025,0.003,0.004l0.008,0.048
			c0.022,0.128,0.053,0.251,0.094,0.369c0.081,0.232,0.191,0.443,0.323,0.604c0.13,0.163,0.279,0.276,0.409,0.332
			c0.133,0.057,0.236,0.056,0.322,0.036c0.019-0.006,0.052-0.012,0.056-0.021c-0.001-0.002-0.022-0.003,0.014-0.006l0.039-0.002
			c0.023,0-0.047-0.001-0.019-0.004c0.003-0.004,0.021-0.008,0.042-0.016l0.411-0.109c0.326-0.09,0.691-0.181,1.063-0.259
			c0.374-0.078,0.756-0.145,1.141-0.226c0.382-0.079,0.769-0.177,1.155-0.271l1.166-0.287c0.783-0.194,1.571-0.387,2.391-0.565
			c0.41-0.089,0.827-0.176,1.295-0.249c0.236-0.037,0.473-0.074,0.814-0.089c0.179-0.011,0.408-0.004,0.607,0.02
			c0.202,0.022,0.393,0.062,0.574,0.109c0.729,0.195,1.277,0.524,1.751,0.876c0.466,0.356,0.859,0.748,1.205,1.181
			c0.346,0.438,0.65,0.902,0.904,1.501c0.127,0.303,0.237,0.64,0.298,1.094c0.008,0.062,0.013,0.105,0.018,0.199v0.012
			c0.001-0.045,0.006-0.089,0.006-0.133v-0.093v-0.134v-0.038l-0.006-0.106c-0.007-0.093-0.011-0.138-0.018-0.198
			c-0.061-0.456-0.174-0.791-0.298-1.094c-0.251-0.599-0.556-1.063-0.904-1.501c-0.344-0.432-0.739-0.825-1.205-1.18
			c-0.474-0.352-1.022-0.681-1.751-0.876c-0.182-0.046-0.372-0.083-0.574-0.106c-0.199-0.024-0.431-0.03-0.607-0.021
			c-0.342,0.018-0.578,0.054-0.814,0.091c-0.468,0.074-0.885,0.16-1.295,0.249c-0.82,0.181-1.608,0.373-2.391,0.565"/>
		
			<linearGradient id="SVGID_15_" gradientUnits="userSpaceOnUse" x1="912.3496" y1="-1117.3228" x2="912.3496" y2="-1157.7695" gradientTransform="matrix(1 0 0 -1 -863.7988 -1097.8799)">
			<stop  offset="0" style="stop-color:#2D2B2C"/>
			<stop  offset="1" style="stop-color:#0C0C0C"/>
		</linearGradient>
		<path fill="url(#SVGID_15_)" d="M48.551,39.667C48.551,39.668,48.551,39.668,48.551,39.667v-0.025c0-0.016,0,0.02,0,0.029V39.667z
			"/>
		
			<linearGradient id="SVGID_16_" gradientUnits="userSpaceOnUse" x1="899.7129" y1="-1117.4634" x2="899.7129" y2="-1157.6205" gradientTransform="matrix(1 0 0 -1 -863.7988 -1097.8799)">
			<stop  offset="0" style="stop-color:#2D2B2C"/>
			<stop  offset="1" style="stop-color:#0C0C0C"/>
		</linearGradient>
		<path fill="url(#SVGID_16_)" d="M25.887,53.185c0,0.005-0.001,0.011-0.001,0.013c0,0.006,0,0.012,0,0.015v0.018
			c0,0.007,0,0.015,0,0.015c0.001,0.124,0.008,0.251,0.025,0.381c0.027,0.252,0.086,0.49,0.162,0.691
			c0.075,0.199,0.166,0.346,0.252,0.443c0.089,0.102,0.168,0.163,0.282,0.215c0.112,0.051,0.271,0.092,0.48,0.095h0.038l0.023-0.003
			l0.123-0.001c0.021,0-0.03-0.002,0.001-0.002l0.02-0.002l0.046-0.004l0.099-0.011c0.136-0.017,0.292-0.035,0.455-0.06
			c0.329-0.047,0.685-0.1,1.054-0.142c0.744-0.077,1.521-0.181,2.304-0.297l2.377-0.358c0.803-0.117,1.61-0.233,2.429-0.328
			c0.816-0.102,1.645-0.184,2.494-0.219c0.424-0.016,0.854-0.021,1.294-0.003c0.11,0.003,0.219,0.011,0.334,0.02l0.167,0.016
			c0.063,0.005,0.126,0.013,0.187,0.02c0.249,0.029,0.494,0.082,0.732,0.159c0.469,0.143,0.9,0.359,1.281,0.614
			c0.384,0.262,0.72,0.554,1.019,0.87c0.595,0.636,1.063,1.34,1.451,2.069c0.204,0.389,0.387,0.786,0.55,1.188
			c0.129,0.188,0.259,0.385,0.377,0.584c-0.229-0.776-0.542-1.532-0.927-2.261c-0.389-0.73-0.854-1.433-1.451-2.07
			c-0.299-0.315-0.641-0.61-1.019-0.869c-0.383-0.258-0.813-0.474-1.281-0.618c-0.236-0.073-0.484-0.126-0.732-0.155
			c-0.061-0.008-0.124-0.017-0.187-0.021l-0.167-0.015c-0.116-0.012-0.223-0.018-0.334-0.021c-0.439-0.021-0.87-0.014-1.294,0.003
			c-0.849,0.035-1.677,0.115-2.494,0.216c-0.819,0.098-1.625,0.215-2.429,0.33l-2.377,0.358c-0.784,0.118-1.562,0.221-2.304,0.297
			c-0.369,0.041-0.725,0.094-1.054,0.141c-0.162,0.024-0.318,0.044-0.455,0.06l-0.099,0.011l-0.046,0.005h-0.02
			c-0.032,0,0.02,0-0.001,0l-0.123,0.005l-0.023,0.003h-0.038c-0.209-0.003-0.368-0.047-0.48-0.095
			c-0.114-0.053-0.193-0.113-0.282-0.214c-0.087-0.1-0.177-0.249-0.252-0.448c-0.076-0.193-0.135-0.436-0.162-0.691
			c-0.001-0.008-0.001-0.023-0.003-0.032c0,0.007-0.004,0.015-0.006,0.02C25.894,53.143,25.89,53.168,25.887,53.185z"/>
		
			<linearGradient id="SVGID_17_" gradientUnits="userSpaceOnUse" x1="895.1563" y1="-1117.4634" x2="895.1563" y2="-1157.6288" gradientTransform="matrix(1 0 0 -1 -863.7988 -1097.8799)">
			<stop  offset="0" style="stop-color:#2D2B2C"/>
			<stop  offset="1" style="stop-color:#0C0C0C"/>
		</linearGradient>
		<path fill="url(#SVGID_17_)" d="M27.563,42.378c0.194-0.521,0.444-1.04,0.836-1.567c0.198-0.261,0.435-0.526,0.745-0.779
			c0.31-0.251,0.707-0.497,1.207-0.645c0.247-0.076,0.52-0.121,0.794-0.128l0.149-0.001l0.11,0.001l0.19,0.006
			c0.243,0.013,0.461,0.029,0.676,0.047c0.43,0.036,0.84,0.079,1.25,0.125c0.697,0.079,1.389,0.163,2.076,0.251
			c-0.189-0.122-0.366-0.255-0.527-0.397c-0.064-0.056-0.122-0.119-0.181-0.179c-0.455-0.056-0.907-0.114-1.367-0.166
			c-0.41-0.046-0.82-0.087-1.25-0.125c-0.215-0.018-0.433-0.035-0.676-0.045l-0.19-0.006l-0.11-0.001l-0.15,0.001
			c-0.275,0.008-0.547,0.053-0.795,0.129c-0.5,0.15-0.896,0.393-1.207,0.645c-0.311,0.253-0.546,0.519-0.745,0.781
			c-0.392,0.525-0.643,1.045-0.837,1.563c-0.188,0.522-0.316,1.05-0.388,1.591c-0.048,0.38-0.068,0.767-0.051,1.169
			c0.007-0.229,0.024-0.456,0.051-0.678C27.247,43.427,27.375,42.899,27.563,42.378z"/>
		
			<linearGradient id="SVGID_18_" gradientUnits="userSpaceOnUse" x1="888.751" y1="-1117.4771" x2="888.751" y2="-1157.6196" gradientTransform="matrix(1 0 0 -1 -863.7988 -1097.8799)">
			<stop  offset="0" style="stop-color:#2D2B2C"/>
			<stop  offset="1" style="stop-color:#0C0C0C"/>
		</linearGradient>
		<path fill="url(#SVGID_18_)" d="M21.968,52.718c0.021-0.181,0.052-0.353,0.092-0.519c0.158-0.657,0.423-1.211,0.74-1.704
			c0.319-0.496,0.699-0.937,1.145-1.329c0.449-0.39,0.967-0.729,1.583-0.976c0.306-0.123,0.64-0.22,0.99-0.275
			c0.173-0.028,0.355-0.048,0.537-0.053l0.138-0.005h0.134l0.203,0.008c0.157,0.009,0.3,0.021,0.437,0.027
			c-0.09-0.132-0.172-0.268-0.244-0.401c-0.02-0.035-0.032-0.073-0.05-0.109c-0.048-0.003-0.091-0.006-0.143-0.01l-0.203-0.008
			h-0.134l-0.137,0.003c-0.181,0.008-0.364,0.024-0.537,0.054c-0.352,0.056-0.683,0.155-0.99,0.275
			c-0.616,0.248-1.134,0.591-1.583,0.976c-0.447,0.394-0.826,0.836-1.145,1.329c-0.316,0.493-0.582,1.047-0.74,1.705
			c-0.039,0.166-0.072,0.337-0.091,0.516l-0.015,0.139c-0.003,0.048-0.007,0.087-0.01,0.152l-0.004,0.135l0,0.122
			c0,0.053,0.008,0.105,0.01,0.159c0.001-0.027,0.003-0.054,0.006-0.078L21.968,52.718z"/>
		
			<linearGradient id="SVGID_19_" gradientUnits="userSpaceOnUse" x1="889.6846" y1="-1113.835" x2="889.6846" y2="-1159.0623" gradientTransform="matrix(1 0 0 -1 -863.7988 -1097.8799)">
			<stop  offset="0" style="stop-color:#2D2B2C"/>
			<stop  offset="1" style="stop-color:#0C0C0C"/>
		</linearGradient>
		<path fill="url(#SVGID_19_)" d="M25.886,52.708c0,0,0,0,0-0.002C25.884,52.718,25.886,52.711,25.886,52.708z"/>
		
			<linearGradient id="SVGID_20_" gradientUnits="userSpaceOnUse" x1="889.6846" y1="-1113.2827" x2="889.6846" y2="-1158.51" gradientTransform="matrix(1 0 0 -1 -863.7988 -1097.8799)">
			<stop  offset="0" style="stop-color:#2D2B2C"/>
			<stop  offset="1" style="stop-color:#0C0C0C"/>
		</linearGradient>
		<path fill="url(#SVGID_20_)" d="M25.886,52.708c0,0,0,0,0-0.002C25.884,52.718,25.886,52.711,25.886,52.708z"/>
		
			<linearGradient id="SVGID_21_" gradientUnits="userSpaceOnUse" x1="889.6846" y1="-1115.562" x2="889.6846" y2="-1158.6208" gradientTransform="matrix(1 0 0 -1 -863.7988 -1097.8799)">
			<stop  offset="0" style="stop-color:#2D2B2C"/>
			<stop  offset="1" style="stop-color:#0C0C0C"/>
		</linearGradient>
		<path fill="url(#SVGID_21_)" d="M25.886,53.197L25.886,53.197C25.884,53.21,25.886,53.203,25.886,53.197z"/>
		
			<linearGradient id="SVGID_22_" gradientUnits="userSpaceOnUse" x1="889.6846" y1="-1115.0356" x2="889.6846" y2="-1158.0945" gradientTransform="matrix(1 0 0 -1 -863.7988 -1097.8799)">
			<stop  offset="0" style="stop-color:#2D2B2C"/>
			<stop  offset="1" style="stop-color:#0C0C0C"/>
		</linearGradient>
		<path fill="url(#SVGID_22_)" d="M25.886,53.197L25.886,53.197C25.884,53.21,25.886,53.203,25.886,53.197z"/>
	</g>
</g>
</svg>
