<?xml version="1.0" encoding="utf-8"?>
<!-- Generator: Adobe Illustrator 15.0.2, SVG Export Plug-In . SVG Version: 6.00 Build 0)  -->
<!DOCTYPE svg PUBLIC "-//W3C//DTD SVG 1.1//EN" "http://www.w3.org/Graphics/SVG/1.1/DTD/svg11.dtd">
<svg version="1.1" id="Calque_1" xmlns="http://www.w3.org/2000/svg" xmlns:xlink="http://www.w3.org/1999/xlink" x="0px" y="0px"
	 width="320px" height="24px" viewBox="0 0 320 24" enable-background="new 0 0 320 24" xml:space="preserve">
<g id="Effet_NoPatch" display="none">
</g>
<rect x="1.5" y="0.5" fill="#EEEBE8" width="77" height="23"/>
<path fill="#2AEDFF" d="M78,1v22H2V1H78 M79,0H1v24h78V0L79,0z"/>
<rect x="242.5" y="0.5" opacity="0.5" fill="#EEEBE8" width="77" height="23"/>
<path opacity="0.5" fill="#2AEDFF" d="M319,1v22h-76V1H319 M320,0h-78v24h78V0L320,0z"/>
<rect x="81.5" y="0.5" fill="#E8C6B0" width="77" height="23"/>
<path fill="#24CFDE" d="M158,1v22H82V1H158 M159,0H81v24h78V0L159,0z"/>
<rect x="161.5" y="0.5" fill="#D3117E" width="77" height="23"/>
<path fill="#1DA9B6" d="M238,1v22h-76V1H238 M239,0h-78v24h78V0L239,0z"/>
</svg>
