<?xml version="1.0" encoding="utf-8"?>
<!-- Generator: Adobe Illustrator 15.0.2, SVG Export Plug-In . SVG Version: 6.00 Build 0)  -->
<!DOCTYPE svg PUBLIC "-//W3C//DTD SVG 1.1//EN" "http://www.w3.org/Graphics/SVG/1.1/DTD/svg11.dtd">
<svg version="1.1" id="Calque_1" xmlns="http://www.w3.org/2000/svg" xmlns:xlink="http://www.w3.org/1999/xlink" x="0px" y="0px"
	 width="320px" height="24px" viewBox="0 0 320 24" enable-background="new 0 0 320 24" xml:space="preserve">
<g id="Effet_NoPatch" display="none">
</g>
<path fill="#2AEDFF" d="M80,20c0,2.2-1.8,4-4,4H4c-2.2,0-4-1.8-4-4V4c0-2.2,1.8-4,4-4h72c2.2,0,4,1.8,4,4V20z"/>
<path fill="#FFFFFE" d="M79,19.359C79,21.561,77.841,23,75.641,23H4.531C2.331,23,1,21.2,1,19V4.266C1,2.065,2.8,1,5,1h70.469
	C77.669,1,79,2.254,79,4.454V19.359z"/>
<linearGradient id="SVGID_1_" gradientUnits="userSpaceOnUse" x1="848.8" y1="-1206.8799" x2="848.8" y2="-1186.8799" gradientTransform="matrix(1 0 0 -1 -808.7988 -1184.8799)">
	<stop  offset="0" style="stop-color:#E8C6B0"/>
	<stop  offset="1" style="stop-color:#EEEBE8"/>
</linearGradient>
<path fill="url(#SVGID_1_)" d="M78,18.656C78,20.855,77.153,22,74.953,22H4.891C2.69,22,2,20.2,2,18V4.781C2,2.581,3.8,2,6,2h68.983
	C77.186,2,78,3.097,78,5.297V18.656z"/>
<g opacity="0.15">
	<path fill="#FFFFFE" d="M8,8c7.958,0,64,0,64,0s3.633-0.015,6-2.476V5.297C78,3.097,77.186,2,74.985,2H6C3.8,2,2,2.581,2,4.781
		v0.713C3.172,6.888,5.032,8,8,8z"/>
</g>
<path fill="#2AEDFF" d="M160,20c0,2.2-1.8,4-4,4H84c-2.2,0-4-1.8-4-4V4c0-2.2,1.8-4,4-4h72c2.2,0,4,1.8,4,4V20z"/>
<path fill="#FFFFFE" d="M159,19.359c0,2.201-1.159,3.641-3.359,3.641h-71.11C82.331,23,81,21.2,81,19V4.266C81,2.065,82.8,1,85,1
	h70.469c2.2,0,3.531,1.254,3.531,3.454V19.359z"/>
<linearGradient id="SVGID_2_" gradientUnits="userSpaceOnUse" x1="659.1995" y1="838.9199" x2="659.1995" y2="818.9199" gradientTransform="matrix(1 0 0 1 -539.1992 -816.9199)">
	<stop  offset="0" style="stop-color:#E8C6B0"/>
	<stop  offset="1" style="stop-color:#EEEBE8"/>
</linearGradient>
<path fill="url(#SVGID_2_)" d="M158,18.656c0,2.199-0.849,3.344-3.047,3.344H84.891C82.69,22,82,20.2,82,18V4.781
	C82,2.581,83.8,2,86,2h68.983C157.186,2,158,3.097,158,5.297V18.656z"/>
<linearGradient id="SVGID_3_" gradientUnits="userSpaceOnUse" x1="659.2004" y1="828.6699" x2="659.2004" y2="838.7982" gradientTransform="matrix(1 0 0 1 -539.1992 -816.9199)">
	<stop  offset="0" style="stop-color:#000000;stop-opacity:0"/>
	<stop  offset="1" style="stop-color:#000000;stop-opacity:0.1"/>
</linearGradient>
<path fill="url(#SVGID_3_)" d="M158,18.656c0,2.199-0.849,3.344-3.047,3.344H84.891C82.69,22,82,20.2,82,18V4.781
	C82,2.581,83.8,2,86,2h68.983C157.186,2,158,3.097,158,5.297V18.656z"/>
<path fill="#24CFDE" d="M240,20c0,2.2-1.8,4-4,4h-72c-2.2,0-4-1.8-4-4V4c0-2.2,1.8-4,4-4h72c2.2,0,4,1.8,4,4V20z"/>
<path fill="#FFFFFE" d="M239,19.359c0,2.201-1.159,3.641-3.359,3.641h-71.108c-2.2,0-3.531-1.8-3.531-4V4.266
	C161,2.065,162.8,1,165,1h70.469c2.2,0,3.531,1.254,3.531,3.454V19.359z"/>
<linearGradient id="SVGID_4_" gradientUnits="userSpaceOnUse" x1="739.1995" y1="838.9199" x2="739.1995" y2="818.9199" gradientTransform="matrix(1 0 0 1 -539.1992 -816.9199)">
	<stop  offset="0" style="stop-color:#E8C6B0"/>
	<stop  offset="1" style="stop-color:#EEEBE8"/>
</linearGradient>
<path fill="url(#SVGID_4_)" d="M238,18.656c0,2.199-0.849,3.344-3.047,3.344H164.89c-2.2,0-2.89-1.8-2.89-4V4.781
	c0-2.2,1.8-2.781,4-2.781h68.983C237.186,2,238,3.097,238,5.297V18.656z"/>
<linearGradient id="SVGID_5_" gradientUnits="userSpaceOnUse" x1="739.2004" y1="828.6699" x2="739.2004" y2="838.7982" gradientTransform="matrix(1 0 0 1 -539.1992 -816.9199)">
	<stop  offset="0" style="stop-color:#000000;stop-opacity:0"/>
	<stop  offset="1" style="stop-color:#000000;stop-opacity:0.1"/>
</linearGradient>
<path fill="url(#SVGID_5_)" d="M238,18.656c0,2.199-0.849,3.344-3.047,3.344H164.89c-2.2,0-2.89-1.8-2.89-4V4.781
	c0-2.2,1.8-2.781,4-2.781h68.983C237.186,2,238,3.097,238,5.297V18.656z"/>
<g opacity="0.5">
	<path fill="#2AEDFF" d="M320,20c0,2.2-1.801,4-4,4h-72c-2.2,0-4-1.8-4-4V4c0-2.2,1.8-4,4-4h72c2.199,0,4,1.8,4,4V20z"/>
	<path fill="#FFFFFE" d="M319,19.359c0,2.201-1.159,3.641-3.359,3.641h-71.109c-2.199,0-3.53-1.8-3.53-4V4.266
		C241,2.065,242.8,1,245,1h70.469c2.2,0,3.531,1.254,3.531,3.454V19.359z"/>
	
		<linearGradient id="SVGID_6_" gradientUnits="userSpaceOnUse" x1="1088.8" y1="-1206.8799" x2="1088.8" y2="-1186.8799" gradientTransform="matrix(1 0 0 -1 -808.7988 -1184.8799)">
		<stop  offset="0" style="stop-color:#E8C6B0"/>
		<stop  offset="1" style="stop-color:#EEEBE8"/>
	</linearGradient>
	<path fill="url(#SVGID_6_)" d="M318,18.656c0,2.199-0.849,3.344-3.048,3.344H244.89c-2.2,0-2.89-1.8-2.89-4V4.781
		c0-2.2,1.8-2.781,4-2.781h68.983C317.186,2,318,3.097,318,5.297V18.656z"/>
	<g opacity="0.15">
		<path fill="#FFFFFE" d="M248,8c7.958,0,64,0,64,0s3.633-0.015,6-2.476V5.297c0-2.2-0.814-3.297-3.017-3.297H246
			c-2.2,0-4,0.581-4,2.781v0.713C243.172,6.888,245.032,8,248,8z"/>
	</g>
</g>
</svg>
