<?xml version="1.0" encoding="utf-8"?>
<!-- Generator: Adobe Illustrator 15.0.2, SVG Export Plug-In . SVG Version: 6.00 Build 0)  -->
<!DOCTYPE svg PUBLIC "-//W3C//DTD SVG 1.1//EN" "http://www.w3.org/Graphics/SVG/1.1/DTD/svg11.dtd">
<svg version="1.1" id="Calque_1" xmlns="http://www.w3.org/2000/svg" xmlns:xlink="http://www.w3.org/1999/xlink" x="0px" y="0px"
	 width="96px" height="24px" viewBox="0 0 96 24" enable-background="new 0 0 96 24" xml:space="preserve">
<g id="Effet_NoPatch">
</g>
<rect x="0.5" fill="#EEEBE8" width="23" height="23"/>
<path fill="#2AEDFF" d="M23,1v22H1V1H23 M24,0H0v24h24V0L24,0z"/>
<rect x="72" opacity="0.5" fill="#EEEBE8" width="24" height="24"/>
<path opacity="0.5" fill="#2AEDFF" d="M95,1v22H73V1H95 M96,0H72v24h24V0L96,0z"/>
<rect x="24.5" fill="#E8C6B0" width="23" height="23"/>
<path fill="#24CFDE" d="M47,1v22H25V1H47 M48,0H24v24h24V0L48,0z"/>
<rect x="48.5" fill="#D3117E" width="23" height="23"/>
<path fill="#1DA9B6" d="M71,1v22H49V1H71 M72,0H48v24h24V0L72,0z"/>
</svg>
