<?xml version="1.0" encoding="utf-8"?>
<!-- Generator: Adobe Illustrator 15.0.2, SVG Export Plug-In . SVG Version: 6.00 Build 0)  -->
<!DOCTYPE svg PUBLIC "-//W3C//DTD SVG 1.1//EN" "http://www.w3.org/Graphics/SVG/1.1/DTD/svg11.dtd">
<svg version="1.1" id="Calque_1" xmlns="http://www.w3.org/2000/svg" xmlns:xlink="http://www.w3.org/1999/xlink" x="0px" y="0px"
	 width="36px" height="48px" viewBox="6 -6 36 48" enable-background="new 6 -6 36 48" xml:space="preserve">
<path fill="#FFFFFF" d="M27-6c2.2,0,4,1.813,4,4.025v39.949C31,40.188,29.2,42,27,42h-6c-2.2,0-4-1.813-4-4.026V-1.973
	C17-4.188,18.8-6,21-6H27z"/>
<path opacity="0.04" fill="#DFFFEF" enable-background="new    " d="M27-6c2.2,0,4,1.813,4,4.025v39.949C31,40.188,29.2,42,27,42h-6
	c-2.2,0-4-1.813-4-4.026V-1.973C17-4.188,18.8-6,21-6H27z"/>
<g opacity="0.5" enable-background="new    ">
	
		<linearGradient id="SVGID_1_" gradientUnits="userSpaceOnUse" x1="24.0005" y1="25" x2="24.0005" y2="11.095" gradientTransform="matrix(1.192488e-008 -1 1 1.192488e-008 6.0001 42.0001)">
		<stop  offset="0" style="stop-color:#FFF5F5"/>
		<stop  offset="1" style="stop-color:#DFFFEF;stop-opacity:0.3"/>
	</linearGradient>
	<path fill="url(#SVGID_1_)" d="M18-1.975C18-3.643,19.346-5,21-5h6c1.654,0,3,1.357,3,3.025v39.949C30,39.643,28.654,41,27,41h-6
		c-1.654,0-3-1.357-3-3.026V-1.975 M17-1.975v39.948C17,40.188,18.8,42,21,42h6c2.2,0,4-1.813,4-4.025V-1.973C31-4.188,29.2-6,27-6
		h-6C18.8-6,17-4.188,17-1.975L17-1.975z"/>
</g>
</svg>
