<?xml version="1.0" encoding="utf-8"?>
<!-- Generator: Adobe Illustrator 15.0.2, SVG Export Plug-In . SVG Version: 6.00 Build 0)  -->
<!DOCTYPE svg PUBLIC "-//W3C//DTD SVG 1.1//EN" "http://www.w3.org/Graphics/SVG/1.1/DTD/svg11.dtd">
<svg version="1.1" id="Calque_1" xmlns="http://www.w3.org/2000/svg" xmlns:xlink="http://www.w3.org/1999/xlink" x="0px" y="0px"
	 width="48px" height="36px" viewBox="0 0 48 36" enable-background="new 0 0 48 36" xml:space="preserve">
<g>
	<g>
		<path fill="#EEEBE8" d="M41,15H7c-1.657,0-3,1.343-3,3c0,1.656,1.343,3,3,3h34c1.656,0,3-1.344,3-3C44,16.343,42.656,15,41,15z"/>
	</g>
	<path opacity="0.5" fill="#FFFFFE" enable-background="new    " d="M7,21h34c1.657,0,3-1.344,3-3c0,1.656-1.343,2-3,2H7
		c-1.656,0-3-0.344-3-2C4,19.656,5.344,21,7,21z"/>
	<g>
		<linearGradient id="SVGID_1_" gradientUnits="userSpaceOnUse" x1="23.9995" y1="15.8677" x2="23.9995" y2="19.9704">
			<stop  offset="0" style="stop-color:#FFFFFE;stop-opacity:0"/>
			<stop  offset="1" style="stop-color:#000000;stop-opacity:0.1"/>
		</linearGradient>
		<path fill="url(#SVGID_1_)" d="M7,20h34c1.657,0,3-0.344,3-2s-1.344-2-3-2H7c-1.657,0-3,0.344-3,2S5.344,20,7,20z"/>
	</g>
</g>
</svg>
