<?xml version="1.0" encoding="utf-8"?>
<!-- Generator: Adobe Illustrator 15.0.0, SVG Export Plug-In . SVG Version: 6.00 Build 0)  -->
<!DOCTYPE svg PUBLIC "-//W3C//DTD SVG 1.1//EN" "http://www.w3.org/Graphics/SVG/1.1/DTD/svg11.dtd">
<svg version="1.1" id="Calque_1" xmlns="http://www.w3.org/2000/svg" xmlns:xlink="http://www.w3.org/1999/xlink" x="0px" y="0px"
	 width="24px" height="24px" viewBox="-11.5 0 24 24" enable-background="new -11.5 0 24 24" xml:space="preserve">
<path fill="#2AEDFF" d="M41.5,20c0,2.2-1.8,4-4,4h-72c-2.2,0-4-1.8-4-4V4c0-2.2,1.8-4,4-4h72c2.2,0,4,1.8,4,4V20z"/>
<path fill="#FFFFFE" d="M40.5,19.359c0,2.201-1.159,3.641-3.359,3.641h-71.109c-2.2,0-3.531-1.8-3.531-4V4.266
	c0-2.201,1.8-3.266,4-3.266h70.469c2.2,0,3.531,1.254,3.531,3.454V19.359z"/>
<linearGradient id="SVGID_1_" gradientUnits="userSpaceOnUse" x1="866.6592" y1="-1086.5801" x2="866.6592" y2="-1066.5801" gradientTransform="matrix(1 0 0 -1 -865.1592 -1064.5801)">
	<stop  offset="0" style="stop-color:#E8C6B0"/>
	<stop  offset="1" style="stop-color:#EEEBE8"/>
</linearGradient>
<path fill="url(#SVGID_1_)" d="M39.5,18.656c0,2.199-0.848,3.344-3.047,3.344h-70.062c-2.201,0-2.891-1.8-2.891-4V4.781
	c0-2.2,1.8-2.781,4-2.781h68.984C38.686,2,39.5,3.097,39.5,5.297V18.656z"/>
<g opacity="0.15">
	<path fill="#FFFFFE" d="M-30.5,8c7.958,0,64,0,64,0s3.633-0.015,6-2.476V5.297C39.5,3.097,38.686,2,36.484,2H-32.5
		c-2.2,0-4,0.581-4,2.781v0.713C-35.328,6.888-33.468,8-30.5,8z"/>
</g>
</svg>
