<?xml version="1.0" encoding="utf-8"?>
<!-- Generator: Adobe Illustrator 15.0.2, SVG Export Plug-In . SVG Version: 6.00 Build 0)  -->
<!DOCTYPE svg PUBLIC "-//W3C//DTD SVG 1.1//EN" "http://www.w3.org/Graphics/SVG/1.1/DTD/svg11.dtd">
<svg version="1.1" id="Calque_1" xmlns="http://www.w3.org/2000/svg" xmlns:xlink="http://www.w3.org/1999/xlink" x="0px" y="0px"
	 width="384px" height="45px" viewBox="0 0 384 45" enable-background="new 0 0 384 45" xml:space="preserve">
<g>
	<rect x="49" y="1" fill="#FFFFFF" width="30" height="13"/>
	<rect x="49" y="1" opacity="0.04" fill="#DFFFEF" enable-background="new    " width="30" height="13"/>
	<g opacity="0.5" enable-background="new    ">
		
			<linearGradient id="SVGID_1_" gradientUnits="userSpaceOnUse" x1="20.9414" y1="-648.5605" x2="20.9414" y2="-661.6708" gradientTransform="matrix(-1 0 0 -1 84.9414 -647.5605)">
			<stop  offset="0" style="stop-color:#FFF5F5"/>
			<stop  offset="1" style="stop-color:#DFFFEF;stop-opacity:0.25"/>
		</linearGradient>
		<path fill="url(#SVGID_1_)" d="M50,13V2h28v11H50 M49,14h30V1H49V14L49,14z"/>
	</g>
</g>
<g>
	
		<linearGradient id="SVGID_2_" gradientUnits="userSpaceOnUse" x1="419.46" y1="-215.5996" x2="419.46" y2="-221.0495" gradientTransform="matrix(1 0 0 -1 -355.46 -213.5996)">
		<stop  offset="0" style="stop-color:#FFFFFE;stop-opacity:0.45"/>
		<stop  offset="1" style="stop-color:#FFFFFE;stop-opacity:0.15"/>
	</linearGradient>
	<polygon fill="url(#SVGID_2_)" points="77.026,7.5 50.974,7.5 50,2 78,2 	"/>
	
		<linearGradient id="SVGID_3_" gradientUnits="userSpaceOnUse" x1="419.46" y1="-221.0752" x2="419.46" y2="-226.5384" gradientTransform="matrix(1 0 0 -1 -355.46 -213.5996)">
		<stop  offset="0" style="stop-color:#FFFFFE;stop-opacity:0"/>
		<stop  offset="0.9932" style="stop-color:#000000;stop-opacity:0.25"/>
	</linearGradient>
	<polygon fill="url(#SVGID_3_)" points="78,13 50,13 50.974,7.5 77.026,7.5 	"/>
</g>
<g>
	<rect x="145" y="1" fill="#FFFFFF" width="30" height="13"/>
	<rect x="145" y="1" opacity="0.04" fill="#DFFFEF" enable-background="new    " width="30" height="13"/>
	<g opacity="0.5" enable-background="new    ">
		
			<linearGradient id="SVGID_4_" gradientUnits="userSpaceOnUse" x1="-75.0586" y1="-648.5605" x2="-75.0586" y2="-661.6708" gradientTransform="matrix(-1 0 0 -1 84.9414 -647.5605)">
			<stop  offset="0" style="stop-color:#FFF5F5"/>
			<stop  offset="1" style="stop-color:#DFFFEF;stop-opacity:0.25"/>
		</linearGradient>
		<path fill="url(#SVGID_4_)" d="M146,13V2h28v11H146 M145,14h30V1h-30V14L145,14z"/>
	</g>
</g>
<g>
	
		<linearGradient id="SVGID_5_" gradientUnits="userSpaceOnUse" x1="515.46" y1="-215.5996" x2="515.46" y2="-221.0495" gradientTransform="matrix(1 0 0 -1 -355.46 -213.5996)">
		<stop  offset="0" style="stop-color:#FFFFFE;stop-opacity:0.45"/>
		<stop  offset="1" style="stop-color:#FFFFFE;stop-opacity:0.15"/>
	</linearGradient>
	<polygon fill="url(#SVGID_5_)" points="173.026,7.5 146.974,7.5 146,2 174,2 	"/>
	
		<linearGradient id="SVGID_6_" gradientUnits="userSpaceOnUse" x1="515.46" y1="-221.0752" x2="515.46" y2="-226.5384" gradientTransform="matrix(1 0 0 -1 -355.46 -213.5996)">
		<stop  offset="0" style="stop-color:#FFFFFE;stop-opacity:0"/>
		<stop  offset="0.9932" style="stop-color:#000000;stop-opacity:0.25"/>
	</linearGradient>
	<polygon fill="url(#SVGID_6_)" points="174,13 146,13 146.974,7.5 173.026,7.5 	"/>
</g>
<g>
	<rect x="241" y="1" fill="#FFFFFF" width="30" height="13"/>
	<rect x="241" y="1" opacity="0.04" fill="#DFFFEF" enable-background="new    " width="30" height="13"/>
	<g opacity="0.5" enable-background="new    ">
		
			<linearGradient id="SVGID_7_" gradientUnits="userSpaceOnUse" x1="-171.0586" y1="-648.5605" x2="-171.0586" y2="-661.6708" gradientTransform="matrix(-1 0 0 -1 84.9414 -647.5605)">
			<stop  offset="0" style="stop-color:#FFF5F5"/>
			<stop  offset="1" style="stop-color:#DFFFEF;stop-opacity:0.25"/>
		</linearGradient>
		<path fill="url(#SVGID_7_)" d="M242,13V2h28v11H242 M241,14h30V1h-30V14L241,14z"/>
	</g>
</g>
<g>
	
		<linearGradient id="SVGID_8_" gradientUnits="userSpaceOnUse" x1="611.46" y1="-215.5996" x2="611.46" y2="-221.0495" gradientTransform="matrix(1 0 0 -1 -355.46 -213.5996)">
		<stop  offset="0" style="stop-color:#FFFFFE;stop-opacity:0.45"/>
		<stop  offset="1" style="stop-color:#FFFFFE;stop-opacity:0.15"/>
	</linearGradient>
	<polygon fill="url(#SVGID_8_)" points="269.025,7.5 242.975,7.5 242,2 270,2 	"/>
	
		<linearGradient id="SVGID_9_" gradientUnits="userSpaceOnUse" x1="611.46" y1="-221.0752" x2="611.46" y2="-226.5384" gradientTransform="matrix(1 0 0 -1 -355.46 -213.5996)">
		<stop  offset="0" style="stop-color:#FFFFFE;stop-opacity:0"/>
		<stop  offset="0.9932" style="stop-color:#000000;stop-opacity:0.25"/>
	</linearGradient>
	<polygon fill="url(#SVGID_9_)" points="270,13 242,13 242.975,7.5 269.025,7.5 	"/>
</g>
<g>
	<rect x="337" y="1" fill="#FFFFFF" width="30" height="13"/>
	<rect x="337" y="1" opacity="0.04" fill="#DFFFEF" enable-background="new    " width="30" height="13"/>
	<g opacity="0.5" enable-background="new    ">
		
			<linearGradient id="SVGID_10_" gradientUnits="userSpaceOnUse" x1="-267.0586" y1="-648.5605" x2="-267.0586" y2="-661.6708" gradientTransform="matrix(-1 0 0 -1 84.9414 -647.5605)">
			<stop  offset="0" style="stop-color:#FFF5F5"/>
			<stop  offset="1" style="stop-color:#DFFFEF;stop-opacity:0.25"/>
		</linearGradient>
		<path fill="url(#SVGID_10_)" d="M338,13V2h28v11H338 M337,14h30V1h-30V14L337,14z"/>
	</g>
</g>
<g>
	
		<linearGradient id="SVGID_11_" gradientUnits="userSpaceOnUse" x1="707.46" y1="-215.5996" x2="707.46" y2="-221.0495" gradientTransform="matrix(1 0 0 -1 -355.46 -213.5996)">
		<stop  offset="0" style="stop-color:#FFFFFE;stop-opacity:0.45"/>
		<stop  offset="1" style="stop-color:#FFFFFE;stop-opacity:0.15"/>
	</linearGradient>
	<polygon fill="url(#SVGID_11_)" points="365.025,7.5 338.975,7.5 338,2 366,2 	"/>
	
		<linearGradient id="SVGID_12_" gradientUnits="userSpaceOnUse" x1="707.46" y1="-221.0752" x2="707.46" y2="-226.5384" gradientTransform="matrix(1 0 0 -1 -355.46 -213.5996)">
		<stop  offset="0" style="stop-color:#FFFFFE;stop-opacity:0"/>
		<stop  offset="0.9932" style="stop-color:#000000;stop-opacity:0.25"/>
	</linearGradient>
	<polygon fill="url(#SVGID_12_)" points="366,13 338,13 338.975,7.5 365.025,7.5 	"/>
</g>
</svg>
