<?xml version="1.0" encoding="utf-8"?>
<!-- Generator: Adobe Illustrator 15.0.2, SVG Export Plug-In . SVG Version: 6.00 Build 0)  -->
<!DOCTYPE svg PUBLIC "-//W3C//DTD SVG 1.1//EN" "http://www.w3.org/Graphics/SVG/1.1/DTD/svg11.dtd">
<svg version="1.1" id="Calque_1" xmlns="http://www.w3.org/2000/svg" xmlns:xlink="http://www.w3.org/1999/xlink" x="0px" y="0px"
	 width="35px" height="35px" viewBox="0.5 0.5 35 35" enable-background="new 0.5 0.5 35 35" xml:space="preserve">
<g>
	<rect x="8" y="8" fill="#FFFFFF" width="20" height="20"/>
	<rect x="8" y="8" opacity="0.04" fill="#DFFFEF" enable-background="new    " width="20" height="20"/>
	<g opacity="0.5" enable-background="new    ">
		
			<linearGradient id="SVGID_1_" gradientUnits="userSpaceOnUse" x1="842.7988" y1="1229.8799" x2="842.7988" y2="1209.7095" gradientTransform="matrix(1 0 0 1 -824.7988 -1201.8799)">
			<stop  offset="0" style="stop-color:#FFF5F5"/>
			<stop  offset="1" style="stop-color:#DFFFEF;stop-opacity:0.25"/>
		</linearGradient>
		<path fill="url(#SVGID_1_)" d="M27,27H9V9h18V27 M28,28V8H8v20H28L28,28z"/>
	</g>
</g>
<g>
	<path fill="#006E12" d="M15.959,13.948c-0.11,0-0.22,0.047-0.298,0.136c-0.144,0.165-0.125,0.416,0.039,0.56l3.741,3.268
		l-3.746,3.346c-0.163,0.146-0.178,0.396-0.031,0.561c0.146,0.164,0.397,0.176,0.559,0.031l4.083-3.645
		c0.084-0.076,0.133-0.184,0.133-0.298c-0.002-0.113-0.051-0.221-0.137-0.296l-4.082-3.564
		C16.145,13.981,16.052,13.948,15.959,13.948z"/>
</g>
</svg>
