<?xml version="1.0" encoding="utf-8"?>
<!-- Generator: Adobe Illustrator 15.0.2, SVG Export Plug-In . SVG Version: 6.00 Build 0)  -->
<!DOCTYPE svg PUBLIC "-//W3C//DTD SVG 1.1//EN" "http://www.w3.org/Graphics/SVG/1.1/DTD/svg11.dtd">
<svg version="1.1" id="Calque_1" xmlns="http://www.w3.org/2000/svg" xmlns:xlink="http://www.w3.org/1999/xlink" x="0px" y="0px"
	 width="35px" height="35px" viewBox="0.5 0.5 35 35" enable-background="new 0.5 0.5 35 35" xml:space="preserve">
<g>
	<rect x="8" y="8" fill="#FFFFFF" width="20" height="20"/>
	<rect x="8" y="8" opacity="0.04" fill="#DFFFEF" enable-background="new    " width="20" height="20"/>
	<g opacity="0.5" enable-background="new    ">
		
			<linearGradient id="SVGID_1_" gradientUnits="userSpaceOnUse" x1="-831.7988" y1="1229.8799" x2="-831.7988" y2="1209.7104" gradientTransform="matrix(-1 0 0 1 -813.7988 -1201.8799)">
			<stop  offset="0" style="stop-color:#FFF5F5"/>
			<stop  offset="1" style="stop-color:#DFFFEF;stop-opacity:0.25"/>
		</linearGradient>
		<path fill="url(#SVGID_1_)" d="M9,27V9h18v18H9 M8,28h20V8H8V28L8,28z"/>
	</g>
</g>
<g>
	<path fill="#006E12" d="M20.041,13.948c0.109,0,0.221,0.047,0.298,0.136c0.144,0.165,0.126,0.416-0.038,0.56l-3.742,3.268
		l3.746,3.346c0.163,0.146,0.178,0.396,0.032,0.561s-0.396,0.176-0.56,0.031l-4.083-3.645c-0.084-0.076-0.133-0.184-0.132-0.298
		c0.001-0.113,0.05-0.221,0.137-0.296l4.081-3.564C19.855,13.981,19.949,13.948,20.041,13.948z"/>
</g>
</svg>
