<?xml version="1.0" encoding="utf-8"?>
<!-- Generator: Adobe Illustrator 15.0.2, SVG Export Plug-In . SVG Version: 6.00 Build 0)  -->
<!DOCTYPE svg PUBLIC "-//W3C//DTD SVG 1.1//EN" "http://www.w3.org/Graphics/SVG/1.1/DTD/svg11.dtd">
<svg version="1.1" id="Calque_1" xmlns="http://www.w3.org/2000/svg" xmlns:xlink="http://www.w3.org/1999/xlink" x="0px" y="0px"
	 width="384px" height="45px" viewBox="0 0 384 45" enable-background="new 0 0 384 45" xml:space="preserve">
<path fill="#FFF5F5" d="M48,7.5c0-1.65,1.35-3,3-3h26c1.65,0,3,1.35,3,3l0,0c0,1.65-1.35,3-3,3H51C49.35,10.5,48,9.15,48,7.5L48,7.5
	z"/>
<path fill="#FFF5F5" d="M144,7.5c0-1.65,1.35-3,3-3h26c1.65,0,3,1.35,3,3l0,0c0,1.65-1.35,3-3,3h-26C145.35,10.5,144,9.15,144,7.5
	L144,7.5z"/>
<path fill="#FFF5F5" d="M240,7.5c0-1.65,1.35-3,3-3h26c1.65,0,3,1.35,3,3l0,0c0,1.65-1.35,3-3,3h-26C241.35,10.5,240,9.15,240,7.5
	L240,7.5z"/>
<path fill="#FFF5F5" d="M336,7.5c0-1.65,1.35-3,3-3h26c1.65,0,3,1.35,3,3l0,0c0,1.65-1.35,3-3,3h-26C337.35,10.5,336,9.15,336,7.5
	L336,7.5z"/>
</svg>
